<mxfile modified="2022-03-01T11:05:53.513Z" host="app.diagrams.net" agent="5.0 (Windows NT 10.0; Win64; x64) AppleWebKit/537.36 (KHTML, like Gecko) Chrome/98.0.4758.102 Safari/537.36" etag="rFsfUqBcAuzDLA-YlB7d" version="16.6.4" type="gitlab">
  <diagram id="WI9T0HZ2pTsCkuznbFz-" name="Page-1">
    <mxGraphModel dx="1730" dy="898" grid="1" gridSize="10" guides="1" tooltips="1" connect="1" arrows="1" fold="1" page="1" pageScale="1" pageWidth="1169" pageHeight="827" background="#ffffff" math="0" shadow="0">
      <root>
        <mxCell id="0" />
        <mxCell id="1" parent="0" />
        <mxCell id="AcxdMaKK0mU5kZiv2lnr-16" style="edgeStyle=orthogonalEdgeStyle;rounded=0;orthogonalLoop=1;jettySize=auto;html=1;strokeColor=#808080;" parent="1" edge="1">
          <mxGeometry relative="1" as="geometry">
            <Array as="points">
              <mxPoint x="220" y="358" />
              <mxPoint x="220" y="358" />
            </Array>
            <mxPoint x="174" y="358" as="sourcePoint" />
            <mxPoint x="230" y="358.0666666666666" as="targetPoint" />
          </mxGeometry>
        </mxCell>
        <mxCell id="AcxdMaKK0mU5kZiv2lnr-17" style="edgeStyle=elbowEdgeStyle;rounded=0;orthogonalLoop=1;jettySize=auto;html=1;entryX=-0.016;entryY=0.49;entryDx=0;entryDy=0;entryPerimeter=0;elbow=vertical;strokeColor=#808080;" parent="1" edge="1">
          <mxGeometry relative="1" as="geometry">
            <mxPoint x="294" y="357.66666666666663" as="sourcePoint" />
            <mxPoint x="364.9759999999999" y="357.36" as="targetPoint" />
          </mxGeometry>
        </mxCell>
        <mxCell id="pel05_LOhtitlJmnvoeQ-5" value="" style="shape=image;verticalLabelPosition=bottom;labelBackgroundColor=#ffffff;verticalAlign=top;aspect=fixed;imageAspect=0;image=data:image/svg+xml,PHN2ZyB4bWxuczpjYz0iaHR0cDovL2NyZWF0aXZlY29tbW9ucy5vcmcvbnMjIiB4bWxuczpkYz0iaHR0cDovL3B1cmwub3JnL2RjL2VsZW1lbnRzLzEuMS8iIHhtbG5zOmlua3NjYXBlPSJodHRwOi8vd3d3Lmlua3NjYXBlLm9yZy9uYW1lc3BhY2VzL2lua3NjYXBlIiB4bWxuczpyZGY9Imh0dHA6Ly93d3cudzMub3JnLzE5OTkvMDIvMjItcmRmLXN5bnRheC1ucyMiIHhtbG5zOnNvZGlwb2RpPSJodHRwOi8vc29kaXBvZGkuc291cmNlZm9yZ2UubmV0L0RURC9zb2RpcG9kaS0wLmR0ZCIgeG1sbnM6c3ZnPSJodHRwOi8vd3d3LnczLm9yZy8yMDAwL3N2ZyIgeG1sbnM9Imh0dHA6Ly93d3cudzMub3JnLzIwMDAvc3ZnIiB4bWxuczp4bGluaz0iaHR0cDovL3d3dy53My5vcmcvMTk5OS94bGluayIgdmVyc2lvbj0iMS4xIiBpZD0ic3ZnODA0NzkiIGlua3NjYXBlOnZlcnNpb249IjAuOTIuMyAoMjQwNTU0NiwgMjAxOC0wMy0xMSkiIHNvZGlwb2RpOmRvY25hbWU9ImdpdC5zdmciIHg9IjBweCIgeT0iMHB4IiB2aWV3Qm94PSIwIDAgMzAuMzcgMzAuMzciIHN0eWxlPSJlbmFibGUtYmFja2dyb3VuZDpuZXcgMCAwIDMwLjM3IDMwLjM3OyIgeG1sOnNwYWNlPSJwcmVzZXJ2ZSI+JiN4YTs8c29kaXBvZGk6bmFtZWR2aWV3IGJvcmRlcmNvbG9yPSIjNjY2NjY2IiBib3JkZXJvcGFjaXR5PSIxIiBmaXQtbWFyZ2luLWJvdHRvbT0iMCIgZml0LW1hcmdpbi1sZWZ0PSIwIiBmaXQtbWFyZ2luLXJpZ2h0PSIwIiBmaXQtbWFyZ2luLXRvcD0iMCIgZ3JpZHRvbGVyYW5jZT0iMTAiIGd1aWRldG9sZXJhbmNlPSIxMCIgaWQ9Im5hbWVkdmlldzgwNDgxIiBpbmtzY2FwZTpjdXJyZW50LWxheWVyPSJzdmc4MDQ3OSIgaW5rc2NhcGU6Y3g9IjI0LjU0MDUyIiBpbmtzY2FwZTpjeT0iLTcuOTc4NjcxNyIgaW5rc2NhcGU6cGFnZW9wYWNpdHk9IjAiIGlua3NjYXBlOnBhZ2VzaGFkb3c9IjIiIGlua3NjYXBlOndpbmRvdy1oZWlnaHQ9IjEwMTciIGlua3NjYXBlOndpbmRvdy1tYXhpbWl6ZWQ9IjEiIGlua3NjYXBlOndpbmRvdy13aWR0aD0iMTkyMCIgaW5rc2NhcGU6d2luZG93LXg9Ii04IiBpbmtzY2FwZTp3aW5kb3cteT0iLTgiIGlua3NjYXBlOnpvb209IjYuOTUyMzU1MSIgb2JqZWN0dG9sZXJhbmNlPSIxMCIgcGFnZWNvbG9yPSIjZmZmZmZmIiBzaG93Z3JpZD0iZmFsc2UiPiYjeGE7CTwvc29kaXBvZGk6bmFtZWR2aWV3PiYjeGE7PGcgaWQ9Imc4MDQ3NyIgdHJhbnNmb3JtPSJ0cmFuc2xhdGUoLTIwLjgxNTYsLTAuNzQyMikiPiYjeGE7CTx0aXRsZSBpZD0idGl0bGU4MDQ2NyI+UGFnZS0xPC90aXRsZT4mI3hhOwk8ZyBpZD0iZ3JvdXA0MjQ4LTEiIHRyYW5zZm9ybT0idHJhbnNsYXRlKDIwLjYzMDYsLTM0Ljg0MjgpIj4mI3hhOwkJPHRpdGxlIGlkPSJ0aXRsZTgwNDY5Ij5HaXQ8L3RpdGxlPiYjeGE7CQk8ZyBpZD0ic2hhcGU0MjQ5LTIiPiYjeGE7CQkJPHRpdGxlIGlkPSJ0aXRsZTgwNDcxIj5TaGVldC40MjQ5PC90aXRsZT4mI3hhOwkJCTxwYXRoIGlkPSJwYXRoODA0NzMiIGlua3NjYXBlOmNvbm5lY3Rvci1jdXJ2YXR1cmU9IjAiIHN0eWxlPSJmaWxsOiNGNTREMjc7IiBkPSJNMzAsNDkuNDRsLTEzLjMtMTMuMyAgICAgYy0wLjc0LTAuNzQtMS45Mi0wLjc0LTIuNjYsMGwtMi44NSwyLjg1bDMuNDMsMy40M2MwLjI2LTAuMSwwLjUzLTAuMTYsMC44NC0wLjE2YzEuMjcsMCwyLjMsMS4wMywyLjMsMi4zMiAgICAgYzAsMC4yOS0wLjA1LDAuNTgtMC4xNSwwLjg0bDMuMzYsMy4zNmMwLjI1LTAuMTEsMC41NS0wLjE3LDAuODMtMC4xN2MxLjI4LDAsMi4zMSwxLjA1LDIuMzEsMi4zMmMwLDEuMjktMS4wMywyLjMxLTIuMzEsMi4zMSAgICAgYy0xLjI3LDAtMi4zMS0xLjAyLTIuMzEtMi4zMWMwLTAuMjksMC4wNi0wLjU4LDAuMTYtMC44NGwtMy4xNy0zLjE3djguMjZjMC43NywwLjM5LDEuMjcsMS4xNywxLjI3LDIuMDYgICAgIGMwLDEuMjktMS4wMiwyLjMyLTIuMjksMi4zMmMtMS4yOSwwLTIuMzItMS4wMy0yLjMyLTIuMzJjMC0wLjk4LDAuNjEtMS44MiwxLjQ5LTIuMTV2LTguMzZjLTAuODgtMC4zMy0xLjQ5LTEuMTctMS40OS0yLjE1ICAgICBjMC0wLjMsMC4wNi0wLjU4LDAuMTYtMC44NWwtMy40My0zLjQybC05LjEzLDkuMTNDMCw1MC4xOCwwLDUxLjM2LDAuNzQsNTIuMDlsMTMuMywxMy4zMWMwLjczLDAuNzQsMS45MiwwLjc0LDIuNjYsMEwzMCw1Mi4wOSAgICAgQzMwLjc0LDUxLjM2LDMwLjc0LDUwLjE4LDMwLDQ5LjQ0eiIvPiYjeGE7CQk8L2c+JiN4YTsJPC9nPiYjeGE7PC9nPiYjeGE7PC9zdmc+;" vertex="1" parent="1">
          <mxGeometry x="236.5" y="333" width="50" height="50" as="geometry" />
        </mxCell>
        <mxCell id="pel05_LOhtitlJmnvoeQ-8" value="" style="group" vertex="1" connectable="0" parent="1">
          <mxGeometry x="90" y="330.5" width="70" height="54.5" as="geometry" />
        </mxCell>
        <mxCell id="pel05_LOhtitlJmnvoeQ-4" value="Source Code" style="shape=image;verticalLabelPosition=bottom;labelBackgroundColor=#ffffff;verticalAlign=top;aspect=fixed;imageAspect=0;image=data:image/svg+xml,PHN2ZyB4bWxuczpjYz0iaHR0cDovL2NyZWF0aXZlY29tbW9ucy5vcmcvbnMjIiB4bWxuczpkYz0iaHR0cDovL3B1cmwub3JnL2RjL2VsZW1lbnRzLzEuMS8iIHhtbG5zOmlua3NjYXBlPSJodHRwOi8vd3d3Lmlua3NjYXBlLm9yZy9uYW1lc3BhY2VzL2lua3NjYXBlIiB4bWxuczpyZGY9Imh0dHA6Ly93d3cudzMub3JnLzE5OTkvMDIvMjItcmRmLXN5bnRheC1ucyMiIHhtbG5zOnNvZGlwb2RpPSJodHRwOi8vc29kaXBvZGkuc291cmNlZm9yZ2UubmV0L0RURC9zb2RpcG9kaS0wLmR0ZCIgeG1sbnM6c3ZnPSJodHRwOi8vd3d3LnczLm9yZy8yMDAwL3N2ZyIgeG1sbnM9Imh0dHA6Ly93d3cudzMub3JnLzIwMDAvc3ZnIiB4bWxuczp4bGluaz0iaHR0cDovL3d3dy53My5vcmcvMTk5OS94bGluayIgdmVyc2lvbj0iMS4xIiBpZD0ic3ZnMjYxNzQiIGlua3NjYXBlOnZlcnNpb249IjAuOTIuMyAoMjQwNTU0NiwgMjAxOC0wMy0xMSkiIHNvZGlwb2RpOmRvY25hbWU9Im1vbml0b3JfMS5zdmciIHg9IjBweCIgeT0iMHB4IiB2aWV3Qm94PSIwIDAgOTAuNzUgNzIiIHN0eWxlPSJlbmFibGUtYmFja2dyb3VuZDpuZXcgMCAwIDkwLjc1IDcyOyIgeG1sOnNwYWNlPSJwcmVzZXJ2ZSI+JiN4YTs8c29kaXBvZGk6bmFtZWR2aWV3IGJvcmRlcmNvbG9yPSIjNjY2NjY2IiBib3JkZXJvcGFjaXR5PSIxIiBmaXQtbWFyZ2luLWJvdHRvbT0iMCIgZml0LW1hcmdpbi1sZWZ0PSIwIiBmaXQtbWFyZ2luLXJpZ2h0PSIwIiBmaXQtbWFyZ2luLXRvcD0iMCIgZ3JpZHRvbGVyYW5jZT0iMTAiIGd1aWRldG9sZXJhbmNlPSIxMCIgaWQ9Im5hbWVkdmlldzI2MTc2IiBpbmtzY2FwZTpjdXJyZW50LWxheWVyPSJzdmcyNjE3NCIgaW5rc2NhcGU6Y3g9IjYwLjQ5OTgwMiIgaW5rc2NhcGU6Y3k9IjQ3Ljk5OTg0MSIgaW5rc2NhcGU6cGFnZW9wYWNpdHk9IjAiIGlua3NjYXBlOnBhZ2VzaGFkb3c9IjIiIGlua3NjYXBlOndpbmRvdy1oZWlnaHQ9IjEwMTciIGlua3NjYXBlOndpbmRvdy1tYXhpbWl6ZWQ9IjEiIGlua3NjYXBlOndpbmRvdy13aWR0aD0iMTkyMCIgaW5rc2NhcGU6d2luZG93LXg9Ii04IiBpbmtzY2FwZTp3aW5kb3cteT0iLTgiIGlua3NjYXBlOnpvb209IjguODQ2OTY3NCIgb2JqZWN0dG9sZXJhbmNlPSIxMCIgcGFnZWNvbG9yPSIjZmZmZmZmIiBzaG93Z3JpZD0iZmFsc2UiPiYjeGE7CTwvc29kaXBvZGk6bmFtZWR2aWV3PiYjeGE7PGcgaWQ9ImcyNjE3MiIgdHJhbnNmb3JtPSJ0cmFuc2xhdGUoLTAuNzUwMTUwODIsLTAuNzQ5OTc4NzMpIj4mI3hhOwk8dGl0bGUgaWQ9InRpdGxlMjYxNDIiPlBhZ2UtMTwvdGl0bGU+JiN4YTsJPGcgaWQ9Imdyb3VwMzgzOS0xIiB0cmFuc2Zvcm09InRyYW5zbGF0ZSgxLjUsLTAuNzUpIj4mI3hhOwkJPHRpdGxlIGlkPSJ0aXRsZTI2MTQ0Ij5Nb25pdG9yICMxPC90aXRsZT4mI3hhOwkJPGcgaWQ9InNoYXBlMzg0MC0yIiB0cmFuc2Zvcm09InRyYW5zbGF0ZSg0Mi4zMywtMS42ODc1KSI+JiN4YTsJCQk8dGl0bGUgaWQ9InRpdGxlMjYxNDYiPnBvbHlnb24xMDM2PC90aXRsZT4mI3hhOwkJCTxwYXRoIGlkPSJwYXRoMjYxNDgiIGlua3NjYXBlOmNvbm5lY3Rvci1jdXJ2YXR1cmU9IjAiIHN0eWxlPSJmaWxsOiM1NTZBOEE7IiBkPSJNMC43Miw2My40NGgyLjg3TDQuMzEsNzMuNUgwTDAuNzIsNjMuNDR6Ii8+JiN4YTsJCTwvZz4mI3hhOwkJPGcgaWQ9InNoYXBlMzg0MS00IiB0cmFuc2Zvcm09InRyYW5zbGF0ZSgwLC0xMikiPiYjeGE7CQkJPHRpdGxlIGlkPSJ0aXRsZTI2MTUxIj5wYXRoMTAzODwvdGl0bGU+JiN4YTsJCQk8cGF0aCBpZD0icGF0aDI2MTUzIiBpbmtzY2FwZTpjb25uZWN0b3ItY3VydmF0dXJlPSIwIiBzdHlsZT0iZmlsbDojRkZGRkZGOyIgZD0iTTgzLjY3LDE0LjI1SDUuNThDMi41MiwxNC4yNCwwLjAzLDE2LjcsMCwxOS43NiAgICAgdjQ4LjIzYzAuMDMsMy4wNiwyLjUyLDUuNTIsNS41OCw1LjUxaDc4LjA5YzMuMDYsMC4wMSw1LjU1LTIuNDUsNS41OC01LjUxVjE5Ljc2Qzg5LjIyLDE2LjcsODYuNzMsMTQuMjQsODMuNjcsMTQuMjV6Ii8+JiN4YTsJCTwvZz4mI3hhOwkJPGcgaWQ9InNoYXBlMzg0Mi02IiB0cmFuc2Zvcm09InRyYW5zbGF0ZSgwLC01NykiPiYjeGE7CQkJPHRpdGxlIGlkPSJ0aXRsZTI2MTU2Ij5wYXRoMTA0MDwvdGl0bGU+JiN4YTsJCQk8cGF0aCBpZD0icGF0aDI2MTU4IiBpbmtzY2FwZTpjb25uZWN0b3ItY3VydmF0dXJlPSIwIiBzdHlsZT0iZmlsbDojRTVFNUU1OyIgZD0iTTg5LjI1LDY0Ljc2djguNzRIMHYtOC43NCAgICAgYzAuMDMtMy4wNiwyLjUyLTUuNTIsNS41OC01LjUxaDc4LjA5Qzg2LjczLDU5LjI0LDg5LjIyLDYxLjcsODkuMjUsNjQuNzZ6Ii8+JiN4YTsJCTwvZz4mI3hhOwkJPGcgaWQ9InNoYXBlMzg0My04IiB0cmFuc2Zvcm09InRyYW5zbGF0ZSgwLC0xMikiPiYjeGE7CQkJPHRpdGxlIGlkPSJ0aXRsZTI2MTYxIj5wYXRoMTA0MjwvdGl0bGU+JiN4YTsJCQkmI3hhOwkJCQk8cGF0aCBpZD0icGF0aDI2MTYzIiBpbmtzY2FwZTpjb25uZWN0b3ItY3VydmF0dXJlPSIwIiBzdHlsZT0iZmlsbDpub25lO3N0cm9rZTojNTU2QThBO3N0cm9rZS13aWR0aDoxLjU7c3Ryb2tlLW1pdGVybGltaXQ6MzsiIGQ9IiAgICAgTTgzLjY3LDE0LjI1SDUuNThDMi41MiwxNC4yNCwwLjAzLDE2LjcsMCwxOS43NnY0OC4yM2MwLjAzLDMuMDYsMi41Miw1LjUyLDUuNTgsNS41MWg3OC4wOWMzLjA2LDAuMDEsNS41NS0yLjQ1LDUuNTgtNS41MVYxOS43NiAgICAgQzg5LjIyLDE2LjcsODYuNzMsMTQuMjQsODMuNjcsMTQuMjV6Ii8+JiN4YTsJCTwvZz4mI3hhOwkJPGcgaWQ9InNoYXBlMzg0NC0xMCIgdHJhbnNmb3JtPSJ0cmFuc2xhdGUoMjEuNDg3NSkiPiYjeGE7CQkJPHRpdGxlIGlkPSJ0aXRsZTI2MTY2Ij5wb2x5Z29uMTA0NDwvdGl0bGU+JiN4YTsJCQk8cGF0aCBpZD0icGF0aDI2MTY4IiBpbmtzY2FwZTpjb25uZWN0b3ItY3VydmF0dXJlPSIwIiBzdHlsZT0iZmlsbDojNTU2QThBOyIgZD0iTTAsNzMuNWg0NS43NWwtNC4yOS0zSDQuMjlMMCw3My41eiIvPiYjeGE7CQk8L2c+JiN4YTsJPC9nPiYjeGE7PC9nPiYjeGE7PC9zdmc+;" vertex="1" parent="pel05_LOhtitlJmnvoeQ-8">
          <mxGeometry x="3.452527743526511" width="66.5474722564735" height="52.65104808877929" as="geometry" />
        </mxCell>
        <mxCell id="pel05_LOhtitlJmnvoeQ-2" value="" style="shape=image;html=1;verticalAlign=top;verticalLabelPosition=bottom;labelBackgroundColor=#ffffff;imageAspect=0;aspect=fixed;image=https://cdn1.iconfinder.com/data/icons/unicons-line-vol-5/24/react-128.png" vertex="1" parent="pel05_LOhtitlJmnvoeQ-8">
          <mxGeometry y="0.8934426229508197" width="41.43033292231813" height="41.43033292231813" as="geometry" />
        </mxCell>
        <mxCell id="pel05_LOhtitlJmnvoeQ-3" value="" style="shape=image;html=1;verticalAlign=top;verticalLabelPosition=bottom;labelBackgroundColor=#ffffff;imageAspect=0;aspect=fixed;image=https://cdn2.iconfinder.com/data/icons/boxicons-logos/24/bxl-go-lang-128.png" vertex="1" parent="pel05_LOhtitlJmnvoeQ-8">
          <mxGeometry x="32.88532675709002" y="3.1270491803278686" width="37.114673242909994" height="37.114673242909994" as="geometry" />
        </mxCell>
        <mxCell id="pel05_LOhtitlJmnvoeQ-18" style="edgeStyle=orthogonalEdgeStyle;rounded=0;orthogonalLoop=1;jettySize=auto;html=1;strokeColor=#6E6E6E;" edge="1" parent="1">
          <mxGeometry relative="1" as="geometry">
            <mxPoint x="409" y="244" as="targetPoint" />
            <mxPoint x="408.83" y="316" as="sourcePoint" />
            <Array as="points">
              <mxPoint x="408.83" y="286" />
              <mxPoint x="408.83" y="286" />
            </Array>
          </mxGeometry>
        </mxCell>
        <mxCell id="pel05_LOhtitlJmnvoeQ-28" style="edgeStyle=orthogonalEdgeStyle;rounded=0;orthogonalLoop=1;jettySize=auto;html=1;exitX=1;exitY=0.5;exitDx=0;exitDy=0;strokeColor=#6E6E6E;" edge="1" parent="1" source="pel05_LOhtitlJmnvoeQ-12">
          <mxGeometry relative="1" as="geometry">
            <mxPoint x="500" y="358" as="targetPoint" />
          </mxGeometry>
        </mxCell>
        <mxCell id="pel05_LOhtitlJmnvoeQ-12" value="" style="shape=image;verticalLabelPosition=bottom;labelBackgroundColor=#ffffff;verticalAlign=top;aspect=fixed;imageAspect=0;image=data:image/svg+xml,PHN2ZyB4bWxuczpkYz0iaHR0cDovL3B1cmwub3JnL2RjL2VsZW1lbnRzLzEuMS8iIHhtbG5zOmNjPSJodHRwOi8vY3JlYXRpdmVjb21tb25zLm9yZy9ucyMiIHhtbG5zOnJkZj0iaHR0cDovL3d3dy53My5vcmcvMTk5OS8wMi8yMi1yZGYtc3ludGF4LW5zIyIgeG1sbnM6c3ZnPSJodHRwOi8vd3d3LnczLm9yZy8yMDAwL3N2ZyIgeG1sbnM9Imh0dHA6Ly93d3cudzMub3JnLzIwMDAvc3ZnIiB4bWxuczpzb2RpcG9kaT0iaHR0cDovL3NvZGlwb2RpLnNvdXJjZWZvcmdlLm5ldC9EVEQvc29kaXBvZGktMC5kdGQiIHhtbG5zOmlua3NjYXBlPSJodHRwOi8vd3d3Lmlua3NjYXBlLm9yZy9uYW1lc3BhY2VzL2lua3NjYXBlIiB2ZXJzaW9uPSIxLjEiIGlkPSJzdmc1MDMyOSIgaW5rc2NhcGU6dmVyc2lvbj0iMC45Mi4zICgyNDA1NTQ2LCAyMDE4LTAzLTExKSIgc29kaXBvZGk6ZG9jbmFtZT0iYXp1cmUuc3ZnIiB4PSIwcHgiIHk9IjBweCIgdmlld0JveD0iMCAwIDYyLjc2IDQ4LjQ4IiBzdHlsZT0iZW5hYmxlLWJhY2tncm91bmQ6bmV3IDAgMCA2Mi43NiA0OC40ODsiIHhtbDpzcGFjZT0icHJlc2VydmUiPjxtZXRhZGF0YSBpZD0ibWV0YWRhdGExNjgwNyI+PHJkZjpSREY+PGNjOldvcmsgcmRmOmFib3V0PSIiPjxkYzpmb3JtYXQ+aW1hZ2Uvc3ZnK3htbDwvZGM6Zm9ybWF0PjxkYzp0eXBlIHJkZjpyZXNvdXJjZT0iaHR0cDovL3B1cmwub3JnL2RjL2RjbWl0eXBlL1N0aWxsSW1hZ2UiLz48ZGM6dGl0bGUvPjwvY2M6V29yaz48L3JkZjpSREY+PC9tZXRhZGF0YT48ZGVmcyBpZD0iZGVmczE2ODA1Ii8+JiN4YTs8c29kaXBvZGk6bmFtZWR2aWV3IGJvcmRlcmNvbG9yPSIjNjY2NjY2IiBib3JkZXJvcGFjaXR5PSIxIiBmaXQtbWFyZ2luLWJvdHRvbT0iMCIgZml0LW1hcmdpbi1sZWZ0PSIwIiBmaXQtbWFyZ2luLXJpZ2h0PSIwIiBmaXQtbWFyZ2luLXRvcD0iMCIgZ3JpZHRvbGVyYW5jZT0iMTAiIGd1aWRldG9sZXJhbmNlPSIxMCIgaWQ9Im5hbWVkdmlldzUwMzMxIiBpbmtzY2FwZTpjdXJyZW50LWxheWVyPSJzdmc1MDMyOSIgaW5rc2NhcGU6Y3g9IjQ5LjM2MTQ4NiIgaW5rc2NhcGU6Y3k9IjEyLjA3MjQ5NyIgaW5rc2NhcGU6cGFnZW9wYWNpdHk9IjAiIGlua3NjYXBlOnBhZ2VzaGFkb3c9IjIiIGlua3NjYXBlOndpbmRvdy1oZWlnaHQ9IjEwMTciIGlua3NjYXBlOndpbmRvdy1tYXhpbWl6ZWQ9IjEiIGlua3NjYXBlOndpbmRvdy13aWR0aD0iMTkyMCIgaW5rc2NhcGU6d2luZG93LXg9Ii04IiBpbmtzY2FwZTp3aW5kb3cteT0iLTgiIGlua3NjYXBlOnpvb209IjUuOTY3MzU3NyIgb2JqZWN0dG9sZXJhbmNlPSIxMCIgcGFnZWNvbG9yPSIjZmZmZmZmIiBzaG93Z3JpZD0iZmFsc2UiPiYjeGE7CTwvc29kaXBvZGk6bmFtZWR2aWV3PiYjeGE7JiN4YTs8cGF0aCBpZD0icGF0aDUwMzI0IiBpbmtzY2FwZTpjb25uZWN0b3ItY3VydmF0dXJlPSIwIiBzdHlsZT0iZmlsbDojMjA3NUI4OyIgZD0iTTE1LjY4LDQ4LjM2YzAuMDctMC4wNyw2LjQtMS4yMywxNC4wNi0yLjU3ICBjNy42NS0xLjM1LDEzLjk3LTIuNSwxNC4wMy0yLjU2YzAuMTItMC4xMS0wLjc1LTEuMTctMTAuMjItMTIuNDZjLTIuNTItMi45OS00LjYzLTUuNTYtNC43LTUuN2MtMC4wOS0wLjE5LDAuODktMy4wNCwzLjczLTEwLjgzICBjMi4xMS01LjgxLDMuODctMTAuNjUsMy45MS0xMC43NWMwLjAzLTAuMDksMC4xMy0wLjE3LDAuMjItMC4xN2MwLjE5LDAsMjYuMTQsNDQuOTEsMjYuMDUsNDUuMDZjLTAuMDQsMC4wNi0xMC42OCwwLjEtMjMuNjQsMC4xICBDMjUuMjEsNDguNDgsMTUuNiw0OC40MywxNS42OCw0OC4zNnogTTAsNDMuMDFjLTAuMDUtMC4xMywwLjU0LTEuMjksMS40NS0yLjg4YzAuODQtMS40Niw0LjQyLTcuNjYsNy45NS0xMy43N2w2LjQxLTExLjFsOS4wOC03LjYzICBDMjkuODgsMy40NCwzNC4wNCwwLDM0LjEzLDBjMC4xLDAsMC4xMywwLjA5LDAuMDgsMC4yNEMzMy43NCwxLjQ4LDE0LjMsNDIuOTIsMTQuMTMsNDMuMDVjLTAuMTksMC4xMy0xLjg0LDAuMTctNy4xNSwwLjE3ICBDMC45MSw0My4yMiwwLjA3LDQzLjE5LDAsNDMuMDF6Ii8+JiN4YTs8L3N2Zz4=;" vertex="1" parent="1">
          <mxGeometry x="378" y="333.75" width="65.95" height="50.25" as="geometry" />
        </mxCell>
        <mxCell id="pel05_LOhtitlJmnvoeQ-13" style="edgeStyle=orthogonalEdgeStyle;rounded=0;orthogonalLoop=1;jettySize=auto;html=1;strokeColor=#808080;" edge="1" parent="1">
          <mxGeometry relative="1" as="geometry">
            <mxPoint x="420" y="504" as="targetPoint" />
            <Array as="points">
              <mxPoint x="420" y="454" />
              <mxPoint x="420" y="454" />
            </Array>
            <mxPoint x="420" y="404.00333333333333" as="sourcePoint" />
          </mxGeometry>
        </mxCell>
        <mxCell id="pel05_LOhtitlJmnvoeQ-14" value="&lt;div&gt;&lt;span&gt;1. Create app service&lt;/span&gt;&lt;/div&gt;&lt;div&gt;&lt;span&gt;2. Add service plan&amp;nbsp;&lt;/span&gt;&lt;/div&gt;&lt;div&gt;&lt;span&gt;3. Connect to git repo&lt;/span&gt;&lt;/div&gt;" style="whiteSpace=wrap;html=1;align=left;" vertex="1" parent="1">
          <mxGeometry x="344.5" y="518" width="130" height="60" as="geometry" />
        </mxCell>
        <mxCell id="pel05_LOhtitlJmnvoeQ-17" value="" style="group" vertex="1" connectable="0" parent="1">
          <mxGeometry x="263.25" y="181" width="77.75" height="35" as="geometry" />
        </mxCell>
        <mxCell id="AcxdMaKK0mU5kZiv2lnr-18" style="edgeStyle=orthogonalEdgeStyle;rounded=0;orthogonalLoop=1;jettySize=auto;html=1;strokeColor=#808080;" parent="pel05_LOhtitlJmnvoeQ-17" edge="1">
          <mxGeometry relative="1" as="geometry">
            <Array as="points">
              <mxPoint y="14" />
            </Array>
            <mxPoint y="132" as="sourcePoint" />
            <mxPoint x="30" y="14" as="targetPoint" />
          </mxGeometry>
        </mxCell>
        <mxCell id="AcxdMaKK0mU5kZiv2lnr-5" value="Create repo, &lt;br&gt;push source code" style="aspect=fixed;html=1;perimeter=none;align=center;shadow=0;dashed=0;image;fontSize=12;image=img/lib/mscae/TaskVM.svg;" parent="pel05_LOhtitlJmnvoeQ-17" vertex="1">
          <mxGeometry x="41" width="36.75" height="35" as="geometry" />
        </mxCell>
        <mxCell id="pel05_LOhtitlJmnvoeQ-22" value="" style="edgeStyle=orthogonalEdgeStyle;rounded=0;orthogonalLoop=1;jettySize=auto;html=1;strokeColor=#6E6E6E;" edge="1" parent="1" source="pel05_LOhtitlJmnvoeQ-19">
          <mxGeometry relative="1" as="geometry">
            <mxPoint x="490" y="205" as="targetPoint" />
            <Array as="points">
              <mxPoint x="490" y="205" />
              <mxPoint x="490" y="205" />
            </Array>
          </mxGeometry>
        </mxCell>
        <mxCell id="pel05_LOhtitlJmnvoeQ-32" value="" style="edgeStyle=orthogonalEdgeStyle;rounded=0;orthogonalLoop=1;jettySize=auto;html=1;strokeColor=#6E6E6E;" edge="1" parent="1" source="pel05_LOhtitlJmnvoeQ-19" target="pel05_LOhtitlJmnvoeQ-31">
          <mxGeometry relative="1" as="geometry" />
        </mxCell>
        <mxCell id="pel05_LOhtitlJmnvoeQ-19" value="" style="shape=image;verticalLabelPosition=bottom;labelBackgroundColor=#ffffff;verticalAlign=top;aspect=fixed;imageAspect=0;image=data:image/svg+xml,PHN2ZyB4bWxuczpjYz0iaHR0cDovL2NyZWF0aXZlY29tbW9ucy5vcmcvbnMjIiB4bWxuczpkYz0iaHR0cDovL3B1cmwub3JnL2RjL2VsZW1lbnRzLzEuMS8iIHhtbG5zOmlua3NjYXBlPSJodHRwOi8vd3d3Lmlua3NjYXBlLm9yZy9uYW1lc3BhY2VzL2lua3NjYXBlIiB4bWxuczpyZGY9Imh0dHA6Ly93d3cudzMub3JnLzE5OTkvMDIvMjItcmRmLXN5bnRheC1ucyMiIHhtbG5zOnNvZGlwb2RpPSJodHRwOi8vc29kaXBvZGkuc291cmNlZm9yZ2UubmV0L0RURC9zb2RpcG9kaS0wLmR0ZCIgeG1sbnM6c3ZnPSJodHRwOi8vd3d3LnczLm9yZy8yMDAwL3N2ZyIgeG1sbnM9Imh0dHA6Ly93d3cudzMub3JnLzIwMDAvc3ZnIiB4bWxuczp4bGluaz0iaHR0cDovL3d3dy53My5vcmcvMTk5OS94bGluayIgdmVyc2lvbj0iMS4xIiBpZD0ic3ZnNDYzODIiIGlua3NjYXBlOnZlcnNpb249IjAuOTIuMyAoMjQwNTU0NiwgMjAxOC0wMy0xMSkiIHNvZGlwb2RpOmRvY25hbWU9ImRhdGFiYXNlLnN2ZyIgeD0iMHB4IiB5PSIwcHgiIHZpZXdCb3g9IjAgMCAzNi44IDQ3LjY5IiBzdHlsZT0iZW5hYmxlLWJhY2tncm91bmQ6bmV3IDAgMCAzNi44IDQ3LjY5OyIgeG1sOnNwYWNlPSJwcmVzZXJ2ZSI+JiN4YTs8c29kaXBvZGk6bmFtZWR2aWV3IGJvcmRlcmNvbG9yPSIjNjY2NjY2IiBib3JkZXJvcGFjaXR5PSIxIiBmaXQtbWFyZ2luLWJvdHRvbT0iMCIgZml0LW1hcmdpbi1sZWZ0PSIwIiBmaXQtbWFyZ2luLXJpZ2h0PSIwIiBmaXQtbWFyZ2luLXRvcD0iMCIgZ3JpZHRvbGVyYW5jZT0iMTAiIGd1aWRldG9sZXJhbmNlPSIxMCIgaWQ9Im5hbWVkdmlldzQ2Mzg0IiBpbmtzY2FwZTpjdXJyZW50LWxheWVyPSJzdmc0NjM4MiIgaW5rc2NhcGU6Y3g9IjIxLjE4MTQxNyIgaW5rc2NhcGU6Y3k9IjExLjk4Mzg2NCIgaW5rc2NhcGU6cGFnZW9wYWNpdHk9IjAiIGlua3NjYXBlOnBhZ2VzaGFkb3c9IjIiIGlua3NjYXBlOndpbmRvdy1oZWlnaHQ9IjEwMTciIGlua3NjYXBlOndpbmRvdy1tYXhpbWl6ZWQ9IjEiIGlua3NjYXBlOndpbmRvdy13aWR0aD0iMTkyMCIgaW5rc2NhcGU6d2luZG93LXg9Ii04IiBpbmtzY2FwZTp3aW5kb3cteT0iLTgiIGlua3NjYXBlOnpvb209IjYuNjA5MjQwNSIgb2JqZWN0dG9sZXJhbmNlPSIxMCIgcGFnZWNvbG9yPSIjZmZmZmZmIiBzaG93Z3JpZD0iZmFsc2UiPiYjeGE7CTwvc29kaXBvZGk6bmFtZWR2aWV3PiYjeGE7PGcgaWQ9Imc0NjM4MCIgdHJhbnNmb3JtPSJ0cmFuc2xhdGUoLTAuNzUsLTAuNzQ2NjI5MTcpIj4mI3hhOwk8dGl0bGUgaWQ9InRpdGxlNDYzNTMiPlBhZ2UtMTwvdGl0bGU+JiN4YTsJPGcgaWQ9Imdyb3VwNDM5Ni0xIiB0cmFuc2Zvcm09InRyYW5zbGF0ZSgxLjUsLTEuNSkiPiYjeGE7CQk8dGl0bGUgaWQ9InRpdGxlNDYzNTUiPkRhdGFiYXNlPC90aXRsZT4mI3hhOwkJPGcgaWQ9InNoYXBlNDM5Ny0yIj4mI3hhOwkJCTx0aXRsZSBpZD0idGl0bGU0NjM1NyI+cGF0aDMxMTY8L3RpdGxlPiYjeGE7CQkJPHBhdGggaWQ9InBhdGg0NjM1OSIgaW5rc2NhcGU6Y29ubmVjdG9yLWN1cnZhdHVyZT0iMCIgc3R5bGU9ImZpbGw6I0ZGRkZGRjsiIGQ9Ik0zMS44LDkuMDFMMjEuNDUsOS4xTDAsOS4yOHYzMy4zNiAgICAgYzAsMy40Miw3LjUsNi4zNywxNy4yNiw2LjU1aDAuMzdjMS4zMiwwLDIuNi0wLjA3LDMuODItMC4xOWMzLjU3LTAuMjIsNy4wOC0xLjA3LDEwLjM1LTIuNTNjMi4xOS0xLjA5LDMuNDYtMi40MiwzLjQ2LTMuODNWOC45OCAgICAgTDMxLjgsOS4wMXoiLz4mI3hhOwkJPC9nPiYjeGE7CQk8ZyBpZD0ic2hhcGU0Mzk4LTQiIHRyYW5zZm9ybT0idHJhbnNsYXRlKDIxLjE1NjksLTAuMTg3NTYxKSI+JiN4YTsJCQk8dGl0bGUgaWQ9InRpdGxlNDYzNjIiPnBhdGgzMTE4PC90aXRsZT4mI3hhOwkJCTxwYXRoIGlkPSJwYXRoNDYzNjQiIGlua3NjYXBlOmNvbm5lY3Rvci1jdXJ2YXR1cmU9IjAiIHN0eWxlPSJmaWxsOiNFNUU1RTU7IiBkPSJNMTAuMzUsOS4ydjM3LjQ2QzcuMDgsNDguMTIsMy41Nyw0OC45NywwLDQ5LjE5ICAgICBWOS4yOUwxMC4zNSw5LjJ6Ii8+JiN4YTsJCTwvZz4mI3hhOwkJPGcgaWQ9InNoYXBlNDM5OS02Ij4mI3hhOwkJCTx0aXRsZSBpZD0idGl0bGU0NjM2NyI+cGF0aDMxMjA8L3RpdGxlPiYjeGE7CQkJPHBhdGggaWQ9InBhdGg0NjM2OSIgaW5rc2NhcGU6Y29ubmVjdG9yLWN1cnZhdHVyZT0iMCIgc3R5bGU9ImZpbGw6bm9uZTsiIGQ9Ik0wLDkuMjh2MzMuMzZjMCwzLjQyLDcuNDYsNi4zNywxNy4yNiw2LjU1aDAuMzcgICAgIGM5Ljk3LTAuMTEsMTcuNjMtMy4wOSwxNy42My02LjU1VjguOThMMCw5LjI4eiIvPiYjeGE7CQkJJiN4YTsJCQkJPHBhdGggaWQ9InBhdGg0NjM3MSIgaW5rc2NhcGU6Y29ubmVjdG9yLWN1cnZhdHVyZT0iMCIgc3R5bGU9ImZpbGw6bm9uZTtzdHJva2U6IzU1NkE4QTtzdHJva2Utd2lkdGg6MS41O3N0cm9rZS1taXRlcmxpbWl0OjM7IiBkPSIgICAgIE0wLDkuMjh2MzMuMzZjMCwzLjQyLDcuNDYsNi4zNywxNy4yNiw2LjU1aDAuMzdjOS45Ny0wLjExLDE3LjYzLTMuMDksMTcuNjMtNi41NVY4Ljk4Ii8+JiN4YTsJCTwvZz4mI3hhOwkJPGcgaWQ9InNoYXBlNDQwMC05IiB0cmFuc2Zvcm09InRyYW5zbGF0ZSgwLjA0NTAxNDYsLTMzLjQ1MzQpIj4mI3hhOwkJCTx0aXRsZSBpZD0idGl0bGU0NjM3NCI+cGF0aDMxMjI8L3RpdGxlPiYjeGE7CQkJJiN4YTsJCQkJPHBhdGggaWQ9InBhdGg0NjM3NiIgaW5rc2NhcGU6Y29ubmVjdG9yLWN1cnZhdHVyZT0iMCIgc3R5bGU9ImZpbGw6I0JBRDgwQTtzdHJva2U6IzU1NkE4QTtzdHJva2Utd2lkdGg6MS41O3N0cm9rZS1taXRlcmxpbWl0OjM7IiBkPSIgICAgIE0zNS4yNiw0Mi44MmMwLDMuNTItNy44OSw2LjM3LTE3LjYzLDYuMzdTMCw0Ni4zNCwwLDQyLjgyczguMTMtNi4zNywxNy44Ni02LjM3UzM1LjI2LDM5LjMsMzUuMjYsNDIuODJ6Ii8+JiN4YTsJCTwvZz4mI3hhOwk8L2c+JiN4YTs8L2c+JiN4YTs8L3N2Zz4=;" vertex="1" parent="1">
          <mxGeometry x="391" y="181" width="37" height="48" as="geometry" />
        </mxCell>
        <mxCell id="pel05_LOhtitlJmnvoeQ-21" value="Here, it stores all the values entered in application" style="whiteSpace=wrap;html=1;verticalAlign=top;labelBackgroundColor=#ffffff;" vertex="1" parent="1">
          <mxGeometry x="496" y="176.5" width="120" height="60" as="geometry" />
        </mxCell>
        <mxCell id="pel05_LOhtitlJmnvoeQ-30" value="" style="edgeStyle=orthogonalEdgeStyle;rounded=0;orthogonalLoop=1;jettySize=auto;html=1;strokeColor=#6E6E6E;" edge="1" parent="1" source="pel05_LOhtitlJmnvoeQ-23" target="pel05_LOhtitlJmnvoeQ-29">
          <mxGeometry relative="1" as="geometry" />
        </mxCell>
        <mxCell id="pel05_LOhtitlJmnvoeQ-45" style="edgeStyle=orthogonalEdgeStyle;rounded=0;orthogonalLoop=1;jettySize=auto;html=1;exitX=1;exitY=0.25;exitDx=0;exitDy=0;entryX=0;entryY=0.5;entryDx=0;entryDy=0;strokeColor=#6E6E6E;" edge="1" parent="1" source="pel05_LOhtitlJmnvoeQ-23" target="pel05_LOhtitlJmnvoeQ-33">
          <mxGeometry relative="1" as="geometry" />
        </mxCell>
        <mxCell id="pel05_LOhtitlJmnvoeQ-46" style="edgeStyle=orthogonalEdgeStyle;rounded=0;orthogonalLoop=1;jettySize=auto;html=1;exitX=1;exitY=0.5;exitDx=0;exitDy=0;entryX=0;entryY=0.5;entryDx=0;entryDy=0;strokeColor=#6E6E6E;" edge="1" parent="1" source="pel05_LOhtitlJmnvoeQ-23" target="pel05_LOhtitlJmnvoeQ-38">
          <mxGeometry relative="1" as="geometry">
            <Array as="points">
              <mxPoint x="570" y="361" />
              <mxPoint x="570" y="380" />
              <mxPoint x="600" y="380" />
              <mxPoint x="600" y="433" />
            </Array>
          </mxGeometry>
        </mxCell>
        <mxCell id="pel05_LOhtitlJmnvoeQ-47" style="edgeStyle=orthogonalEdgeStyle;rounded=0;orthogonalLoop=1;jettySize=auto;html=1;exitX=0.75;exitY=1;exitDx=0;exitDy=0;entryX=0;entryY=0.5;entryDx=0;entryDy=0;strokeColor=#6E6E6E;" edge="1" parent="1" source="pel05_LOhtitlJmnvoeQ-23" target="pel05_LOhtitlJmnvoeQ-40">
          <mxGeometry relative="1" as="geometry" />
        </mxCell>
        <mxCell id="pel05_LOhtitlJmnvoeQ-48" style="edgeStyle=orthogonalEdgeStyle;rounded=0;orthogonalLoop=1;jettySize=auto;html=1;exitX=0.25;exitY=1;exitDx=0;exitDy=0;entryX=0;entryY=0.5;entryDx=0;entryDy=0;strokeColor=#6E6E6E;" edge="1" parent="1" source="pel05_LOhtitlJmnvoeQ-23" target="pel05_LOhtitlJmnvoeQ-42">
          <mxGeometry relative="1" as="geometry" />
        </mxCell>
        <mxCell id="pel05_LOhtitlJmnvoeQ-23" value="" style="shape=image;verticalLabelPosition=bottom;labelBackgroundColor=#ffffff;verticalAlign=top;aspect=fixed;imageAspect=0;image=data:image/svg+xml,PHN2ZyB4bWxuczpkYz0iaHR0cDovL3B1cmwub3JnL2RjL2VsZW1lbnRzLzEuMS8iIHhtbG5zOmNjPSJodHRwOi8vY3JlYXRpdmVjb21tb25zLm9yZy9ucyMiIHhtbG5zOnJkZj0iaHR0cDovL3d3dy53My5vcmcvMTk5OS8wMi8yMi1yZGYtc3ludGF4LW5zIyIgeG1sbnM6c3ZnPSJodHRwOi8vd3d3LnczLm9yZy8yMDAwL3N2ZyIgeG1sbnM9Imh0dHA6Ly93d3cudzMub3JnLzIwMDAvc3ZnIiB4bWxuczp4bGluaz0iaHR0cDovL3d3dy53My5vcmcvMTk5OS94bGluayIgeG1sbnM6c29kaXBvZGk9Imh0dHA6Ly9zb2RpcG9kaS5zb3VyY2Vmb3JnZS5uZXQvRFREL3NvZGlwb2RpLTAuZHRkIiB4bWxuczppbmtzY2FwZT0iaHR0cDovL3d3dy5pbmtzY2FwZS5vcmcvbmFtZXNwYWNlcy9pbmtzY2FwZSIgdmVyc2lvbj0iMS4xIiBpZD0iTGF5ZXJfMSIgeD0iMHB4IiB5PSIwcHgiIHZpZXdCb3g9IjAgMCAzNS45NTAwMDggMzEuNDUwMDA2IiB4bWw6c3BhY2U9InByZXNlcnZlIiBzb2RpcG9kaTpkb2NuYW1lPSJzYXBfY3VzdG9tX2RvbWFpbi5zdmciIHdpZHRoPSIzNS45NTAwMDgiIGhlaWdodD0iMzEuNDUwMDA2IiBpbmtzY2FwZTp2ZXJzaW9uPSIwLjkyLjMgKDI0MDU1NDYsIDIwMTgtMDMtMTEpIj48bWV0YWRhdGEgaWQ9Im1ldGFkYXRhNTI5MjEiPjxyZGY6UkRGPjxjYzpXb3JrIHJkZjphYm91dD0iIj48ZGM6Zm9ybWF0PmltYWdlL3N2Zyt4bWw8L2RjOmZvcm1hdD48ZGM6dHlwZSByZGY6cmVzb3VyY2U9Imh0dHA6Ly9wdXJsLm9yZy9kYy9kY21pdHlwZS9TdGlsbEltYWdlIi8+PGRjOnRpdGxlLz48L2NjOldvcms+PC9yZGY6UkRGPjwvbWV0YWRhdGE+PGRlZnMgaWQ9ImRlZnM1MjkxOSIvPjxzb2RpcG9kaTpuYW1lZHZpZXcgcGFnZWNvbG9yPSIjZmZmZmZmIiBib3JkZXJjb2xvcj0iIzY2NjY2NiIgYm9yZGVyb3BhY2l0eT0iMSIgb2JqZWN0dG9sZXJhbmNlPSIxMCIgZ3JpZHRvbGVyYW5jZT0iMTAiIGd1aWRldG9sZXJhbmNlPSIxMCIgaW5rc2NhcGU6cGFnZW9wYWNpdHk9IjAiIGlua3NjYXBlOnBhZ2VzaGFkb3c9IjIiIGlua3NjYXBlOndpbmRvdy13aWR0aD0iMTkyMCIgaW5rc2NhcGU6d2luZG93LWhlaWdodD0iMTAxNyIgaWQ9Im5hbWVkdmlldzUyOTE3IiBzaG93Z3JpZD0iZmFsc2UiIGZpdC1tYXJnaW4tdG9wPSIwIiBmaXQtbWFyZ2luLWxlZnQ9IjAiIGZpdC1tYXJnaW4tcmlnaHQ9IjAiIGZpdC1tYXJnaW4tYm90dG9tPSIwIiBpbmtzY2FwZTp6b29tPSIxLjAzMDMwMyIgaW5rc2NhcGU6Y3g9Ii0xOS41NTQ5OTMiIGlua3NjYXBlOmN5PSItMTc5LjUxIiBpbmtzY2FwZTp3aW5kb3cteD0iLTgiIGlua3NjYXBlOndpbmRvdy15PSItOCIgaW5rc2NhcGU6d2luZG93LW1heGltaXplZD0iMSIgaW5rc2NhcGU6Y3VycmVudC1sYXllcj0iTGF5ZXJfMSIvPiYjeGE7JiN4YTs8ZyBpZD0iZzUyOTE0IiB0cmFuc2Zvcm09InRyYW5zbGF0ZSgtMzE2LjkyOTk5LC0yMDkuNzg5OTkpIj4mI3hhOwk8ZGVmcyBpZD0iZGVmczUyODkzIj4mI3hhOwkJPHJlY3QgaWQ9IlNWR0lEXzNfIiB4PSIzMTYuOTI5OTkiIHk9IjIwOS43ODk5OSIgd2lkdGg9IjM2LjgyIiBoZWlnaHQ9IjMzLjk5MDAwMiIvPiYjeGE7CTwvZGVmcz4mI3hhOwk8Y2xpcFBhdGggaWQ9IlNWR0lEXzRfIj4mI3hhOwkJPHVzZSB4bGluazpocmVmPSIjU1ZHSURfM18iIHN0eWxlPSJvdmVyZmxvdzp2aXNpYmxlIiBpZD0idXNlNTI4OTUiIHg9IjAiIHk9IjAiIHdpZHRoPSIxMDAlIiBoZWlnaHQ9IjEwMCUiLz4mI3hhOwk8L2NsaXBQYXRoPiYjeGE7CTxnIGNsaXAtcGF0aD0idXJsKCNTVkdJRF80XykiIGlkPSJnNTI5MTIiPiYjeGE7CQk8ZGVmcyBpZD0iZGVmczUyODk5Ij4mI3hhOwkJCTxyZWN0IGlkPSJTVkdJRF81XyIgeD0iMzE2LjkyOTk5IiB5PSIyMDkuNzg5OTkiIHdpZHRoPSIzNi44MiIgaGVpZ2h0PSIzMy45OTAwMDIiLz4mI3hhOwkJPC9kZWZzPiYjeGE7CQk8Y2xpcFBhdGggaWQ9IlNWR0lEXzZfIj4mI3hhOwkJCTx1c2UgeGxpbms6aHJlZj0iI1NWR0lEXzVfIiBzdHlsZT0ib3ZlcmZsb3c6dmlzaWJsZSIgaWQ9InVzZTUyOTAxIiB4PSIwIiB5PSIwIiB3aWR0aD0iMTAwJSIgaGVpZ2h0PSIxMDAlIi8+JiN4YTsJCTwvY2xpcFBhdGg+JiN4YTsJCTxwYXRoIHN0eWxlPSJmaWxsOiM1YTdhOTQiIGQ9Im0gMzM5LjkzLDIwOS43OSBoIDcuOTEgYyAwLjMsMCAwLjU0LDAuMjQgMC41NCwwLjU0IHYgMS4xNCBjIDAsMC4zIC0wLjI0LDAuNiAtMC41NCwwLjYgaCAtNy45MSBjIC0wLjMsMCAtMC41NCwtMC4zIC0wLjU0LC0wLjYgdiAtMS4xNCBjIDAsLTAuMyAwLjI0LC0wLjU0IDAuNTQsLTAuNTQgeiIgY2xpcC1wYXRoPSJ1cmwoI1NWR0lEXzZfKSIgaWQ9InBhdGg1MjkwNCIgaW5rc2NhcGU6Y29ubmVjdG9yLWN1cnZhdHVyZT0iMCIvPiYjeGE7CQk8cGF0aCBzdHlsZT0iZmlsbDojNWE3YTk0IiBkPSJtIDMyOC43MywyMDkuNzkgaCA3Ljg1IGMgMC4zLDAgMC42LDAuMjQgMC42LDAuNTQgdiAxLjE0IGMgMCwwLjMgLTAuMywwLjYgLTAuNiwwLjYgaCAtNy44NSBjIC0wLjMsMCAtMC41NCwtMC4zIC0wLjU0LC0wLjYgdiAtMS4xNCBjIDAsLTAuMyAwLjI0LC0wLjU0IDAuNTQsLTAuNTQgeiIgY2xpcC1wYXRoPSJ1cmwoI1NWR0lEXzZfKSIgaWQ9InBhdGg1MjkwNiIgaW5rc2NhcGU6Y29ubmVjdG9yLWN1cnZhdHVyZT0iMCIvPiYjeGE7CQk8cGF0aCBzdHlsZT0iZmlsbDojNWE3YTk0IiBkPSJtIDM1MC42NSwyMTYuNTYgdiAwIDIyLjQ2IEggMzE5LjIgdiAtMjIuNDYgeiBtIC0zMy43MiwyMi40NiB2IDAgYyAwLDAuMyAwLjA2LDAuNTQgMC4xOCwwLjg0IDAuMjQsMC41NCAwLjY2LDAuOTYgMS4yLDEuMiAwLjMsMC4xMiAwLjYsMC4xOCAwLjksMC4xOCBoIDMxLjQ1IGMgMS4yLDAgMi4yMiwtMS4wMiAyLjIyLC0yLjIyIHYgLTIyLjQ2IGMgMCwtMS4yNiAtMS4wMiwtMi4yOCAtMi4yMiwtMi4yOCBoIC0yNC43NCB2IC0zLjk1IGMgMC4wNiwtMC4zIC0wLjI0LC0wLjYgLTAuNTQsLTAuNTQgaCAtNy45MSBjIC0wLjMsLTAuMDYgLTAuNiwwLjI0IC0wLjU0LDAuNTQgeiIgY2xpcC1wYXRoPSJ1cmwoI1NWR0lEXzZfKSIgaWQ9InBhdGg1MjkwOCIgaW5rc2NhcGU6Y29ubmVjdG9yLWN1cnZhdHVyZT0iMCIvPiYjeGE7CQk8cGF0aCBzdHlsZT0iZmlsbDojMDA5MmQxIiBkPSJtIDM0MS42MSwyMzAuMDQgaCAtMyBjIDAuMDYsLTAuNDIgMC4xOCwtMC43OCAwLjE4LC0xLjE0IDAuMDYsLTAuNDIgMC4wNiwtMC45IDAuMDYsLTEuMzIgMCwtMC43MiAtMC4wNiwtMS4zOCAtMC4xOCwtMi4wNCBoIDIuOTQgYyAwLjU0LDEuNDQgMC41NCwzIDAsNC41IHogbSAtMi43NiwzLjU5IGMgLTAuNzgsMC41NCAtMS42OCwwLjkgLTIuNjQsMS4wOCAwLjg0LC0wLjg0IDEuNSwtMS44NiAxLjkyLC0yLjk5IGggMi43IGMgLTAuNTQsMC43NyAtMS4yLDEuNDMgLTEuOTgsMS45MSB6IG0gLTMuOTUsMC43OCBjIC0wLjQyLC0wLjMgLTAuNzgsLTAuNzIgLTEuMDgsLTEuMTQgLTAuMzYsLTAuNDggLTAuNzIsLTEuMDIgLTAuOTYsLTEuNTYgSCAzMzcgYyAtMC40MiwxLjA4IC0xLjE0LDIuMDQgLTIuMSwyLjcgeiBtIC0zLjg5LC0wLjc4IGMgLTAuNzgsLTAuNDggLTEuNDQsLTEuMTQgLTEuOTgsLTEuOTIgaCAyLjcgYyAwLjQyLDEuMTQgMS4wOCwyLjE2IDEuOTIsMi45OSAtMC45NywtMC4xNyAtMS44NiwtMC41MyAtMi42NCwtMS4wNyB6IG0gLTIuNzYsLTMuNTkgYyAtMC4xMiwtMC4zNiAtMC4yNCwtMC43MiAtMC4zLC0xLjAyIC0wLjE4LC0wLjg0IC0wLjE4LC0xLjY4IDAsLTIuNTIgMC4wNiwtMC4zIDAuMTgsLTAuNjYgMC4zLC0wLjk2IGggMi45NCBjIC0wLjEyLDAuNjYgLTAuMjQsMS4zMiAtMC4yNCwyLjA0IDAsMC44NCAwLjEyLDEuNjIgMC4zLDIuNDYgeiBtIDQuOTEsLTkuMTEgYyAtMC42NiwwLjg0IC0xLjIsMS44NiAtMS41NiwyLjg3IGggLTIuNTggYyAwLjk3LC0xLjQzIDIuNDcsLTIuNTEgNC4xNCwtMi44NyB6IG0gMS43NCwtMC4xOCBjIDAuNDgsMC4zNiAwLjksMC43OCAxLjI2LDEuMzIgMC40MiwwLjU0IDAuNzIsMS4xNCAwLjk2LDEuNzQgaCAtNC4zNyBjIDAuNDEsLTEuMiAxLjEzLC0yLjI4IDIuMTUsLTMuMDYgeiBtIDIuOTQsNi44MyBjIDAsMC40MiAtMC4wNiwwLjkgLTAuMTIsMS4zMiAtMC4wNiwwLjM2IC0wLjEyLDAuNzIgLTAuMjQsMS4xNCBoIC01LjA5IGMgLTAuMTIsLTAuNDIgLTAuMTgsLTAuNzggLTAuMjQsLTEuMTQgLTAuMDYsLTAuNDIgLTAuMTIsLTAuOSAtMC4xMiwtMS4zMiAwLC0wLjcyIDAuMTIsLTEuMzggMC4yNCwtMi4wNCBoIDUuMzMgYyAwLjEyLDAuNjYgMC4yNCwxLjMyIDAuMjQsMi4wNCB6IG0gMi45OSwtMy43NyBoIC0yLjU4IGMgLTAuMzYsLTEuMDIgLTAuOSwtMi4wNCAtMS41NiwtMi44NyAxLjY4LDAuMzUgMy4xOCwxLjQzIDQuMTQsMi44NyB6IG0gMi40NiwwLjc4IGMgLTAuMzYsLTEuMDIgLTAuOSwtMS45MiAtMS41NiwtMi43IC0wLjY2LC0wLjc4IC0xLjUsLTEuNDQgLTIuNCwtMS45OCAtMC45NiwtMC41NCAtMS45OCwtMC44NCAtMywtMS4wMiAtMC4yNCwtMC4wNiAtMC40OCwtMC4wNiAtMC43MiwtMC4wNiAtMC40OCwtMC4wNiAtMC45LC0wLjA2IC0xLjM4LDAgLTAuMjQsMCAtMC40OCwwIC0wLjcyLDAuMDYgLTEuMDgsMC4xOCAtMi4xLDAuNDggLTMsMS4wMiAtMC45LDAuNTQgLTEuNzQsMS4yIC0yLjQsMS45OCAtMC43MiwwLjc4IC0xLjI2LDEuNzQgLTEuNjIsMi43IC0wLjQyLDEuMDIgLTAuNiwyLjEgLTAuNiwzLjE3IDAsMS4yIDAuMjQsMi40IDAuNzIsMy40NyAwLjksMi4xNiAyLjY0LDMuODkgNC43OSw0Ljc5IDEuMDgsMC40OCAyLjI4LDAuNzIgMy40NywwLjcyIDEuMiwwIDIuNCwtMC4yNCAzLjUzLC0wLjcyIDEuMDgsLTAuNDggMi4wNCwtMS4xNCAyLjg4LC0xLjkyIDEuNjgsLTEuNjggMi41OCwtMy45NSAyLjU4LC02LjM1IDAuMDMsLTEuMDcgLTAuMTUsLTIuMTUgLTAuNTcsLTMuMTYgeiIgY2xpcC1wYXRoPSJ1cmwoI1NWR0lEXzZfKSIgaWQ9InBhdGg1MjkxMCIgaW5rc2NhcGU6Y29ubmVjdG9yLWN1cnZhdHVyZT0iMCIvPiYjeGE7CTwvZz4mI3hhOzwvZz4mI3hhOzwvc3ZnPg==;" vertex="1" parent="1">
          <mxGeometry x="510.63" y="333" width="63.87" height="55" as="geometry" />
        </mxCell>
        <mxCell id="AcxdMaKK0mU5kZiv2lnr-20" style="edgeStyle=orthogonalEdgeStyle;rounded=0;orthogonalLoop=1;jettySize=auto;html=1;strokeColor=#808080;" parent="1" edge="1">
          <mxGeometry relative="1" as="geometry">
            <Array as="points">
              <mxPoint x="252" y="564" />
            </Array>
            <mxPoint x="252" y="510" as="sourcePoint" />
            <mxPoint x="212" y="564" as="targetPoint" />
          </mxGeometry>
        </mxCell>
        <mxCell id="pel05_LOhtitlJmnvoeQ-6" value="" style="shape=image;verticalLabelPosition=bottom;labelBackgroundColor=default;verticalAlign=top;aspect=fixed;imageAspect=0;image=data:image/png,iVBORw0KGgoAAAANSUhEUgAAAjEAAAG8CAYAAAAvqfRvAAEAAElEQVR4XuxdB2AcxdV+6r1323Lv3bjhAqa4gDGY3luooQeS0JKfJISQEGrohF4DGDBgjHsD9967LXdZvff2f9/srXw63Ul3p5Ms2TPJIVnanZ35ZrXz7Xvfe09EN42ARkAjoBHQCGgENAIaAY2ARkAjoBHQCGgENAIaAY2ARkAjoBHQCGgENAIaAY2ARkAjoBHQCGgENAIaAY2ARkAjoBHQCGgENAIaAY2ARkAjoBHQCGgENAIaAY2ARkAjoBHQCGgENAIaAY2ARkAjoBHQCGgENAIaAY2ARkAjoBHQCGgENAIaAY2ARkAjoBHQCGgENAIaAY2ARkAjoBHQCGgENAIaAY2ARkAjoBHQCGgENAIaAY2ARkAjoBHQCGgENAIaAY2ARkAjoBHQCGgENAIaAY2ARkAjoBHQCGgENAIaAY2ARkAjoBHQCGgENAIaAY2ARkAjoBHQCGgENAIaAY2ARkAjoBHQCGgENAIaAY2ARkAjoBHQCGgENAIaAY2ARkAjoBHQCGgENAIaAY2ARkAjoBHQCGgENAIaAY2ARkAjoBHQCGgENAIaAY2ARkAjoBHQCGgENAIaAY2ARkAjoBHQCGgENAIaAY2ARkAjoBHQCGgENAIaAY2ARkAjoBHQCGgENAIaAY2ARkAjoBHQCGgENAIaAY2ARkAjoBHQCGgENAIaAY2ARkAjoBHQCGgENAIaAY3AaYeA12k3Yz1hjYBGoEUQmDNrdnh6Rnq7o0eOdMvLzU0qKy8Py83JTczPy0ssKiqKKyktja4oLw+tqqoKwIC88eHzqNrHx6fCz9+/KDAwICckJCQ1IiLyYERk5LEAf//88IiIjPbt2x9PTEw8POnCC3JaZCL6IhoBjUCrRUCTmFa7NHpgGoG2gcCPP/wQf+jgwW579+zpdfx4Wrcjhw8PysnJ6V1ZWRmPT0RVZaVU19SoydTgq5eX8djhV/Wd5d/Ws+Vx/OAMfDWONc/x9fUVfHLwyY2MikzpkJy8OjEhcWe37t33du7a5eAll1xypG0gp0epEdAINBUBTWKaiqA+XyNwmiHw0Ycf9tu+ddvQ3bt3jU1NTR2ZnZXdrbysLIRExdvb2yAnlo8JjUlCPAGVQW4MQmR+qqurcU1vCQjwz4uNjT2SkJCwumfv3gv69e+38ZZbb93mievqPjQCGoHWh4AmMa1vTfSINAKtCoFFCxeGr165aty6tWvH7d2797zc3Ny+sLAEkEDA9VNLXFrDoDkmEhq4qBSRgrWmMDIycnf3Hj1+GTZ82JKhw4evOv/881Nbw1j1GDQCGoGmI6BJTNMx1D1oBE5JBF58/oVJK5Yvu2rnzp2T8vPyO3CSJC22VpbWPHnTUkNSwxYeHp7WCxaaUaNH/+8Pj/7xp9Y8dj02jYBGoHEENIlpHCN9hEbgtEHg4w8/6jV//rwrNm3YdE1eXu5Aa2uLJ0FQDiGLW6ihfj3phuJ1rK00EAvvGDF8+CcXXXzxN5ddcfleT85P96UR0Ai0DAKaxLQMzvoqGoFWi8AP338ftWjBwivWrl17DTQuIxAxFE7xrKcIhOHiMdw8yjICJLzh6vHx8RZvfgx5b23j7w2yUQ1BcDW1vapxPN7e1NvgHHxtauNY4BaToKCg7N59+vww5ZKL/3vnXXetbGq/+nyNgEag5RBo+pOg5caqr6QR0Ah4EIGXX3xx1MIFC67dsX3H5LKysu4U5ZruoqZchgaWGpAPkpAqkJHAAD+JCA+ThLgYad8uQSLCQiU+NkpiYyLx81Dx9/evczm6fgqLSiQvL1/Ss3IkN69AiopKJTUtXTKzcqWwuAS/L1b9k8xw3CRF7rq5rKwzRX369p1+9TVXv3nbHXesaAoG+lyNgEagZRDQJKZlcNZX0Qi0GgQefuihm5YvXXZnWlraIFgjwj1BXMzJVVZSe1KjSEuXTu1lYL8ecsbAPtK9S7JER0VIGAiMn68PBLeGILjBBjZEolIJUsN+CwqLJK+gUHJyC2Tn7hTZf/CI7D9wWA4dTZPs7DxB3hlFmnwsZMwdwGmZoRj4jKFD3/rNbbc9O3nKRbnu9KPP0QhoBFoGAU1iWgZnfRWNwElF4OeZM0OmfT3thpUrVtxZWFAwzJNRRXTLVFRUig+ISfcuHWX8uBEybvQw6dm9k0RGhBkZ7OhOsgqJJhhmqHRDwNTJKUN3Ei0uyqXkpfoshlUmMztX9qYclp17UmTt+m2yZ/8hOZ6ehTFVKKKk3FaNESarQRjzqZDg4OBtl1w69U/Pv/jiDyd18fTFNQIaAYcIaBKjbw6NwCmMwPx583z+9/nnd69YseLuwoLCgZ7UuhA2khc/P18Z0LeHXHbReXLuWcMlKT4GpMEHFhQkuQPRaM5m6GQMolKDaxWB1BzPyJIdu1Jk5drNsnHLTjl05DisOMXK9USi5exDj24mfnr16vXufQ888Lepl116tDnnovvWCGgEXEfA2b9n13vWZ2gENAInFYE/PvL7q2CB+UN+fv4IkhdH1gjTIuKskFcJYpmHBbPr16eHXHPpBLlwwlkSGx1h6GDwccbK4mlwOB4v6mNIVkCiqqqrlIZm87bdsmTZWlkBUnPgcKoiXr4gPbRGOdNolQkNDd1w829u/f3jTzyxyJlz9DEaAY1AyyCgSUzL4KyvohFoMQReeuGFs7/+8qu/IdJoHIgL9nX72hND0Ao3kI8vN/Rq6EG8G9vYTYLSo1tHufrSSTJl4lkSHxddG03UYpN08kK00FAjQ9JFF9O6jdtl1oJl+LoDbqgcIyGeE2SGWKFlT5w06fF33nv3XScvrw/TCGgEmhkBTWKaGWDdvUagpRD49ONPen/x+edP79yx4zJsujC++Na5tHU2WxCb4piYmJR+/fouHjxkyKKQ4OCcH2f8+NiO7Tsn2iM9FMzSgtE+MV6unDpBrrxkvHRKTpJqi/C2pebo7nVIVpTgF+6k4uJS2bF7v8xbvFLmLFwuKQcNLxHFxg1Zo4gf60ANPuOMf/7w04wn3R2LPk8joBHwHAKaxHgOS92TRuCkIDBr5sy4Tz7+5K9r16y5CqHScX5+fvXIi5mGPzomZmef3r3nDx8x/IdBgwauOXf8hDzz4E8+/HDEM08/82tFZYW/SWSMXCpVEhkZJhPPGSU3Xj1F+vXuqk4xIpFaslk/rlzR2pjnGefUamjwz0NHU2XuwhUyc+4vsh06GlqmbMmf7QzpXurSpcu3jz7x+L0XTZmS3pII6GtpBDQCdRHQJEbfERqBNozA3Xfc+cdflyx5qLCoqL2taJcuEIYM+/sHZHbp0nnHOeeMe3/EiOEzJk6+KNt2yps3rPd+8823/jVn9pw/mgSG5/L7EWcMkDtvuVzGjhysNniSF89rXuoSDTU+Fc3EZHdGNWvl0sG/rX92Yh7WpKbuY43J8TARWFloacH3+DW/ekE3Y7ibfCQ1PVPmLlohX0+fAzKzT+XX87OxZFljRiITFxe3CkTmhmuuvXZfG76F9NA1Am0aAU1i2vTy6cGfrgg8+fjjV8+a+fMTmZmZg21FuyZ5QZ2gXUOGDJlz7nnnfnj7XXdttIfV7Jk/dVy5atVlq1asvH7Xrt0jVOiyJZNt5+R2cut1l8iliDqKRN6XCpAaz5AXK8JiISo1EOEqgoKv6kPywuggfiWlMOoU2EzBWWuM1WMO8yOLUUQN5IXExhuaIF//AGhj/BDZlC0/zV0iX343R/YiVNvA1v5jkiQvLCxsx4MP/+76u+6+2y6+p+v9qeetEWgpBDSJaSmk9XU0Ah5A4LVXXx32zVdfP5+SknKOmevF7JYuI36io6O3jTxz5I8TJox/56prrzvo6LKfffzxKPT3xrFjqUPMbL0UwAYE+Mvk88fKHTdfLn16dDFEu4aw1c3Gx4xBOAySAjLEr1UVKiy6psZCWiwWlxMXae7Hk0mCaJoxLDN+IDP+/oGyO+WofDLtZ/nx58UqOzDDyO01Ehnkk9l7/4MP3IQwbF2ywM07RJ+mEXAXgeZ+Srg7Ln2eRkAjYIXA999NT3j/vfee3bJ5802whsDTcWJTNSwv1K1EbBk9ZvS3U6Zc9MbFl16WaQ/A3Tt3+KenpSf+8suvN3791VcPZWdnx1NDYyas69m1k/z2tqtk8oSxKBcQIOVwm7jXDOJiWlaqq8pBWkBe+FHWFUVpLF9by2PoxHhYCqHay1fm/7JWXnt/muzef0RlGrYn/CX+Pr6+R+/+7d23/fGxx+a6h5c+SyOgEXAHgdby9HBn7PocjcBpgcD999x7O2oc/amwsLCL0mkol4iR8ZaWgMDAwO1jx4758uKLL37rsquuqkdeUvbuCUJK/thDBw+N2bp1229+Xbp0xNbNWyKN8GokpQMBoqXh4knj5O5brpAe3Tq56TqyEBe6hSrKYRUicaG1haSFn7b1uCFh8fPzQQbgY/Lyu9Nk0YpNtXWabG88WsBAfI7fceedt0Mn8/NpcWPqSWoEWgECbeup0goA00PQCLQUAu+8/c4QRAy9dOjQoXNsdS/cNEEKChFh9PXlV1z+7C233VZHXLp/zy7mh4kqLCzqvG/f/t/t2LX7sl07d4Zu37pN0tOOq6Rw3KTLy8ulQ/tE+e2tVyFsegJcSX4qlNq15kXZrdRUViAEuQxfQV6ocVGWlrb/iPH395Vs1Gt66+MZ8uWPi2rrM9liRIsMMM+8+557bn708cdmuYahPlojoBFwB4G2/4RxZ9b6HI1AK0fgrjvueHDhvPnPQKMSZp2AzrS+JCYmrrr00qkvPPnUU9/YTgWWl6jS0tKu+/fvf2rjpq2XpKelCXQvsmvXDinIz1fWBIp3uekOG9xPHn3wFhk6sK/anC1J3ZxHh9WqQVqqK0qRMwauJ+UqOvUeK4xiKi+vlLc/myEffT1XWcDs5dMhfogGS73vwfuve/Chh5Y4D6Q+UiOgEXAHgVPvaeMOCvocjUArQQBFGjv956WX/gvXz0RfuHisNRiWCsvpcB19dNPNNz01ftIFZdbDBnkJhoWmy8GDh55as3b91ceOHlXE5PDhw7Jrx3ZldeHGS/EuidHVl06UB++8XhJR66gc7h+lq3Wq4bEBMS6tLtXlFvJyilhdGpo+iQwzFn88bY689uEPyg3Hn9k25VoKCDj8x8cevezOu+5a5xSk+iCNgEbALQQ0iXELNn2SRsDzCPzj78+M/+Lzz15DocbetgnX6OJJSIhfd/0N1/3fw3/4Yx1Xxb7duwIRBhyfmZl9ydr1G/61Z/feEFhi1AZ76MAB2QECQwJEQlRRUSVRSFx3L8S7N1x1EXUcKqLJ+QYLDvUu5cWG5eU0awy3prXlgy/nyDuwypRjXexmOAam4RERO57405OXXnf99btPM5j0dDUCLYaAJjEtBrW+kEbAMQIP3Hffb2f88OPTOCLO2n1k1DeqkmHDhn591113/faCKVNyzF727trpiw00Cb/vtX3HzhfWrFk3KCsrS1lZWA8p7XiqrF+31orAVEqHpHh58vd3yAXnj1ElA5wPnYbupbpCKsuKFImpn7Pl9Fldli+ogtnqjY9+kHc/nwl9EfLOWMTW1iiQOCLcfcOzz/1rwoWTJ2edPgjpmWoEWg4BTWJaDmt9JY2AXQRuuPbavy79demTIB9+1u4j5Zbw88u/eOolb734yiuPW58MAhOL4xOzs3PuWbVq9b07d+1WZIdWAfZRUlIia9esltycHPUz6jn6olzAXx+7W4YP6e9a1l3WDCovkaqKYkukkV5IYloG99yL70yTr35crDC3F35NItOpU6dZz73w/CWjRo92VTGtgdYIaAQaQUCTGH2LaAROIgJXX3Hlv1YsW/6onz/5y4k/R6a1j4iISPnNb2792yOPPvqxlfXFH8e1R23q/ikHDrz4y69Le6SlpSvri/VGun3bVtm3d6/FhVQhA/r2lGf/7wEZ1K+nlJbRkuJcY16XynJaX+rIb5w7+RQ/itWv8wuL5C8vfiKzFq5WkV32GnPtDBo06O2fZv18zykOiZ6eRqDFEdAkpsUh1xfUCBgI3Hjd9X/9ZcmSv9gWbOTbe/v27Tfee+89d914661rrAhMOIhKR4hLz920afMLq1av8S8uLlYExmy0EGRmZMja1atUrhf2NXRwX3nmTw9Ir+7I/+JC+HQVIo6q4D4ywqV1s4cA8/YcSc2QP/7jv7Jx216H9ZZISidPueiBt//739c1khoBjYDnEKgvrfdc37onjYBGwAECD97/wL0gMI/aCngZQdSxY8dVf3zsj1faEJgYkJWO+P2UpUuXvQoLjD9dRtYEhpaYSmyW+/ftU64OkpiB/XrJP/78gCof4CyBQZ5dRV4qSwo0gWnkDibGye3j5LF7roHeKM4hxlznObNmP/vs3/8+Xv9RaAQ0Ap5DQJMYz2Gpe9IIOIXAC8/9+7wZP/zwV2xsQbYupG7duq158k9PXHbZFVeq5HXQvnjh0w4Wli5IXHf5/AWL/rlu/XqVrdc2KoZ9HUVYdUZGugoF7t29s/zjT/dLT2TgJalxprEkAMkLBbyns3jXGazMY6g3GtK/uzx85xUSEhyI6KX6seqWdQ779NPPXvvm66+7udK/PlYjoBFwjIAmMfru0Ai0IALz580L/+zTT18CCYmrQ2DKKyAA7bjhkT88cu2FUy5OtRAYf3ztBGtLh4KCgqvmzV/wtx07dkLnYoh3rRsJTRH0Gfv37ZWysjJplxgnf/7DXTKgXw/nLTBwG1WW5EP/UtKCiJwCl8JaVNV4IeJrrNx2w1RVFcIekeEaFRcW9X791df+egrMWk9BI9AqENAkplUsgx7E6YLAa6+8+g8UXRxk7QZiVFFcfNzuh3730M2XXHrZfguB4d9mBxzXvaCg8CZYYB7ds2dvrYDXFi9aXkhgcnPzJDQ0RP5w/y0yduRgleDOmaYEvCQwyL57KmbcdQYDV49h1WufgGDxC44U36BI8Q+OkLtRvmHSeaPgyrOfQ4cJDOHuu/HO226/xdXr6eM1AhqB+ghoEqPvCo1ACyHw6iv/Gb1p48ZbrYW8JDDBwcG5d99915NXXnPtVisCk4g39/Yo3Hjp4sW/3L9vX4rY6mfMYfMN/9ixI3Lo0EH1o5uuniKXXHgONtIqp7Lw1lRXSkUpCMxpmLzOnaWnJczXJC8BoeLtg6gkmF+Y0yc4OEgevPtG6durm9Ik2Wtcx0ULFz77/rvvDXDn+vocjYBG4AQCmsTou0Ej0EIITPvqq79CNBtqXo66FjYUcPz0rnvv/dZCYELwtTPcRT0QWTR22bLl9zEHjL309jyeBAaWHUFxRyktLZMxIwfBpXEpfo7kdE7UEWDkUQUsMLTE6NY4ArS++AaFwwITiiR3J6LCzDMpnu7ZrSPqUf1GoiPD7WZDZvHNivLydh9/9OEjjV9RH6ER0Ag0hIAmMfr+0Ai0AAL/fu65CahhNM7amsLw52HDhq26+uqr/oK6Rz4Q8CZhKF1AYIaCnFyxefPWZ7du2wELjI8iK/Y+2cjQu3XzJhR2LJC42Ch5ALWQYmOiVDK7xhoJDF1IniUwJGbWn8ZG0XZ+7+UFAhMYJt6+lCrZb0Zph0oZN3qo3HHT5WrN7JFJXz8/OZBy4MYnHn3s7LaDgB6pRqD1IeDb+oakR6QROPUQmDt79rXYzGp3P5KMmJiYsptvuflfkZGRvsgj0gP6lwh8+lZXV12wZev2q2fMmCF5efkQ6pYqQAIDg4SuKOppuDHm5ubKoYMHVHZetisumSAjhjIbrxNWFZxfWVroIRcSSQsy1sIyoT5wt9C9wkgnEiXPkqSTdW94wYUUAgITYCFpxjhIUkgySV7oGjTJI0sTkMSkHDom3/44r04ovDkDnOs76+efn16xfPl4nc33ZK2rvm5bR0CTmLa+gnr8rR6Br778sjveuCfW1bTUyOTJk/OQyZVhRudgE4xIT8+Ysm3b1qlrVq+RjRs3q1BpkpUaaC3Y6IZQkUlwFVHsYhZuZP0jJrK79rJJygjSuBsJBKYMBAZVqJvcsHlzY/fxDRQv1GviGK2FwSQyzPbLsgXU3rTNhnB2WF+8/QJrCQxJix/IS05egWzftU82bd0tqWmZkp2Tp6YYGRGGCLF46dG1oyQhUuw4fmcbEk8yClfguO+/++4inPJD28RGj1ojcHIR0CTm5OKvr34aILBg3rypsLR0YMVoNpKPzp07y4UXXRgFovLV9u07/DZu3IhaR2vlyJEjcEdUqDd3sw6SQQyMBisN/mN8b4ZZ862fVpgundojGqnxytKqDhI+TW2KvAQEQdjKeZGLGRofs/yBMT7oRnz9pMY/UMpU+LYHiFNTB+7y+SBqJDBqPjVqbSrhMvppwXL57JuZsnnbHikqJp5W+WHUt14Q+gZgHY21tNf48wULFj6A32kS4/K66BM0Ani8aBA0AhqB5kVg+7btF1pvYtzcGcny2quv+aUeOyasfUSXEI/hBmmSHXuj4rm0tJgEht8HBvhL/z7dnZgErgvrS2VZsRPHOj5EhRb7B4uP2ti5ORsaGI5J1XDCv4pLS6W4uFQRMpKwAH8/CQ0KkxpYkSrKS52KmmrSID14MsdvEDUjwSAJy6vvfCH/+3aW+t4PYdOcn71muJeqDf5jpxGvtOPHz3/m6b+f9een/u9XDw5bd6UROC0Q0CTmtFhmPcmThcA7b711wUsvvHi+j1UkCzdCWlwOHjyoNn7+27Z+EsdLosOPcilZIo3okiLJoTXH+JmXFJWUytoN2+TMYQ1H7NKdQzcS/Dpuw+EFt4ofI3MYVmxFXriRU9C6bec+WbZqg2zYvFOOHc9AsckyNb+QoCDp16ebnD/2DBnWt6OweGIl5tAWmpe34SYzCGS1vPfpd/L+Z9NBbLyxFvbJizkve5WtbedMfBYumH8vfq5JTFu4IfQYWxUCugBkq1oOPZhTBYFff/kl/JOPPnps2dJlD5SWloY5s5lx7iQmFObyeOSPofhXEhITkM23k7RLSpKo6CiJjo6W99/9QLZs3aJyx7BK8pnDBspbz/9JwsNDVMkBu1YBuHOqVDZe9/7s6VLxDQSBUdYXoxlkpFLWbtwu3/y4QJaCwGRm5agxeGMOxrxJwoy5hYeHykXnjpC7brpIEhBN5Wisrec+gPvILxhh1WGKsKxau1nuffSfkpObr+buiUZcYJEp+svTfxtz4003bfJEn7oPjcDpgoC2xJwuK63n2WIIvPnGG2MfvPe+VzOzsoaQZDjSQ5gD4iZGi4tKfBcSLL179xIIfmXw4MGS3DEZIdOx4g+XkdkP+9yJ8gObt2wmPRBqYvalHJYDh4/KkAF97BIDVZFa6VHcIzA+/kGIzgmrPZ3kxB+RUoeOpsoHn/0g3/00X3IhcvXB2DgeRxt8UVGJfPHDQsnIzpVnHv2NhIUG203R32KL5cyFSMYsBHPRr2skIzMH7iN/ZUlieQFbIbVhXYNrzWK9aewSPB5EN2TenLmTcawmMY0Bpn+vEbBCQJMYfTtoBDyIwOOPPnrDS8+/8AKsKYkNaVvMS5oRRomJiTJ6zCgZO2asdO/RXcLCwlSCO1oqSHCsw6a56fUf0F8dU1xcbCS8Q1QMXTlnDOxTbzZ0I7EqtbsFHb39AkBgkKPPwn8MC4u3LFq6Rl54/WN1XbpWAkC0GmucEzf4hcs3yqyFa+S6y87D/Fp31BJdSBS1lCCZ4JYdey3uvWplSerRpYN065yk3GUklLTQ7E05KoeOZUhWTr5ysZkh2A1hQ2K6edOmq3HMPxvDUP9eI6AROIGAJjH6btAIeAiBPz/+5NWfffbp6yAZkda1kex1b1pe2rVvJxdMukDGnXO2ilgiISGxMX9vvtUjI4nqhmQmL49hvN4SFRUlhYWFyqVUCbJz8PBxqbJTQbmqzAxvdtUKA7EutC90IZnKVFoXuFl/Pm2mvPruF5IJiwr1PK70bORUqZaN2/fJVZeMs2hN6ld+9tCyNLEb6GBUNuMaqQCOefn50j4xRq6fer6cPWqgdGyfAAITUCu0Zrh7QWGxHEvLkvVb9sii5Ztk7ebdEG6XKgGwI7ci1z0rK2vwG6+/Puq+++9f0cRB69M1AqcNAprEnDZLrSfanAhAvHv266++qghMY+4jEpGw8DCZMH6CXHrZVKV3MQmKaZkxygx4q4rUJC1ZWdnINZKuSgwwyV0+MvSyNo95LZKIvSmHVMFHMxkeTScqR0slk+W5QjMsSKkaQSHYePmYMCJzeM33Pp0ub7z/JcZWoVxKts1wjyGPjZnfxuoAM7KqGiRGWSjwP5Ki1txqalCaAYkBK0sKZPyYITJ6WD8Z1Ler0vlwvcphbbFuIaif1Lt7R+mD3D2XThwty9dvl69/XCwrN+xU5M1RCQn2gcR3F/NLa8ZDj00j0JoQ0CSmNa2GHkubRADZeKN+//Ajr8B6EteQBYYbOEOOBw4cIMjUy5IDRs4RS4ZdMy8M/516PA1p6Q/KkaNH+Yau3EYM163NwQKXTBAy+FrnZskvKFLuC3MMdINUVSCc2okaSvaApxvJzFBrWhDeRWTO6+9+qfQgJCHWjRs6iUtgQIAkxkVI105J6hOKTZ1NZRnOL0QW2+Nwt6TL8EE9lW7EUaHEVnMzMLEgwtL9fL3ltmsvwFeKqR27wMyoMo6fLrYJZw+VkUP6yLc//yoffDlb0iF8tkf+uP67d+26FKc92WrmrgeiEWjlCGgS08oXSA+v9SPwzttvPwVryRB7YdLm6LnB8/dTplwkN950o1ADQ0JjRiJxA6Nr6MDBQ7J79x5JTT2uiAubSVysM/4ya29AIDPInrCwGEJTIydJTQ1zwpTgU+4egOjE14/kg/oXI73+/779Wd58/2s1ZmuyRqsLr50UHyVnjRgoZ585UPr26ChRkWEqf4q1ZYrjKy0rl7yCYomAqLfVExgr9Mx1cCU0vBoEqLy8Ei6nQLn1qonSv1dnef6tr2TLzvpVyZVLKTOrD6pbj779zjuWu7dw+iyNwOmFgCYxp9d669l6GIG333xzxHP//NdddUsK1L2IGXV08003yRVXXmGERcPtw02R35Os7Nm7T7Zs2YbEd2nKRWEmvnM0XLphlFvCwmFINJit10iuxnwmEPO6nZUXriMkd/PyNnLB0Grwy4r18p+3/ydlGLd15FEFrhcEa8PFE0bJdVPPlb69Oql0/IYgGW4lfLUOo+Y42V9CTKRwg2+8RIKHF6yJ3bk7XlqoqkEshw/uLc8+foc8/cqnsmr9jjp5Zng/8L7YuGHDEAxTk5gmrpU+/fRAQJOY02Od9SybCYFvvp72O1gXgh2RGFotIiIi5L7775WJEyeqTdskKbRK7NuXIqvXrJGjR48pK0pj5KWhaZDPmG4fhlTXVLEEgRtaGJxFVxJPJVE6np4lL7/1GdwgWSq02Gx0XXVIipP7fjNVppx/pnIvkUTR8uCoGZ4tYOCmi6uZlrFFuuXak2h279Je/vbIzfLYs+9ZLDIn3HK0cO3cuXMsBvRGiwxKX0Qj0MYRsF/Qo41PSg9fI9ASCHz0wQd9U1JSLnakgyFZCQ8Pl/sfuE8mTZpUm4GXRKUY6ep/XbpMfv55lhw+fEQNV6Xsd5SfvpEJkRPQwuEDIkEharWywrhHYBg+7Q0rjFni4PNvfkaBw111CQzIWR+4jJ578k4lXuWVSGrctVS0xHq1lmuQyHTpmCR/vOcaSYyPrpO5mPfG4UOHzkSyRJbL1k0joBFoBAFNYvQtohFwE4F5c+deWVFeHmqPeNCqEgjNyl1336UsMGaZABKVjIwMmfnzbFmzZp1yzzSFvFgP3RsEhkLZKtYmakruFS9YBix1kHbvOyTTfphbByFmCGb0zTOP3SbDBveErgWk6TS0rLh526jTqAUaPriX3AKdDPPumI33Eupodd6xfcfApvSvz9UInC4IaBJzuqy0nqfHEdiyecu1zFBrr1UjMujSS6fKRRdNriUwfMs+dixVZs2ep+omNYW8GOUJoH+xRCczTDk4kBWTkYOlvCmVoi3FJS01neYtWoEaSJm1Ql6SsXbxMfLk/ddLvx6dVJi1bq4jYIZnXzx+lAxCTSnrZIZc2w3r15/peq/6DI3A6YeAJjGn35rrGXsAgVdeenlUTk5OH3s5YRh11Lt3b7nyqiuVxoWbEsWwqakkMHMkPT29TnSPu8OhCNRsvEaHdoni600xrftaGLM/FqzMyspVWXlNSwHFqQwZfuC2yxAy3FtZYHRzHwEKnmOiwmXK+JG4H3zruOIOHTo00v2e9ZkagdMHAU1iTp+11jP1IALr1q6dZM+NRDIRgDwpV1xxucTFxak3bBKZjMwsWbBwMZLV5TSZwBgZb6ukrJS6F6N5Q8fSoV28eFWT2DQ9eRwFvbv2HZADh46pkgJs3HSnThgtk88fqdwhWv/S9BuKFrtRSJ7XPim2NoqL90ta2vGBa9es0YEXTYdY93CKI6BJzCm+wHp6zYPA/v37x9uzwlTBOtGtWzcZdeYoRTRIOJh195dfl6rcL42VI3B2tNTcUJvCRsrCfmMiQy0RSc72Yu84hmfTTVUtO3anSEERajNhDsyN0q1TO5XsLcDft/UXbWwKBC14Ll2CLF3AxH9mhmPeV0WFRcmw3LVvwaHoS2kE2iQCmsS0yWXTgz6ZCMydMyc6Nyenl11LDCjF6DGjJTwi3JJ4zks2btws+/cfUDlhPNVIkEwdBXOxREaESpfkOHAPFCtsYmOm30qUK8jOzVN5XozIJ1+5+YrxkgxrT0WFdiM1EeI6p/vC0jViUG+VX4eN9xVyB0Xu2b27qyevo/vSCJyKCGgScyquqp5TsyJwICWlNyJIYm1JDIkFizIOGTJYXZ/WkeMoH7Bh4yb8q+kuHnNSyrpTWqo+/J5WGWorEmMi7BaAdBUMxspUIs1+BfqnYJhkaUj/HnLheSPVtXTzLAK0wPTs1kEiw0Nr8SXOx1OPa0uMZ6HWvZ2CCGgScwouqp5S8yLA8FeKd21JDDeeDh3aS3JyMkKOYc3A5r8RBIblBBorCunSiC0uKtMSQ20KKyuHhwZ5RKdCywuokbRPiFRaG19YYa686CxssiG1Lg+XxqsPbhABZjZOiI2STh0SanUxvLcOHDjQU0OnEdAINIyAJjH6DtEIuIhARnp6N3unkEx07dpVJbhjWYDU48dVOQGPEhheGNcphZXEqJMEuwn+37VjOwlGfR5PWUqqYVU6f+wZMuGckTJ0QE8ZNbRfnaRsLkLm0uHuJvxz6SIteDBF0ta5YGwvzfsmOCgARDS2tqK3EoNnZHRvwWHqS2kE2iQCnnPSt8np60FrBFxHAKHVne0RE/4sKSlJaV8qKytk187dIBtl9ao9u37Fumdw08vPh16FZQrgsmJV5V5dO6DWkXsZeu2NpwrWgWgIhZ95/E7Jz8uTsJCgOjWQmjoHR+dzbkyc19Cm31zXbo5+SWYPHD4uEXAVRYaFOEgKWIPioL7SrXN7JCtkxmVDF5OXl9upOcak+9QInEoIaEvMqbSaei4tgkBGZmYnWxLDzZdVqulK4u/y8vLl0KEjKvmcpxvJS1FRkVEWAN+HBAdK105JHrPCmONlSHUwakAmxUV6egp2+2O24SPHMmXO4rW1lbtb5MLNeBFaYabPWqbm5EjYTdJC0tYlOUEVhOS9xHsoPy+/w6yff45rxuHprjUCbR4BTWLa/BLqCbQ0AkWFhVH2XB7+KI4YGxurhkNBbx6sJc3hGqGA2Ex0R4sJ3RBJCdHNEvZMwsTrtUTjhn84NV0++HKWpKLopKrS3cYbrWMlsMZ9+/MvkpNX0KBrMTw02BKhZIjAobuKOXL4SEIbh0APXyPQrAi0/adEs8KjO9cI1EVg+bJlvhDtwj5Rt5lZeWmNoeD20OHD6qunSQzf0BmVVFpSUmuJ6dghHu6eYI+Iek/OelsityylDvakHJWFSzeqOlBttxlz8vbxk+DQENm2+4AsX7cN1hj7c6ILLSoyTGljrMpQhRQUFGhLTNu9CfTIWwCBtvyUaAF49CU0AnURKCkuCa6sqPS3h0sAahcFh4QoK0lGRmazQceikaZ1hGHcA3p1VbqYtpdBl3WaIHr1CxTfwFDxC46U0MhYRc5mLVoNy4WHo7psVoQ6lAC4b5pDf+Pt6y++QRHiHxIlwcGhSHhYLjPmrZTColK71hiuHUlMBHQz5jrya1ZWprbENNtfku74VEBAk5hTYRX1HFoMgfz8/ChYWMJtLSzccPz9AyQQJQfyCwqUJsbjUUmWWZaUFCsSw7f3QNQy6gY9jFUh5BbDoikXInnx8Q9RxMUvKFx9DzYjiQlxEo9w4137DsvaTbtQc6qZHlHAbvGKTfL1jCVSXFLmOYsZq38HgJCBwPiAnHGeHdolSBAqmq/bvEvWb9ltd041cAsGYy1DgoNqxb+8p9JSj3duCs76XI3AqY5AMz0hTnXY9PxOVwS++vLLB6ETwY5bv9GVxJwqyLZaq1lpDpyKIeqloNd8e09KiLF2QTTHJT3aJ60UJC+0vnjB3aJixBFcTP1NdFSEJLdPlPzCIpm5cDX0JOUet5RQbF1YUiovv/uNPPnc+/LDvOWe0d+AwPgGholvQDCmxEcrUwXWSCeEv4fDwkLL0o9zV6iMx/ZIpxfcZ9Y6IKKSnZOT5FHwdWcagVMMAU1iTrEF1dNpPgSmXDj5tRXLlz9iL8pERZQwHwg2ooL8gtq6SZ4eDa/DRHtUXDBJWnxMJD4RHo9M8vS4zf68fQOUm8ULVZuNdiKTMecWCkvEwP49Vajxqg07ZO+Box6rN2U9J4Y+++IajMBatHwj3DwlTdbg+MKa5OMXVAc6lm1ISoDwGuJr3hvL126TbXsO1otUIgq+KDvASLNaTFizqrLSLmFurvXR/WoE2hoCmsS0tRXT421xBObOnhM7buzYHzZt3Hh/Q/WP6BJQOVzgTvJU0rm6kzVKDLCgpLH/g8TERkpQEDL1erCsQXMB7OXtCwID64uyUtRvxM4HG/mIM/pJWFiwpGfmytxf1nncVUbhrJ+fj4QiGohuwYNH0iQ9K7dJ4fAU8Pr4k8DULS9BohkXEy19ehplkLJyCuT72UtRm6qu6FuF6GPujFCyEvZirUtDm2s9dL8agVMBAU1iToVV1HNoNgS++Xpa1ycef3zOwZSDlzCE2lEzahhVqTd7CnubQ2RLFwS1MLUkRuUWSZTANlJV2sefGhFaYBzXkWIV8MH9e0uPrp0UMZsPEpOCZHG+EDB7srE/RgJ5+3hJZnaeSkhHd467jeJke2yL5ScCAvzk7NFDsU4QEcOVtXDZRtmx91C9OdFSQxJjNqMQZEm0u2PS52kETgcE3P+rPR3Q0XM8rRH49JNP+v39b3/7HmUGzqCFoLFWXl4BklHZrPoU6xwx1EywerWnw7gbm6d7v/dS4caNFcJkMcT42GiUOzgT7h5ku4WV5JuZvyja46m0gYbVw1cS46LEG72WllXIPJClShAotxpDw1WFcvsjJLEdNqivtEs0oqXTMrPlp/krcXhdMscoqVDUv6olMegP+qrkNatX1wvpd2uc+iSNwCmIgCYxp+Ci6ik1HYEP33//jH89+8/v8vLyBlCw21gjkaBWhVaY5owUMqw9xmbL8OrY6Ig24Egy93fnaAhdZuePGyHtk+JVIc0f5i6XDdv2qIzInmo+yNfSt2cnJcSmBeTX1Vtl8459lmRzrl3FcI+R5Nq3MHG9KL4eM2KAcgdS70PStHPv4XolKULgGjRRInHOyc7u/dYbbz7m2oj00RqB0wcBTWJOn7XWM3USgXffeefM55/797eFBQU9SRScbSQwpYh6aS7LiOGyYhRPldoumaI+jiTGWkTh7GBb+jg1xmqTzTR49Ups+t06J8uEc0erDT09I1fe+OhH6Eny3CIZdi+G4dAVx5pQRhRQvnw7cymIqOsJChV1aYCf1WC9pKpMzjlzoITyejj2GDIST/vpF+V+tL5fqNWx7Wve3LlP337rrY+09JLp62kE2gICmsS0hVXSY2wxBP779ttjX37xxW9hxu/ckIjXdkDciPjGXQl3Ei0GzUVklK+KuyY+AdDChMH90CZIDAZcVVHq0FphjacS+II8Xj11grSDNcYHupVV63cgJPpbKSwu8Yg+hm6rTiAxye3iDOsIIsvm/boOEVE7xR/WGZcaw91R8FOxD2WGwwdzqKmqkMrSQqkozpWyonwZ0LuzDOrXDfeIYY2Zs2SNbNoO608D1+N9BC2W1/x581+86YYbHndpXPpgjcBpgIAmMafBIuspOofAB++9N+KVl17+EmLKdvYsMOQOlfgP7Qn2mqrAzKRlwUbUi9n4PT90W9h+XCE7ShcCnYhxjrHRN7QBOjfrljoKJA8kpqocOW6UVcay2du9PEKLQQh7I6LnAlhjSDgoiP0OhRRfeHua5BUUNtkiw9DnGGTIHdC7q1E1m0U78wvl0+/mSwHCrV1LVFgjlWWFMLYgtB6khd+TuJQX5+FnzOkDFyBz4OB6F54zXI2d88mAoPjTb+ep2krmfcAwa3v3BNd68cJF/7zt1lsfbqkV09fRCLQFBDSJaQurpMfY7Ah89umnQ198/oVvYIFp74jAUIlyTnCAjEZ5gUo7I2KtpMLCAokIR7ZWbDomcaGFpgS1jnJycphGXn2ys7ME7iqlozGPa5TQqM3WB2/xhqWAG7HbYtRmR9TOBcBdKkuLpLIEm3tFCTZ3WC+geak1LdG8hH/z59XlIDyl+XLZpJHSCcnvDCIj8jVcMH996VNFAFxx9dmOhjSK548d3k9lWVZ5WmARWbF+OxLSIfmdi9XHFVEpRyZlfGoqikHRqmAxohXFD5YdfPC1HGsdh5B4sz4SxcVLVmyGPmZ9rTYmJIgRXPV9U/wZLXzz58576e477nzoZCyfvqZGoDUi4KLdtDVOQY9JI9A0BKZPn97rb//3ly8LCwuT7SayQ/ckMBORiOz/oiNlHlway/H2bBsxUwESg7IE0q1bN/Umn52VJZmZmSAv2cIsu6yfQ6EqG7cpbkqBEHKGhYVJXFycREXHSCDS09NS4chFpKwvcCOxlUKDk1dQ7PGMtk1Ds/GzqyuBAz4UxHqBlNVRQnPu1PwAJzpounVMlKsvHqdcSWwkF6yrFI48Mk/cd51y/dCS4k5jOPegvt2kd7f2snlniopYIin8eNpcGTG4N3Q57ZRGprFG64laD2QX5j3AaCdaV1jOoADrU4zvWZV7/ZY9sgniYZWF2EKSyhDR9uHXs5WrqUeXDrDiIewb9w6nZMtlSGR4f86eNevF3//u4cIXX3n5/cbGpn+vETjVEdAk5lRfYT2/BhGYN2du0pOPPz4dRKO7QwKDHeUiVIl+HAQmAdqJRBCJANAQ0hjznZkbDEsBHDuWCnLiL+vXrZW048elgjljLCOwfcOuqCiXIpCbLBCdQwcPIrw2TNq1ayftk5MlBIUk7SXM4xhJfNjKsFkeS8tsPv1NM9w71hiQqNRYIq1OgGRSPOPiJHNXTD5Lflm1GbWUUHcIhIHumB/nLJdhA3vK1ImjYeFonGjYm4pR5iBcJp87UrbuPqiuxfwxzEvzwZez5KmHb1ZamYY0R5zPirXbMb4tsiflMBIdlijSUgKBN8kMSQqtSCRDlSBnrMxtnfOGhGXfgWOScihVenVLlmBY+fh7IwLNvkUGRNbnu2+/ffP/nvxT6d+f/cfnzbBMukuNQJtBQLuT2sxS6YF6GoHVq1Z7/+OZZz5JT0/v05AFZjIIzGOIAorChkbrQAQ2GX+8Sdu+/3NDmvHjj/Lv5/6tSIlyFVnpYExtzImvJzQynFt+fp7s3LlD1qxeJUcOH1bTrbvpG9qNoEBGuMBhgc0xIzPP07A0W38cM3PpqLIJ0A7R8hFAVws+DCf2Vi64E48kNXf8PzE+Wi6dNEYRGFXeARiUwKrFMOVS9NeoG87BjJQ+Gv2dM3owXFYJSnDLRpI0e/Ea+XnhKnVNR4FHirji/K9mLJZ3Pv8JJQW2gwwdAAlKlTRkAM4vRA0tzJWEhGPmXK0JDPVTFIKTiA2H5YfuSLq21DwbWAXLfP3/98UXr/3n5ZfPa7YF0x1rBNoAAtoS0wYWSQ+xeRB45m9/e2ff3r3j7WXiNUW8FyAk9k+oTxTBOjZMkkaBrt13ZGOMaWnp6qs7eg1TTJqflyebNm6Q3Nwc6dmrt3I7mdYAbmAhoUaCO/5s36FjaqM0/908SDW9V+JxHC6Vf7/1teTmFSgLSK8uydK5Y4IkxEVLEohKCFwpAciKTBLBRtcO0/Sv27xbVZvmfE3CQqzSMnMUKQqC9cLdRoLRKTlBLplwpvzn/emqG0WS4PJ5+9MZ0r9XZ+nZtYNda49Kmgd3VpfkJPEHIXNFZE3hMudy2QVj5eG7rlA6mSqQmgBoZ1Tl7kay+3GMGHvUW2+++fGHH3ww5Te33bbJXQz0eRqBtoyAJjFtefX02N1G4Jabbn5s8cKFdzgqJVCBTeQcaGAeRVXlCGwYJDBqg8MnlboHbqh2ru4oqsXUufDtm/9jAULqIuwdz5/R1ZGyf79Kntd/wMA6RCY8Ilz9my4K1v3JLyyRyPAQbGruaUPcBtGFE+mWYfjynCVrlS6IyWpne69RglfmTmG+G+pc4uCyi4oESUPfmcjdcuhounLvUGNSt/SAIXJualMR61iTiyeMUlWz6dqhJYQfYvv6Rz/IPx69DfWpAhzWwxo7or98hqgmjtG6CrW9sRlh+CgKCdJ285UT5MqLxiFMPhCEDcJlWKF8kSfGIMAnWAwdS/aIsyJbxSUdXv/Pqx/PmT1nwqQLJmU0FQ99vkagrSGgSUxbWzE93iYj8Pijj13/+aef/ssRgSnHFUYE+sufQWASkdm1wkJgEGwiudiAfkQIbilIhm8jqXlJXPjGzU2Sm3UI3FLhYSHKjUILQj5ChYuKS5Ubge4sU+zJCZoWB7qVfH39pF///hbBZw2EwOESDM0MI56OHc+UI8cyJDoiDOJjR8HfTYasyR0Qi0079qvkboGoJcSmrF2wtuTkFqhEdgpmCnstV1NB2CB6zKliWzuJ/XTtmFQb6dOUAZJUtEdJgGsvOVeee+PLWosPLSusc/TF9wvkjusnK6GtrYaY4x/Qp4tcd+m5EOjOURYbZUmppbgIu2dYPq7B9WXBznGjBsmV0PkY4d2MMDuxbtTMsPyAJRUQLH8iA0FYd6JfEmdb/z/vm8yMzEH/+Pvfv1i7ds2Fw4YNd08g1BQA9bkagZOIgCYxJxF8femWR+CN114b+Z+XXn7TUSK7cmwUAwNAYGARaI+3YlpkzEbryTdFhfIrRJs+jRAYEhNaS3oh8+zIYQPkzKEDJB5uk6jIcEVYaGHh5p1y4IjMWrhc1qzfimiW0npp6ElmDh08oCKYunTFpgfyxH5jYmKZkl5y8opk74GjiLIxqiS31ka4YuFCslYSmSSFGz4UMU4PncSBlpvJ5w1XVgtnIoga7pz5faplyviRsnjFRpQg2KJ0OsSeP//wqznSq3syMu4OqudWMsTA3vLbmy5W1pVvZy2VVBDL8gqjNIQvSHAYyGtnJNYbNbSvjB7WV7p1aqdcZoxkqttAUuiuVGzJtMV4ycUhgdILJOYrWNzseZkYGn4gZf/4f//zXy+jvwecBlIfqBE4BRDQJOYUWEQ9BecQ+HnmzOjH/vDHT6EhgTa3viuCFpeO2BD+BALTC5tYmdVrty/2lRUImf0gD0nNsJPw3/YaxbZ86+7fp7tcf9VkOW/sCJAXFBpk2CxLBhjmBnyMzWrk0P4y5cJxsujXNfLSm5/CnXFYbaC1xMmyke7ft0/i4uNUBBPPjY2NlYMHUuDCKFVRO5dAHGqkwGudjW60CWcPlZkofLgPkTjUfrgjyCVhofvp4TuvBCnoBwLjZtFGG5i4blGwZt1x3WTZsiNFChBGr6wi+OTkFyDE+ztk941X1h9b0sS50bp0w2XnI5ndCDlyPEPyIOplY94XJrlLBIENBDlmRBYtPxWOik0qMfOJm4s2Glr8boCrLRPnzS2GW83QO9dptNatWrHy/t89+ODOV1599Y3WeRfoUWkEPI+A868/nr+27lEj0KIIvPTCC2+ioGMPewSG78QxIDbUwAzCZmNkgTEa/0iKsVF9AfdPFtxDDgkMfkeR6W03XCpvv/hnufaySRILUTA3PeaIoQCXFhpaEviV/y7Fz+lemjLxbHnh6Uekf+/u9TZJbqTFxUUq4skQ+MKlFB4uQcwMjP/t3M/Q3iLlemmtjXPujrwrf3nkZlR07qmGSdcL3UKNlU0w3XIMV2bulqf/cItcduGYWiw8NWeOZyjCtq+79Dyl2THHRVK5a98hEJlvVFZfe7oXEhmeHw5tEt1EZw3vrz5D+ndXpQ1YOoHrTfLS0HxtcwRxRauw5oEgMr8JD5ZhIEv2pE8khD64j2b88OPzsDae7ylMdD8agdaOgCYxrX2F9Pg8gsAtN9z40O5du6+xVwmZb7v+IAP34o35PIh5TQ2MeWG6jvZjg1pfxrdg+0SBm3QY9C5/evgOeeJ3t6HmT5wiI2bF6YYmwY2rDO6loYP6yv/94S6Ji4lSWhrrxmOOI+8MdTBs1POEIkqJGyo1MYfxcSciyiPgOtkJN3q6VF79233yfw/dKOeNGaxcMGaSOZIU2w+tFtSmJKOG0vUgFy//9V656PwzjRJSbia5czRcI3zbSwluhw3uBZffCXcPNTnzf90A3ctcVVrCkRWJ7ie6iUho+DHuARI1Z0AyCnyqeVluM37hQ5p3QwzdVhEh0s3fR8rt9McxgRwHvffOu6/MnTMn2pkr6mM0Am0dAe1OausrqMffKAIQPZ757jv/fZabpW0z94Kb8QZ9ZSgSzFm0CNbHcSNZgcgTinoZYm3buElFhIXKnx65Q664eLwiINYuB7qNmAfF3Pi4SfEc22R2pSBJI+BeuvPmK+T51z+qF1LMrL95ubmqNpOPD4o/QifDPikO3ob8JIPx1t/aGzf2aOiCrr7kHJmCiKD0zFyESmeDiGXK8YwskJgTxIF5VZISYpQlIzE+SrlkSCZIdJqrcV3o/rn/1kvlAKKiMpDv5UQJCS/5DLWO2ifGyFVTxnlAi1N/FswbQ+Jr3mW0+gWw3gIa9VkdodO6C/fqv3MKJZuFK226oN4K5S36v/T8C6/jV9c3F066X41Aa0FAk5jWshJ6HM2CwIwffoh98vEnPkHnrMpY7xoU8k4CKbgtHFYN/J6me+vG7aMEOoa1IDH2Yn+M3CUid9x8mVx+8fnI9XHCXWDUu/FVLoi9cPlkQogrNdCzwMXUuWM7iYH2xkh4hvdsy3Wpm7lsynkyZ+EyaF2219HHkPTk5eVKErL68pq+IDJsPH9PyjFhGv3Wni+G46X+hB9W4e7UIR55VhLE6wxjbazRN1fLKKzJcyxYNcudcqJTEtChA3sose4/3/ifwpUuPWpkWErg9Q+/V8Rq1Bn9lIvIYw0TVpl9VdI9QwLti690JZnIsADpYLiUboFr6S2IuqnbsjWnkzBv3br1ugfuuXfDa2+9+bzHxqc70gi0QgQ0iWmFi6KH5DkEXnnpledQz6iHvWgkvvP3h1vmkagwlQvG1o3EUVBmkgrx6EFsLvZyt9KNNOm80XLLdZcYwl2acngec8vArTBr/lL54rvZsmOXkfOFjQndOnZIkvHjhstFE8aC0LRXBIk8hoSE7qSpk89FrZ2d9YAohZDXjJopRKQUG/+97+AxKYCYNCw0uB4R8xyanu2JWFWD9LW2xhWkOPvyC8fKrv1H5KsfFkFvZHh4mD8mLSNX/vn6l/LvJ++U3ohacrfsge282T9LFRiJ8Aza4o+vQZbvebwKS8d/zkfemiO4J6cVltqrTqDcjbNnz/7L22++tfq3996zpLVhrMejEfAUAloT4ykkdT+tDoGHHnjwqt27d91ml8BgI4gG0fgdXBudYS1x9D6NEoVyDEQll1WUbQw5dD3EwKpCIW8Y8rbQuqAIDPN8gJG8/9l0eexvr8iK1ZtQI6lYiTr5KcT3W7bvlpff+lzu+f2z8tPP81CxGYSkilWd4WpCP2ePHoq3/QTldrJuJDGotI3IpANKI0MCw+tl5+ariJrWLO5tdTdIAwNiFBmLS94Da8yIIX1UXh+z+cOCtBNC3xf++7VKyOcpLRLXkpYeozI57yFRVphAlriwMlHxWz64r0LE0nDkM7JOA2COkX2hvEPIu//97+srV6xwP6VxW1o0PdbTEgFNYk7LZT/1J/3Be+91//mnma86qonExHV3IqT2LITA2hNJWiN0CBaVErqNbGCjdmHiuaPkjIG967gVaM7/ae4v8uYH01T0ETdDWmbMHCD8ngJjfnanHJE/P/e+/PfT6VJWlCOVpXlSXlII3UWsjBs9rJYYKXLEcF+4pJYv/VW2bd2iikuadZhyEPqdmZ3nVtjyqX83uDdDEs74mAj54z1XoZp2krKsmY16naWrt8rzb30FUopwbJXgrumNfdGdZHo+SWJYbNRWx0uaEwZyw4ilTtDJ2MtwR3KVnpbWH9FKzzR9ZLoHjUDrRMAzf3mtc256VKcxAh+898Gr5eVlibZp/ZU5Hp+JwUFyOV0vDWRWMcNbabZn2QFrEkNLSyjOv3jSOKSK962NlOH1MlHT5/1Pv1c1ghhyzZwojhoJDt++3/r4R/lu9lLxgnulsjRfasoLUaW5B873ryMAJnGiJaZuHSEvbKSlkg43hzu5V07j26TRqZPIDOjVRR65+0qJCEdWZCvLGEXGPyHvzbtfzFRuROuMy4127OAAugStXWx8QDt6SNOt1A2EmTlkAphPyE6fJMpLly57GOkFLnJ3TPo8jUBrRkCTmNa8OnpsbiFw711334UstxfadyPVSG8QhwfhRgphEb1GrpAP0pCjdBt17TA0+ffu0UX69OxiMf8bHVEzsXztZtm5Zz8ywJ4pbz77kPzn6fukc4cTVZJtL8m3eFZjfhtEZv3WvSqjb2V5mfTsGA99jCH+tW62RIWuBlaGLoQ7STfPI0DNy/ljzpD7brlYra+RsNAsDeElnyJi6YvpC1TOnqaSyAqr0HoWYAgCOXGUl4hjoJNrDIjuFGT1VWHnNtNXQu/qap9PP/n0n8uXLQvyPDq6R43AyUVAk5iTi7++uocR+PzTz/rNnz//n0z8Zdv4phoCE/zdKKDYCUTGLOroaAhF0KbkVldKgSIR9RNzDB7QSwlprStMk9ys27BdheD+/Y+3yriRA6UdwoRpKTFdBHybZxSKqZFR1ZCxOaamZ8tHqL9DFxR/loCw4o7t4+uRGHO8KgkcdTboazSy144Y1NupvDQehvyU706FxONeuOric+Xqi8cpy5i55rS+MGvwGx//IDNglWE0mrspB3mHlaD0hKl/oe0vEkTbn0TEAcr8OcOsrwSJ6YuoJXv6GLqVMjMyBkDk++Qpv1h6gqcdAprEnHZLfmpP+L3//vefZWVl0OzWvbVVxAl2h6uQC+Z8OwntbFEpYTgzCAxN9tblB3gcNzBuDJ2T26m8JdYkhvWPRo8cBPfD1RD7Bkk5dBSrN+5UOVAYoksCk4AyBDddMUF+d/tlMnJIb3U+Ny5aYFas2ybrNu8Rb1hnWDm5b/eOUoHcIYxYMQmLmRCOY0kGybn9ugvl74/9Rtq3i60nBD61V7vlZsc18gfRvPeWS2TSuGF1csTQksZK4i++87UsXLpBraM7FhmSI+bNsW7RMMOQFjkiMTyWdsJojOHGsCCJAqmyZ12kW2nZ0qWPvP3WW2NaDjV9JY1A8yOgQ6ybH2N9hRZC4M9PPHn1Jx9/fLG9rLwMnx6AcgI3Ix+MmQHV3rBUmCvywuSCOOB9Wx1i481RpCMgIEASE2LrbC7chAJwjXPHDpVKiHSZ16S6plKREiOcGEnxkKjsqd/dKOeOHqw2uisvGif/eO1zmbVojbLG0CU0/9d1MmJwb5VHZeQZfWTJys21xCkEb9wxcIXFogAiiz4O6N0FRCZBRU4ZUS26NRcCJJKR0MU8cteVkpqWLRu371OibTauHSOVnvnPZ0rkO+7MgSpzr03aIYdDU9l2YVEjiTEtdvwagthuqzQxDs+nBWYQtFeX4P743E6hSPYPPVUwLJV/RyfnNRdGul+NQEsjoElMSyOur9csCCyYPz8Cxe/+aS/cVUVyqJTtYdIOb8m2lhVzQCQwFaAlObR84CvJjkr7buMf4MZEsW44ygzYNuoiqhEqTcLCjYM1k9Ih9OVORCJzwTnD5Wy4mLgh8t9xiH554DeXqpDdlEMImcb/NqMAIUOm+bthqOXz0cuPKiuSDwbCOj7+uDY3Sroy2AetOyRMujU/AoxQ6ohCkE89fKM8/s/3ZPe+I2o92GiVO5qWJU+98LE8eu81cuG5w2vJqzMjo3sxXxWONG44/jfUxXpYF4cGyUboozaXVtTLLs2/jQMpKec+8rvf3fvSK6+86cyY9DEagdaOgHYntfYV0uNzCoH333vvj3m5eV1t3Ug8mfv7JcjKO1aFUzve7El2crFJ0Wpj8hbuIRRX2mskHPXt/LC4qFBcI1qlEFWHcwuMaKJguIdIYEhATLEuXUOdk5PkislngywZVZOPZ2Qr4qPCsvEJR/RJJCw41N9wwzS1MKztQ+uLp2sIOQX4aXwQhb59e3aWJx64QTogc6+1BYyWGa7d31/5VL5EkjxWrXbGtcRjqIUqRmZo83YjNUqgu9LJ2uTUfEXinrsmJFgieI/ZWSO6ulBX6dHZs2bFncZLqKd+CiGgScwptJin61Q++ejjgatWrHzYXjQSCUkPuGVujQhVb6YN2SsYicQSA9aUhX8gobZ/JUwPD6JSxGKM9fgNthxoadSbtEpexuR0OA4XjokKly4dE+sJdbnRTYaFhhFMFJCWIWsr84UokkQSZskEXFsc8HRd6FY0b1pkRqOY5ZP3X69qLVkX7GQEU15+EXLIfC1fz1hir9pFvZmQrGbB+sZ8PyqiCEcE42scyIizLil2SrfSEAh8x4Ow26t2zeuA7HdCCoI/tCI49VA0Am4joEmM29DpE1sLAp99+snT2FTwzK/LKLgRMLLjFuhgkhm27GA34FlFCKMuBPmw5ST8t5/66YnfMGkd3USZKFxYtzGcFZYRuKN4vMozowo9UhuDwoIob8ANz7bwI49Jgr7mwvNGqO4MgoRoptYCcBsfh5c3i2969lFnhrVT23QPxL7+uL+sLWIkMrSsfDxtnoo6ayyrLy1+mdn5KOZZopIimpF0jKazZ1FxtCRmNt+p0MZ0dZAEj5qx9evXPfTRBx8ObeNLq4evEXCYR0lDoxFoEwg8/9y/x+/csXOqIysMXUhMbOcoqR2JQhkIRj6Ih62VRm0I2FBiYdJnht8Tv4cIE26cLGTItT3JCL81th0ez82M7iNFqLB5MELJkTVo8nkjLflkqhrd9NrE4rSCQfoGhIhfcKT6+PgzTYrnqKGRl6VGrrjwLDln9CDcE3XpBtc9MydXiXWdSYRH6w1dhEYRT1hicK8wiZ2rjW7RJF9vuRT6GIoe7eWOKS8rC/jqf/97xNW+9fEagdaGgGdfT1rb7PR4TnkEfpg+/Rm7OhjMPAbk41ZYYUIZ2uyAObBqdR7DlxvY3pJARLiZmF1wXyFZ2XfgiAqhPmEBOuFKUiRG6WACJRSh1iwOGYzsvSQ19hqtL3Q1XX/Z+RKCc/hxVgtxyi+yWxOEJsnHH8QFxctpiUHFb9/AMPEJCHarN0cn0YrGrMpTJ47GOgfWcRXyfmGxT/6+IZ8QaQrvlZTDx2trNHHtkxhm30h4taNxMTUAk+ANw4ff2zZaY7Zv3349Mvme61FAdGcagRZGQJOYFgZcX85zCPzl//7v8sOHD4+0Z6qn6+gCkIehIA72qlOboyiA+4ch1Y7ed7mZUCzJGjbWewGJy+59B6UQ0SS01tQ2VQTSEpoN4hICMS+FuYwuYvi1sso4cGuRGF1+4Ri5/doLlZDXNlOv55A7HXryAoEJhOGl7iPOF6TGG4TGXvJCd1HhOnXr3L6eq5CVsKMRDh8TFdFg9BjvJYqFDxxKVfeJQYppAUSNLdcNMWoavAtZW+lyEKvwBlxS30+f/kd3563P0wi0BgQ0iWkNq6DH4BYCP8346R/2rDAUN3bFm+Z1dkKgzQtxb6CItxAkpqF9gpFNCdhM4uBPso5iJnE6eDhVDh1JVYnpzEZNjHULBHFJio9Rb+KNuRS4GQYi/8xt114gnZIT64hF3QLoND7Jyxsp4nwY32NjhmAEmK9nizqT6DIqyQy1NmEnIWEen0iIyhuMIMMNyCi19Kzc2hWjRiaG0WlNoFu0wPRDNNtYEGlaHG0b7+FDBw9d+Owzz1x8Gt8qeuptHAFNYtr4Ap6uw0diu1tQobe3vcy83LguQThyN2ws9h7exIyWmgKV0K7hxkc/3VGJeOBbNxISFnhct2l7HXcS/EY4zKBFKrMv3EdDBvRQRMeZUGizsGMd687pushuzxvWDKwX3Uj2mrGdu2nisNMhQ+MZhVaC8GizW0VIQSBGDe0jAVYFQu2NR1Unx7105Him0kzxDqLlrwPuHWfCsx3BxHkSgcnBASDhPvVcqob2pkZ++nHG79yGWp+oETjJCGgSc5IXQF/ePQRmz571hKPEdj2weVyMXBm0nDgS0dKNxJwxjW1lPJ+h2f3Rp+2x3AAWLV0jBYVFKp+L0epeEcX3ZFDvrirDLl0GzoTLOkN23EPt9DjLG+TF2xc6FJtGwXVlaYFUlTGhnOcaycCu/UckO6dA5fpho2uQOWSGgsA25hbk+RlZeZKTW1hrrQvAzca6SY7uX2dHT7tgd5Co8SAy9vqiIB4u2fOefeYfFzjbpz5OI9CaENAkpjWthh6LUwg89ac//yYjPaOXLYlR0UT4zxWoj9Qeb7H2kvCbbiSGVDvbSCp6YCNguKv1RuAL68qOXftl+64Ula3VXqPwk/lfRp3RV4k2TUuLs9fWx7mGAC1kjAYqr6ibZK66slwqivOkqpwEpqnU4MSYWG6AouwFv65XlhjTZch8P0P6dUdpiphGi3LS6rYfehhac0hoSL6jQGCoiTErZruGwomjzZmSxCQiYsneXU8CPnf27AfcvYY+TyNwMhHQJOZkoq+v7RYCyDj6R3tmdrqI+iHR1yQVUm2/MdTaGTeS9dnsi6SoE/JuWPfrDeKSjXo5sxcsU0nqDF9CXXsNNyF/JNu7/tLzVDVr66Robk1en+QQAeWWgTXj2de/QOmG/eKr6hqhLAOIS2VJPvL3VHgMPbp9qIPJQzbm6bOXyi+rttQJi6eAm8U9/VTG3YYbie2+A8cs95BBsVjQMcziWmrqoHlndsA4xkMbw2Y7HqXvOnBg8gv//re2xjQVbH1+iyOgSUyLQ64v2BQEnvvnPy87duxYH7tWGLzF0o2USCuMA78NhbzOuJGsx2hGevQHGbHdBPjmPX/xCtmPcGuVq0bVuqm7TVQghHtI/+6qcjV/pd1FTbkDHJ9Ly9iK9dtk0bINsnHLLpAWhM6XFcKFVFibu6epV2aIPK0vGRDhfvnjIrn/z6/Kv17/ElYUwwrDta2A2zASonIKuhuzpKjSFMjOvBvuKJOY8+5pB2IRYGP5c3fs5t14LkhMewfaGI5z9qzZt7t7DX2eRuBkIaBJzMlCXl/XLQTmzJ7zO3snMs9LL7wZT0RYtT0CQ2rBUOtCZTFxvdHkP8Q/QEJtQq1VhMfRNPlq+mzVqY+3UQywTsMuwut37ZTkME+M6yPSZ1gjYIYpr1y/U2U73rJ9lxTkZEpNeWmTgWLfJC+0vBw5liHv/W+W3PnYy6iP9Jms2bRbRRaRjKBKNCxt1ary+AtP/VYG9OnSaGVxWo/SMnJwD6XXhurTMdkThNmTD2dlTYQl8SwQGUfamL2791z83rvvDm4yYLoDjUALIqCrWLcg2PpSTUPg/XffHQYB4tm22XmVFgafybDCMArDXl4YUpcCbDIkOI2Jee2Nkuf19PdRIskNqG1kXVyYroWZ85bKRRPPhoi3s1Qo4aiNwBc/oT5Gt+ZBwKxTdeBImnLrHDx0THKysyU+LhLAN+bQsT8mRV7QF60UB1BhfObC1TJn8RqlX6HFRREbunwgYmGm3aSEaLl26nkq1098TJTSyjRmdVN6GITqs2YSCQ1HSguMK4UfnUFUIYD/jAvyl3kgeVm4F21VXCiNEfDzzJm0xmh9jDOg6mNaBQKeJPutYkJ6EKcuAjN/mnlXRUVFvbBTWmE6YUMZDy2Mve3KLC1QUtNwTpiGkDNcSt7IueFfjwRxM0s9niFvffi1FIHg+NCt1KgS4tRdp5M1M5JEiqfpVjqcmqHIgSPBtaMxkrhQz0IdE9dw664D8vJ/v5HfPvGKvP7h97L34DFldeGak6CQvNBCc/GEUfLq0/fLb2+copLbleM+bYzAKF6BPnbuPaxEwSoTNH5GQS+z9VrnJfIEprTGdIQ1ZixyF9kbG8nf9m3br//x+x+6euJ6ug+NQEsgoC0xLYGyvkaTEfhpxoyODz/40LX2aiQxbnl8UJB6QNsr8siNoRBWmBMZXNwbDq0xw7ABJPuWymH0Z/3H44eNbDHCraf9uEBuvPRcqar0nIjUvdGehmeBBJBgGFaZMlmwdL2qNG3mQ2kIEVpBVDZluBtzUcNo4/Z98vOCVbJm4y6VhI59GMTGaKydxePPQAj1zVeOl3FnDpJApPgneXG2cazFpeWyZWeKsvb4WiKTmFzRNhLO2T4bOo4EnzM4Gy6lJbhuLuZqbY0hBkWFRdFzZs++FIe95Ilr6j40As2NgCYxzY2w7t8jCMyeNeua0tLSMH/UorFuxpurj0xGcjujbnRdWwx/UoT8IA2VFnB2gHyTTcAb+LkIV/0EUSnWjZscN7a3P/xGuiYnyJghPVDFGMnPmti4sXCzY96RxvKNNPFSbf50P1jAglBmgppuEgy6fwYjzPni8aNUskGWATDrUfFeoeWD60YLTn5RMSwih2T1hp2ybO022bXvsCJCtOSY9a5ovTCKPMK12LWDXDVlnFyEop3R0eH4eWWD+hfDNYUQZ1Y0t+iymFOGAmFGJtElycb7tRvnQULTDCvCLL49QMYG4rOopFwVNrVunOuK5ctv0SSmGcDXXTYLAprENAusulNPI7Buzdpb7JUYoHVkNDauLrCE2LPCMKS6yFKh2h0tTL154Hrn4U12MXQFh7ChWf8BcQPIyMqWf736ifzryTuld9d20EU4n4/G+lokLtyI8wtKJCsnD6nrwySMhSSdyZbnafDbQH+q2Cbug97dO8rK9TsUKShAXat/vv4/2bRtH8S2faVDUiwKMhorVlFRJWmZOXIYQt29KUdl5/5DknIoTfKRuFDpXRgdhASHbIq8wPLGPnt1T5bJ544AeRkh7dGfoYdp2PrC+4LEhRYX3sO90QfP8waDYFQSLT21lc5xkzKUn5orN6U8Da4WKb4/+j4PRHwlrDG2hU85vqzMzIH//te/Lnj08ccNtbpuGoFWjIAmMa14cfTQDARee/U/4196/sV+tmHVfFMNwUOXEUmsMs3QaetG0lKMzcPVkOqGcCclSULSMOaieTcfobsW+495Dq0BO/cclP/79/vy9O9vlf4Q+jJ6xRXyQddUQUGRzPllHYSka2UH+rvykvHyyG+vkfJiz4ULn0r3l1niYcSgXvL1jMWKWJB05AHHz76bL1//tETCYK3zV3olkBgQ28KiUikrK1euHApsSSR4j/G+4c9oWSP5CIILcWCfrjLx7KEy6ZzhSsBbDYbREEFlHyw5QYvPnpQj8t2spbJ2827580M3KCJTjVB/9rFi3XY1VtZd4t0bAWLDxIruSZGdW1GSo76oLUaR+lZcmxmprRuv/cviJTfhiyYxzkGqjzqJCGgScxLB15d2DoEF8xbcys3EVg+jkttBhzAMRRPtW2HgSnIhM69zozHekM+HNWYt3mQZqeRrY+KhdmIrsvg+8a/35A+/vVpGD+uLrg23RUPNDOXdvvugvPrBdFm2ZqvaSJlnZt2mnVJe7St+QWEgMnnODvW0Oo7hzcMG9ZRhA3vKkpWbYUkBKaHWBV9JcvJIOi3swHQlkTCajfcY8eaxgUiamIyyASRF54weIoP7dpUoWMMQwaPEvA01kiG6ilIOH1eJ8GZCW3MQUVP3/2aqDEQJClNPk4VEibTOKL+WIk6ianQZmXqbb+l4F7Ky9RiI1HewFIa6O080Ern9+/ZdBB1alykXX4wB6qYRaL0IaBLTetdGjwwILFywIOneu3872V6dJD54z4GgNxIP/TI7VpgSEBh74dZNBZabQBQ2gevCgmV/Rb7k0f1g0yktMtRVPP7su3LD5ePlqovOlvjYSPWGTzJjbZnhHuaDej/83fxf1stL/52mwniZcZabLHUcVdg8WfvHG7lqvFGdubqq3Gbraeqs2v75JCER4aFyy1WTVMZeFlWk1UNppcxdmskGLYzBCDs22ALvr8hwlKtIjEPl6c4o2tkd1pdu0iExVllUFJmE7qUx8kI3VGp6NojLSvnu56WIZjqqtDh9e3SUq6GhMRuvtwduLOYYIulRQ8KHRUtpXWyO+9Z67Jz1GbAwxfqUSgbcotbaGGJWWFQUsWDe/Ck47LW2f2foGZzKCGgScyqv7ikwN5i1JxYXF0f5wfxt3QyRra+MhQ7CnuqEP6MVxvYt01OQUAVBceRVoUHyMbQXfHO21dyQgOTg7f/1j75XWWQvmTRaRg7uI4nxUXjT91e6CxIUvtkfTEuTb7HpffPzr9DBFCn3gtlq0Pmgvj2h+QhUqem9fPBnq0jMqdfMEGdboufsTJkt90yk+3/4zivhwvkV4upyuIwqass90DJD7ANgaaHmJTE+GhaXeJCVOOnbs6MkxEZJOMipLzCm1aUK5KWqvGELGvukcJgi3YXLN8KdtQQuwEOKIHGN/YMC5bZrL5B2IEQcHxvXdM2mXdDgFCMDsPEY9sMN1Bv3TN0KXc7O3LXjVLg1yNlgYDGnsrRezhgSmdWrVl2mSYxruOqjWx4BTWJaHnN9RRcQWLlyxTX2Dqegl2+SydgAbDP0kkyUelgLY28M3Nouhh4nDW/aPxaXKmuMLZHhBkerC90G26Bt4SbZrVM7iYuJgNUgRBEYFiyk1eYIcpt4wcLDtPZmo16iV48uct2VFxpZYasZVcM3d4/IlF1YieY/lBaJncAhF4nfzujfQ4LhsqMAlsTNjOhpbBTKwgXT1pWTx8qkccMUiSkFhoweYlOCXZIYEFC6JykGZp4XNjNySOV/aSRU2tDQQPOCZcjMzpP5SzfI93OWYZ33g/jQ9cnfwUIIAjXpnGFKS8OMvmwkCLkgt8vXbatdR8O65y2dMZbmdCWZ+JHckzSNBJlbWFymyLStSyk1NXXkl1/8r9+111/HgeqmEWiVCGgS0yqXRQ+KCMz48cf2f3zk92ON5HEnGh/ADEFlcrtAbOy2gl7+vrgZrTDmSLjxMNLjlvBgKcHGt4D1c2q3pRPjpXVBuYUwsOMZ2XIsLcuyaRjbhhESbCRQs25M7NexQ5L85dG7pUeXjhZ3Bs6B66ntNVuRhz0S5qVCpJ964SOJQCXy888aoipB01ISCrKoBLcWUmPgZl84Yv48HELecNQwUvoXC2A8Q52G/xhfapTwurGmzjfFvyAbxUhOR8K1ZMVmWbBsvYoyotCXBNTU2ZA4de/STu656RKIgwNq3VEMtd4OQstz+D0bdVadcW489TCNDcZDv+c1e4PM0SKzH2O13Qww/uBff/1lEi6nSYyHMNfdeB4BTWI8j6nu0UMIrFyxckxRUVG93DAU8XaCe2kw3iLtWmHgBijDpyVsFXy3DgWRuhNWFUZ5zIFFhpuQPZrBzVRlkHWCg1B/0aFdgjz9+L0yZuTgOmG8Xswpws7aSLi1F0gXXWBeXpg4hw2LRA1JphJdnyAitFR07pAgl04cLc/85wtZvna7JMD11rtbB0R5dZX+PTspQhMfEwmyA3ccNl/T0mWSGloxTBJDmkK3TUOEp6FblWtlJs9jiDWtOscOZymr2tI1W2Td5j2q7hHXgmTEtOgoUgLrXChI9r23TAWRaV/rRiKhpfZp6eotyENTinOMqCSGVLMCezDzDXno76exbkzrz+AAX0VibF2vHOvWzVsuRj868V1jYOrfnzQENIk5adDrCzeGwJrVq6+2lxuGD9+h2MQYyWGrh+GDmFqYpmbnbWxs1r9nAjFGe/wWFploWFSmF5ZKsR2xr7N9cgOMQ+2dp5+4T845a5hNHpLmUvk4OzrXjvP2DRDfwDC4yepWOCHRqIGup7IUeVmqT2zbtLRcARH0npRjqko0ScLx9Cxl8aAbiNYVim0T4qIkuX28dO2YhDT/YSA1gYgeClVh1IwsMogFEtXho0KnKfClRcYmnNicjWmVoQbGpFUHjhxXVrNMRBFt23lA9hw4qhLTUTDMPDO0nllHN5l9qcrVXjXym2svlAvhRqIo2GwcC+e0ArlsjOSMBo0Lxv3TD1YRNb4WIqe8LrMED8ff0hy4lGhNtHUpHT16ZMz/Pv98yHU33LDBtZXXR2sEWgYBTWJaBmd9FRcRWLRgYeg9d989zjYqiQ9e5oQZhU3Lh2+tVg98PoDpWiqj+NXF6zX1cG5TtMRch020C9xfnyOj735sXty6nTC81F6emzv3sVuvu0TOO2s4tBn138uptXAmlX5T59Tk8+l+8YcbSLm/bFw/qGNVXYGMxrCYWTdqXwKRlfmB31wqBciiO3vRGlWLihoUWmqyc/MlIzvXsLDgZ7R+kEjwK11OEcA/CEJaWlDomqIYmtqawEAKef2Vu8fQq5iuPCODbhm0SRT0MoKIZIgFGf/x6heybstupcmhdolnkIQQf+sSBHXHj/4wpysnny03XTHBIClW9yjHtX7LHjmA8GvTfWiEVnuj/pf9hI1NXocGOqAlkxmC2wOT3ZijdWFTYoQ8On6rVq0ejS40iWnOhdB9u42AJjFuQ6dPbE4EVqxYflZJSQkqCtSlACQLTNI1EG/lhgG8bmORR9sspM05zjobGP7Bje4svNkyVHZmUYlK7Z6JzZebsDNyXG6YSQmxMn7cmcrtYFf3odxJxKWl1BOeRZCWl4rifBARalHq0026bmKQyv+p392EsOdQ+WbmL8qaYZIPa+uc0rRAPEtXTx5qHh2hC8m8LSy6F17BsF8Z4hjbK/J3tH5FRYai1lI/JbpmkjyGuZcgFxCJj7WryBEahl6nClWsz0J+oKtAnvzr5AYiKShFf7NRCZv9mn1yFXvhfokEg2gpV5I5ByNnjLcMgBVop538N/z727Rx4/k47A3P3gW6N42AZxDQVaw9g6PuxcMIbFi/fgrfkG3N/9zYB+KNOsZOQjC+VZacBCuM9dS5IXJr5pv1bdDJ/DU6TC6FhYBF/dhoKeJG5Yh+qPT5sCQEwnrgSLhq1P0xt2YPA+/J7sgmbCwtKoV/melCMiJ8uJnzQyuF2UhaaBkhGXjygetRMiBOWaVI8qwbcVAlGrARk+QwXNnsj2HqDKM+8dX4HS031h/+jGHXrJV0NC1TJapT2XpBbAw3VON2PVWWAO6l66aeJ39EgsOwkOB6yQ05Pop5mbnXrK7N+4VRQiTlTlzGk6tT25cXXF/8mwrEAGxfC0gYjx09Onre3LmxzXJx3alGoIkIaEtMEwHUpzcPAin7U8Y7ciUNg6XDtswAt5lSPIKbO0mYs7OlxYhjYrE9Wo6mVgXJJlgMtpSXw2wPt4glBNy2PxKUAtTvYdkBryTHm6eXN/90m15g0tn5uHsc0+sjyLz2dOpglBtJNS85ejxTNsC9kldQKOeNOUOSkLfFJCq0jpCEXDf1XBk6oKd8+cMimbVotWTBpXRC59I4wXBm7CQQ1LlkZOW5FL1uhGNXSmx0hNx1w0VyLcZKIkVSU5dsGblh5ixZo1xiFPSykZLRlcP8MPXtis6MvOnH0J3VBfWaElFO4zCrc9t0icKrCatXrR6GH+syBE2HW/fgYQQ0ifEwoLq7piPwyUcfDfzL/z3V01bUa1Ss9oYA0l+5Wqwbf8cMva1J9sqxUPTLloRxtwsJRFh4ANxL1ZKBTe7dvCLZa7Np0KpAiwAT3jFnjP0G6wOifapaXPnj6tpSvEu704lVqa5kkj4kgcPGffR4lspozAKNLBnAYpf33HJJncArVWAR7qfundvJ4/dfKxedP1IRmV9WbVZWEyWwtSSbazKdwT1VitBpNkWSsKk7akZFa4RUg3yMHd5fEZhhKFHAuZn5YKzPpeUl5XCaLFy6SVl6zMb7uA/6oGWxOQo+OrNi/NuJxvX7gjAeBCGj1sxsKpoKhHvzpo3n4meaxDgDqD6mRRHQJKZF4dYXcwaBTZs2jWSOlADk1rBuSoSIN9hkVqy2+gUfuSixiM2u9WpE1Hs5xs/ti4SmAzbITpjHLptNgySmCILWFKSrHz18kEO4DLFs011KzS4Q5pooDsOoG5ROUKTGCMChlUVZ0FiEEKTmJ6Tqn3z+CBVxZCtopmWDYx06sIcqCXDDkfNRW2qbqi/F7LgU+5aDVKiMv1aRSM64guqBbBkbc7uo4pCWAfN7kiq6mQJhDRzcv4tcdsEYJNUbrrQ7DIt36ALEui5Yul4OHD0h6CUs/hjvEGYPBhDlJ8kUY7i0vECmfGS+xaVkG6V0IOXAWc787epjNAItjYAmMS2NuL5eowhs3rT5QttijzyJD1Zm6aXv3jbBHSOSTpagt9EJWR2grDOWuVAnU996AHEnNuN9KYfqWZtOdMPIHJwLImMdnuzKOMxjS2B5oB6keRpzolTiA5cSMxdjjVj/ySyGSRfMH+65RhXKPHDouBxAkcSPps2TPz94vd3oK9N1w7F2bJ8gnZMT5VKQCIZB7wSR2YKimyyeeQQuqiKIqpmQrtoSMq1wpqgX907tx2bSKuybBAv/U5FNwYG14e3MAxMGbRPrXw1GAr6zRw5UX2MR3q2ilxrI8EtSlZ6RKzMXrqoTpEUk2sFCMwBkzrTYNc86NN4r594D42CqgFwQNev7kmuXlZU1eNpXX/e56pqrdzTemz5CI9ByCGgS03JY6ys5gcCKZSuC7rz9tpG2riRuLszSO8jOhoutUQl621LjJtEBb77M02Hb6EbaunOfFBWXqPT49tKGqNIDyi3hvgONLp1NG/ZJCITEQ5Dmv7ECh27hy8FTH4KilapZTYZkbUi/bvL3P9wqf33pU4heD8uPc5erAoxXIleMWVHa3nXpsmG3zAlDV1Ovrh3k4omjoCUqRlbkHBRhzFSkiJWiD6OcA3OzMDNvMfKhFAJXlnNQ4l2WNDCitVWj24fWFlpaJp87Qvr36ow8NOESDbLSHeUimGyPpSNYK4k5ZZilt7FGEjNnyVrZs/9onazMtOwwYWMcrHInm8RwFkmYO0lVFqxltqHW0MUEbdu2bTAO0ySmsQXXv29RBDSJaVG49cUaQ2Dbtq0DUfCxne1x1At0woZOFwxJi9m499AqU95CGXobG7+zv+cMYlmMELsnk4xZqy+46R08kirHUtOQ7bVjPZGougajcqiLaUIhSGozGOr70bS58uyjtyG0ONL+tZydlN3j6H4pF+8aWHuUFaauz4Ruo+GDestfHr5JnvzX+3LoWLq8+v53SFoXJBfATUOS4MhFw8sp9w60UIhbUldnThim+u/Ztb2Ms/y+DNcoKyvD3BiOXa4sNNS+qJpK+B37MAtPJrdDFBR+TjLD6uNG5JMZDcb6SrD4kT3ZCHcdQUQLzlEQqumzliqtjLcSZBuC3jD8bizCsJus5WnS+hgnq5cE3ITd8De2WZVhqDsqiux3bNt2Bn7xPw9cTnehEfAYAprEeAxK3ZEnENi9Z/dA1pyxrVpN4sIkchQg2hbIK+NGVu+x64nRNF8fRoIzo1ZOCjZS5pExm2G+z0XUzk7p2a2zgw3TFPe6P0YmZWPo8pYdKfLBV7PlUbh2PK+RQZK6CsSNUQtDvYUd3QctQKw8ff+tU+VvL38qaSiIyURzTDA3+byRKgzbLODY2GyVbsXKOqLqVgFjP4Q8Gy4l1lJSQep2c8ZQYGwWm1QyHgp48TN7425sLPw9xz578VpVZ8naRUpS3hf6rh4g5SdL0Gs7fhLpfnAp/eRdouZr61I6dOgQSYxuGoFWhYDOE9OqlkMPZu/u3SNt37y573GT7wvTO11K1o4jvn+X2uQiaQsock4ReMNn1WLbfZ2bLDf29Zt2Kq2FfXEqrAd8q7eKdHF13tysOyTFSifUK/qC4ctIwmbmL3G1rwaPJ7FgaLUlMsn2WFPrQlHvlRedpawfrAz9t5c/kZff+xauoGwVkmyvBEVj42TfhiC3WllRGLZNNxLxrQB5pCXI+mNdLVtpZNSnsavY/z2xZMK8aTOWKJ2NyVPZHYW85yNSLQSEtbU4QjmuDnAxRiKRor17Mjs7e8BPP85Idg8NfZZGoHkQ0CSmeXDVvbqJwPHU44Pt6WGYF4aRSWa9GXbPN8VKEJi25kri2LlxBWAD6wvzPUNa620amN3m7XskMytHRdvYa16qQKGdlP5OYk83SgiKFDLapxARUW989IPSpTiTndbJS1gd1rDThESDlorbUG9oYJ+uingwu+2HX86S3/3lDflx3nKMkRohPxXJZJ0Yz/WxNP8ZpkVr2k9LjBIDVpmnqX8ZAEI+glmn3WVIzTAFWoSYwiCBNcnsjAsuubg9e/Z0bYZL6y41Am4joEmM29DpEz2NwOxZs8IzMzO720tyF4ONvDdIjO3DtYxv2Z4eSAv1x7d8RqYw3bztHCi6PXDoGKJuDigRqf0GSmcKZt0cM/UeY5BqPzoyHEUXj8jrIDL5IAsngyTQQsJkdw/edrnERkYot6FKe799v/z5+Q/lnidekc++m49CjMdUfhjWL2KeFjOr7snKeGsPeia827htL4TKK+pYkLjOrHo+FZFOwVhWN408bq52w6dxLKyi3dGvfoEMlS8Gmp59e/cMbJaL6041Am4ioDUxbgKnT/M8Ain793dBFEREPT0MNvt4bOpKD2N1WT50GVrdVhtdYczWyrfyRYiasU0yhtpR8suK9XIuCkE6IjHePqjP41XiduVjulgG9e0qA3t3laVrtsjCZRvls2/nq+RtpiakJfGlkHf00L5y2zWT5MV3v1HuHBIV5mbZsHWvbNqxX5LioqUfooYG9O6CMOdu0h5VrSOQpyUQhJCErzZoyzLwWqKgvqlv87IWf9S1F1HDgyzQcD250oyEhaXyIQTTzABsXSyS1o6zgpFjBmNtLVoYc25EhiUQkmnpoh4I/66DB26Iw4cOD3EFC32sRqC5EdAkprkR1v07jcC2rVsH2otEIU3piY2Mb4nW2wlN8Uxy1xqiO5yepA0J88fgRyMnyXIUiiSpsba5MIx61brNkoHw4GjkVLHWaxjdYO6IUPKihgH5WNxp1IgwUdvUSaNR02enErF+PG2O9OjSXiaeNVTKGsh/4s71GjvH1LBcc8m5svfgMZk+e5lyxSiBLvVDWHPmhTl8PEPm/bJOQpAFOSoiTDoiqqgdCmdGo4hju8Q4lAEIV24xnsucL6yfROuWmQiP3hLzWka49gmtDDUyRug18sUg4V2/np3U+Q1FSZnz4r1IF9+M+b/KLys3K9eX2bi+TO1/OawwXHf3VqwxBJv6ey+QGNSSspN8j27ejIyMvk29gj5fI+BJBDSJ8SSauq8mIZCaery/PfEmN/YOeLCqCB6Lr94IrYZQsxVpCtyZPF0mdCl1xYa7E6Gt1lFKPtgAD0JPsWHrLpl07ii7GYm9VMp9RLg4qAjtzJhIXM4ZNUjO6N9TVm7YoapB/wdhzsyc27VjolO5UJy5jrPHkEAEIVT64TuvUJYMlhigFoaNZIZkBE4k9W/qZo4WZ8qho+mKZKjfW4pK8l4iafFjPh7cPwx3VpYay0DMKuFVMImw+jStPab4l3qhMtS5YnTUwD63ODt0dZ1d0BV98OVsJRzmWNlMq8aFSKDXET9rnQQGWi1gmASiFQwCXWaTtsCS9K4nikEmTZg4MdVpUPSBGoFmREBrYpoRXN21awikHjs2zDYSR+WvwAO1u6VgntmjciUxcsS1S7S6o2llikH14/OwaVsTGA6U/y6GS2nx0jUNRCkh1NqP5Rnct0eRNERGhMqtcOFEoHI0NysmZnsZ7hwSGluNUkuASOtIPPLW/PmhG5V7iblb7FlCzPwutLqoitX4Sq5La0opcsMUAb+cvEJJh0CaFpwjxzLksOVzNDVTjqF+U1pmtmQhGorH5RcWK1cQhc7hYSFyzdRz0K+/c1YYXLgUeWje/Xwm6iSdKC9AvCjmZZHHiYhIqnF/qZodeiNqzluibFy35oUh7o1KTU3t0OwD0RfQCDiJgCYxTgKlD2t+BPIL8nvYkhhu8sFw0LNAnjVhYd4YWmLaeuOcaI05C0nPesBiYPuGTkKxci2KHSIJHC0J9RtdSojaUlFK7jfmYRk9rK9MOX+USuZG6wX1McwfY1o43O/dvTNJRDq2j0NG39/IxLOHqqR0ttWh7fXMe4i6FGKnrDHAjdYZZcGx98HvSNR4HBMA0jIVFhos9/9mqgzq080pTQyJE60+02cvRY2kDaqStdm4xr74/SRYYU5moUdnVkEJjynuBU62RVaJK8nl7l27+zjTlz5GI9ASCGgS0xIo62s0isAP06cnVJRXxNkeyA0+FhuMNYkxQquxodF90GjPrf8AaiU4vyuwcTKDrzU14+bLKKUly9c6jFKidsbLl/WP3LdLkSBw4/0NrDHUgHAjZ/ts+gL5Ye4ytcGfDKwZsdSBRAYZhe9DMrx4pPxn+QCjZICRx8XdxjOVLoZZeNEf+2Vtpx6d28ufHrherplyjtP9E7vtew7Kf2GFYT/W0V1c3+6wwpwJotraxLz2sCMdZl0vRwTx4IED3dzFXJ+nEfA0AloT42lEdX9uIbB/f0oXmKoD6+eIqYEY0geF6Zip98SGxVIDbS1Lb0PAcHMbhXo9G+FW+rmotE7tGm6085aslCsvGY9aQUZl5boNqfF98XNkxnU7MxuJITZypt1/8PbL5Ml/fiC5BYVKc/LKe99JIiKCxg7vrzbolm7UloRCDHv3jRcp7c68X9bLouUb5CgLPcL1QzLDRvfbiQKPJ0ZpBCUZSetMHQx/ZOhnvNF3MOojhalop5FD+siIwb0kKSHGaZLEMHW6od757CflsjL1O+qy+JAUnAMCw1D6Cvc5V8vBDrYaR8uUJX+RNXklZnl5edqd1HKroa/UCAKaxOhbpFUgkJOdncg3Yns5YiLw4LSts3wquJKsgSchY8TKFYi22VhWIcdBKCCVUY0ukK1IfLd+8w45e/Sw2srK1tu0t3IpIYKmqozbs9tryhDncWcOktuvu1BpYrhppSM66vm3vlYale6IWiKpaOnGe4Nj6dujk/SFpej6y86VXUjlv2vfESToOyIZ2bmSk1soudC1lEALo2ouqcqOzDXjrbQywSh0GRkeorQu4SAunSFaboe8NF06srAjI5oiVDSRqo/kRGFHEwPes9/9vBTEamO9RIFc12gQcIq3jXVpCywG1bWBA7NjU3dm3UgU09PSerf0+uvraQQcIaBJjL43WgUCmZkZyfZcA3xoJmMD8sNGUGF5oFYqPUzb2AxcAZfiT6Z9nxISIB/mF9dGtNA6lV9QJD/OWiIjzhioNuV6WMGl5AOBb2UTCkJyrIZ7pUauu/RclTKfhQuZt4eE4R+vfi7/eOx2hDJHt3jEkjk2M2cLk/OdNWKAjMWHol9+WNixAIn6iopLjSrV0G8wwzNDs4Ng5QqGJoUVu82svwHImMv7S+mSLDWTyspd01mx7807U+Tjb+Yqt1Q9Eo7Ow2GBMWp+tY17lqMMAd8iqS41eOCJBryKios7rFi+wnvU6FGugeXKH4M+ViPgJAKaxDgJlD6seRFAxENP2yvwYcrkWx0ZcWL5pamHYWi1+/aG5p1LU3pn5Mo5cCktKimTveVVShDKxtwjS5atQ9TQQenfpwesIbZunRpFYqrKQX4QLtyUpkKckVvlodsvV3WLfl29VdUuWr5uu/z7rS/lL4/crHLLuGKtaMp47J3LMZZbEh2S5AWBnJCksBK3Ku9oc3OYeWEYz2ZwCYRVMzdME4gFyWQ+oreY5ZiuLWs3kjlmJo3LwTiPwbITG+DdJjQxhCQUmIbhk8vK2zZYQgQeWVRUFI455np6XXV/GgFXEdDCXlcR08c3CwIFBYXt7OWIIX2hOd660SLTNt5pXYfKqF/jI2fCSmDduGEyTPinOb+oDdhugzXG2y/Q9YvaOYMEJT42Up64/3pVy6gSVajpkpn363rlWiqABuRkhF7bm5wpzrVNWGdd2JEWHFpmeIxKZNdEUbDKaIs+PkJiwGVrSPLsvw/yzs3Don5ZiFBvfG1aDJlHlrbRTnh3MUKJf3e2f2mqOGl5efjx46mdGu1IH6ARaAEENIlpAZD1JRpHAKLeaHs5Ynzx0Ay2epjyAcu351OVxCikML9BrNiNndJ6ngzhnbtouexDjSMmVbPXfEBijHDrpiNE7Us3ROo8iUid5HbxyoVE98v3CCN+9f3pEP2W1SZza3yFT60j6GKbs2StfPLNPLVe9iuNG3OmtmltaYV8UVAs5ViXtkBk6EpiagN7jeH4x3WumFPrhm7Ds9Ekpg0v3qk09Py8vPb2SAzfCFn80bT60wlfcQrkh2lo7ThHJhwL4Nu+1YG0xjCD7/SZCy0bZ/1eSGAMa4xnnG10W50xoIc8cd91EPYapQ/o2vryx8XywjvTVGVpX2R4PZ0arS6rNuxUUVvFcPvZsyDa4kEiMxNanY/zSpRYtjUjxnuOZDXY5v7jnFQhSNwDhYWFUafTmuu5tl4EWvPfUutFTY/MowjMnT3HD5lpY+qRGCWKNHzzpoKQ4shTJT+MIxCV7gcfupZsw1uJ0YzZiyXl0FEnrDGeWSYSmXNGD5JH77lWQoODIVBlpJDIlz8skhfe/hpZfYuVePZUb5xzACxkFPI+/cqnyPyLBIRWtZEamj/Xkffw98Ul8jEsMqW4j1srYiQxHFskCbGtuAg/p/sOVrjQU3299fzaBgKaxLSNdTqlR5mVlRVfXl4eVt8SUyMhMGnTtM0Hq7G5Q5B5CqPBP0iKe5fjDb/QjniZ1phDR4/Ll9PnqIgailhtG60xPv7BHkOJVjBqSaacP1IeuftKFeFDTQnHMm3mL/LUCx8pYat1llqPXbyVdERrC+f3y4ot8uS/3pe9KUcdEDfHbjzzYfsD8gD9N69I8oBhayUy9CQxoop3l70Z5eRk10tM2UqWSg/jNENAk5jTbMFb43RzcnOiq6uqjAp/No36AettupKCzNY4CQ+MiQAwzPr7wlLhRufIIcQN9cfZS2TTtj0OLSB0KXn5NC2Lr/WU+PbN/ClXTj5b7rn5EpVPRREZ6nRQTfpPz30gO/ceUhE6DelDPABTi3dBKxNDtulC+9O/QWAOOCAwJJ3UI9F64SDqiQ9crutskNT/IKdNKsih3Ru/xWdZjwrDpYnSDQ7GgYR38Sd9iHoAGgEgoEmMvg1OOgKwwtgNqVH5KrBJUtzLxn9TGHmqNf4R+mOOBxE9w43tfbhnihrQTbAUQVpapnz85Y+q4KA9TQZLEfgGwBqDr55qKs+JV43cctUEuecWC5HBz6gRWbl+hzzyt7cQvbROpdynlaatN2V9wdz2ohjmn//9ofzjtS+QVC/PrsVJ1ZcCgYntP1riBo4VLxaNtISA16cHRhbfpSXl8q+cAtldgVpVuMU9o2LyFOo1KkLJnqWIJLWosCjGU1fS/WgEmoJA23/SNGX2+txWgQAe9nYDNkhXqIkxH6T8N/PDnCqNmxbfwosxpxkQyP49u0Dm4w2dtqbG/jC5uc5bvFLm/7LSgS4DfaCeko9fkEfhMlP833rVJLn7pimqsCItNCQyKUfS5P+e/wj1g35Wgte2qpPhJs2xkyBS9/PgX96QmYtWKVLC+dZrSiPkJVE9h0hUj0ES3WOwJA09X/yCQ5FB2b7zk2tPN+lORIA9n1sgqxC9RPFvayIyASCj9qxq/FlpaSnzxOimETjpCLRWl+xJB0YPoOUQwAMxxNHV+DZoPthJYKiJaeuN8+EfHgsErMNGSdcRSw1QzOusa4EbCcTQ8vaH05DHpYckt0+0W22Z2piaqgroZ8rRu2e2SBIZClrvvP4iZXF5+9OfpAzzoIspj8nfPpwu23alyF03TLHkmGGxxtaf3NWspURStmLdNvn0m/lI9LdFFcP0dxDSTmLj7esnsX2Hg8ScoVxJLCIZ1rGnePsHSPq6xVKWnw3Xnv3Aaq73QYSuv4iSCTeFBaPSdYC6N1q77gvzDmjrf4d6/KcGAprEnBrr2KZnUVxcHOFoAsxVobxJFJeqbKttO1Mv/+C4ne/GGzjJy0ps/oVMgoY5OktgTKyYRXf7zv3yxvtfyV8fu0dZD2zJghcsWT4BIVJdgm3Rg6HpRqi1l/zm6gsg9A2S/yDcuBCRNyQ3qmAlkuJRI3Pj5RNk6qTREhURatQzaqWWNHPcu+E6+vLHRTIXOWAycwzXEcmZvcbMyH4hEXAhjZLwTr2MQyzzowUmOKGTJI6cIMfXLpSy3AxL/p76PXHdC4DnuxD7ZuC8a0ODVDXzk01keK82YBFsC+lu2vRzUQ/eOQQ0iXEOJ31UMyJQVlpmN5SG3IUP8xOWGE+kcGvGiTTQNZ/4DFc9gkRhM0FeFkEPkYU3fJYVMEsLuDMy6ja++2khihm2k7tuuUIJbWlJsG50K/mCyFSWFrhzCYfn0CLD619/2XkSASvCi//9praKM91LR49noUzBV/LL6s1yyxUTZNSwfqp8AbPntgYyY1heKMQV2XfgmHw/Z5n8vHCVHEnNVGSMY7XPXmgNRORcfLLEDhorQdGJFv2LjZUQJCcotr0kjZgIIjNfSrPSHFpkSBYq0Oc0ZPbNxH1xJwpVRrHqtUdXzPnOyMX8gI+ZNtHWhldVbV+I7/wV9JEaAc8goEmMZ3DUvTQBgfKKcuZ1q9cM3QD/y8y1NSrJHbdnzzhFmjBgF05VriP8JxfEYlFRuUp4dhgWCVMT0WBXzExssTwx7JpiXdtGawjDn9/84Gu1Id96/VTl4uHPrJuPfxA22kpVW8mTCNIiU4PBXTT+TFUF+oW3p8m2PQcxFmiZlFUG4eJrtsnWnQfk/LFD5KqLzpZ+vbogisn3pFlmDOGxj6rGvQPWolmLVss8WF4OHgXJAMb2aiDVARNrERTfSeKGjJOgqDipASlzRK9rUK4hICpeEodPkLQ186Uk+7hDi4wKr8dnfnGZSohHIpMAHFu+ZrgxW5b8UEl7bbgZyV9lRaV2J7nwHNCHNh8CmsQ0H7a6ZycRQBpzxuXaPdr6Bm39qooTU+Bs+BZLl8BqiDanodbQ1vJKRcIa+6NTVgqltfCVwOgECU3qKuX5WZJ/aJfhrrDBiqSlGOTohTc+ldz8QrnjpsslOipchQVbWzzoVqKGo7qSahzPNV6DtZZGw9Ly0l9jUZLgO5m9eK2qt6TcMbDKFMHV9O3Pv8qi5Rtl4tnD5JIJo1DIsosEoUYUaxo1tZZRY7MxiQutYflINrcJbrg5i9bIkpWb5HhGjrJg+fhg226QIbO8ACKWohLFNypB8o/ul8rCXPEPixK/0AglgrUbkQSLTCCITMLw8QaRyQKRcaCRMUnvL6VwM8LSdV9EiHTy80HV9sZm6PnfG/epHRbD+7qqqrHb2PMD0j1qBOwgoG9EfVucdASQtM2hf93Mq8FneFMqDrfkJM0x70Xo7I/YvFfAdZSPDYlhtA1GHcHSRELgGxis9BThEIcGxmDDRKh0dSWEsyHhkr1zrbFR2iEy2Fjkvx9Nk6079sq9t18tZwzso0gEa92oZIHcgANDpbwEFh4l9PVcU2/nIDKdkxPkmUdvk+GDe8tHX8+VlMOpyipDt1OAv7cqHPn1T0tUKPawQT1lEgjNiCG9JSYqQmlsOAczAqqpo1PERdWRQgQY6jwdOHxEhYIvWbFJWWA4Fm+MrVHLS+1AaA6Dlau0SAr3b4YFpkJySX5g5Qpt3xVRSUPEF2QGKup6Q6dFJjAy7gSRyYbVx6awqXmSstLhswEk9F85hXJnRLAMRv4d9tqSXIa3mKP7FXdQWzKINvVW0ue3YgQ0iWnFi3MaDa3RZzO2dxWZ1JqfnHzg03WUAVfOPLgEZsE6klpp6F5IYBw1RrPQ8uIXHC4h2AwjIBINhM7Cy9sXpAZiWGyK3rASxPYdoSJfsnasYbqWekSGmzYNNYuXrZVtO/fJ1MnnyOVTzpdePTqr6BqSjGqGDweFSUVxPvp1X3Fh6kl4TVpSijDXQmh9qHchabngnOHSr2cnmT57mSxctkEykV+F55DMcO/OKyiSubDWLF62SXr3SJaxw/srS06vbsnQ18BixP+B+DE3jbImGf+3NDV59b36r3K1GeHAtLQY9X1qJCevQA4i7Hvj9n2ydvNu2bxjv6Rn5qrzOEZ3QsC5FlVF+SdGgnWrqMyXnF3rpSwnA26j8bDMRNq1yPDcQLifeMxxZZFJhUXG8SOYipy9cHm9CCJzFywyZwX6K0teW7JInkbPMD3Vk4SAJjEnCXh92RMIYGNzGIhhPrAt+1irhY1/SCUY5GJYXRh1xOgjNuYCaYC9KPeQf0gY3uS7S0SXvuIfEaMsJtzwqGGp3baVG8lbYvoMl+ryMsndt8Wua4kbOC0LObn58sHn38vMub/KuWOHy4RzzpS+vbtBtxIpAYGBSq9SVpgnVW64lkhESCyYuXb1xp2ybfdB2X/wGFxZRUrnwjf4QIyBGpnEuGjpDWKyGXjQ8mE25b6BZYb9bEEtImpmvvh+oXRH1ezhsND069VZOiTFS3RkmISFBCmLCc/htQ0HBwgOiEol3WMgjcUlpSAthZKNnCt7MK59KccUaTmWlqUIE8XOdLtRcNzkZmMFU9JzuvTSj0j6hiWISJqorDP2osEYtRQAi4wiMmsXQOx7HOYOx/Y5kt8MjP01zC23OkQmIwTbvoOnybOq1wH/9hy9XWDOJzt4yvMT1j22SQQ88BfdJuetB92KEPD180Ui3vqPS+VCsjxIGV6tMsa2smb+AW3HJv0dIktWIWSa+gX+3BF/MS0vvkGhymUU0aUfNrZYNTNaH2h9sdtghfH28UNG2NFSWVYiBdDIOHqT54bN/2VkZsv/vp0l3/+8SLp37SiD+/eUM4cNlB74Pik+WnzBsuAgMS5nsXqo2Bvze1pArHAnkaBr5pNv5sl30LgwAokFIU0LiJkczSA5x1S3PiBMdpPEESNahmAl4iVYEXsdLCZrNu1SWplwWGTiYyMlEeMkKQoNCZYQbOIkMnQ7FcHaxbDuMrhdMrPyJD0rVxElWoUUaVGkh9YfCnmb/1FH91BR6gHJ3bsZZHOEw/IDJKgBtMiMgEYG4dckPw1ZZDjyAtwX74EkFmNelyMEm06y5rbI8O+NFtB6DT+HMNp9M14r+xvWw2nbCDT/X3bbxkePvgUQ8Pf3h0rDfmOUBltry9SrBJj4HIEV4GdspAuwoeZYCvo1lO+FGxg1LtRQRHYbAJ0EStDQDeRkMjgSIG+/AIkffLayyBSlHXQY7aLExRCQqkgcuHm2bt8jW7bvlmk/zJOI8FCVIK9DUpx075QAi0eotE+IUdoUWnKCgwMlODBAWS5UpWaG22KTLigqVpWrv56xRG1vfhCdGhLmhltjye5o3KAFyiyhQBKSlZMvGSAmtNIYjNBwI1lbIozoLSOXkLLSMGyapMmJMTU2ZtvfK3JnRR5oP6ljQ7EkNMrZu0W8QyIlPKkTMiYziMcOQadFJjwWRGaCSohXyHVsoEQEEa7AXD+DKLkcX68NDVaRQ81J68lS7L038Jq+fn6lruKnj9cINAcCmsQ0B6q6T5cQCAgIOOFnsDqTD8taElO7hbnUtccP5gZKEz8jR+Yhtf53cB0dBEGgk6Mx8kIrSki7Tio9fXBcB5APC3lBX640Eh6/4DCJH3K2HFsxS8ryMh0SGbPfyooKtcn7wiJBK0YmyEF6Rras2cCIG4OghIC4hOEtnyQmIiwUhCZcfZiozh8h0UFwQ5FU/DBnuUXb0nwKJTUmZAD0ZA0mup9oNTIjoZjEjp+qRvBnUU5aJJg3JQYWrihaggBsOnDMR6JCap5qkQARqS4rloIje6QGouKQ6HgJQPkBe1E+JLT+oVFK7Ou96RdY1vYY1hsHIVIkTLzu17BYMQnkZXCzsbl29zh3p3EIJEu8nr1Vxv2iLTHOQamPamYENIlpZoB1940jEBwcUujoKNYVMv538puZ+GtTWaV8DdfRBriOuMFxc3PY1KtsjUqIRvIS2r6bSlNPIuKs9cVe38olARdUPHKVHF89D0LdArvRLrRU0BJz9rhxkp6eJrt37jKqT9NaUZuJ1rBtUFdC94wS0dYcr8XcnF2teNbiorEel7V+wrRONB/FafxeUPcL3SGYq5kzJzjIH4QsUlmcktvHS3u4qlav2yFrdx1QLifbxg2c5CUJ7q5RQQEyBpapniB4JDHs/zDI63S4r1j3ipFzJ3pATqO8LKkoKZD89HIJCo+RkEhonRhWbWPaUFl/QXIShp0PQXCM5OzZgFw+qGBuiaqyHROx5T33RUGJIlTnYlwVzfTHYczfYTtZ6WsaX3x9xGmFgCYxp9Vyt87JBgYFOkwlW0jhJh7SlR5Mme8qCqbrKBNjmQHLyxy4jrIby7ZL8sWCgdigIrsOwKcfvg9T0UXcuDzRKBINSUiGa+ksJRKtrkDYtA2hqsYx8Qnx8re/Py1+qKw8b84c+fXXX2XH9u2Sn5fPQn7KMmPs+cZuaF30T2ldLG4ak8TYkhdudGE4LhTHcTMn8eSHLkBixz4adzg5RoSuqEpEedHboqKb7JBGpd9QeiIyMB7nBctRgETDitSnR0fp1bWD9EG0VDLcZx3axUk6svK+/ekM2QYRsG13nA8MLJIIkncxLFMXBgdLN7jVAnAg52Ru7LEBAdIHmJLEfgG9Sm0EGq0xpYUIxS4WL2RLLkbJgaryElhlEuBKRMH2ekSGOYH8JabfCLiYoiRj6wrkBcpxmEuGWBZhrp+ByHTHuNqzCKcnbigX+oAV0bPJhly4tj5UI2CNgCYx+n446Qhgc7T7wscNkIJGvvK56HHx2JzMhHUrkHzsf7C+7IKA13QpObqIKgqIjSUsubtE9RoKK0yCYd3wEHkxr6tCiUFA/KOTJDi5pxSmbKsfsYRjKiB8RX0qGdC9u9x+551y8623yrFjx+TY0aOyf99+iH8zpAS/z8zMktzcHMnPzUMF5zJFbgry8yUvL09KUGzStlQAF40ZlS+GW+NSaDRiMedKLBTJ3k5ccw9cWPx6CBFL+SB9tGr4khSRKDmxQrxeEMKKr5g0Ftl1K2T91r2SisR0xbCAGWSFbEUpYiQUx0VFhKlopq7JichXk6hIS8d28RIHiwtdZFwTXnfx4jXy8nvfytaUoyrM2poU0aoRgj4vxJxugG6oJ36vcuDgWqZr0xw63S1MNX0LXG/LYcXiPE2yxrwwTITni0R4HGdZUYFUgWQq9xLy/dRrith4SRjC6/3DoyV9469SnHbIoXuJtbYOIw/RTyDVdyCzr7VOyAlonTqE87Mn7CX2gYFBeU51og/SCDQzAprENDPAuvvGEQjw9y+1t6nxZ7TEUNDY0g4l0/qSjut/W1iKVPClUoBxNFikkeOEpSUAm1B07+ESChLjgzdsj5IXi9mgGq6M8pJCKS3IlYqyUvGNiJPAxE5SevxAHSLDjTsrK0veevNNefqZZyQ2NhYbt5906tRJfUaNHl27QNycyiAWLsOGTCEwLSDFRUWSk5Mr27dtkxdfeF5y8b0pvuW2ewMiiO4HcTCsFPgBdvHO+H44rCBct1yQlwPoazOIx1JENe0GqclRpQpY9JKRUQ23MpDGo+nZ8tubLpJ7b50qh46mSzoEvyRvdBP5wtXD8dDiQrISDjIVCgJCcqJEuLTk4UPdS1lpiUz/YaG8/vlMyUSxReskd6b1ZUCAn9wVHiZj4abhnJTww8Zywh+ZFiZeoyOudS6KYH6YX2BEaVmmVIUQdub/UY1EqKIM7qWjEhxRKsFwBdZ3LzEJoRm5NEEyNy8zsjTbaYoI4j/rkA360pBqVZ7As9YYL/UCodbUpnHtQkJDshr/y9ZHaASaHwFNYpofY32FRhCIiorOwGZLg0u9+9FM7tVMbn+7IzPfpleVVcjniAbZiY2UP3NGuBvZpT+sL2eoVPSG7sVDW4uFvPBtvqwQbiBskJXQTqjoHIsYNDCxi3JflB0/iMglBI9Ycqpwk//5p5kgO+Vy7/33Sa/evZVriQTA2nXE7wPh7uDHunXuIhIbFyuv/ec/tdYYLlYfWDdugbUCNSPqpMU3I8m40UZjc43zDVCk5loQnhRguRxkZimI0jYQGpJUWmfMLMfW1zWT1s39ZZ3s2HdIbrlyolw+eaycGRmurESq0KXFIMNvzMR4dCuVW/L0sD8SmrzsfNSX+k6+mrVUypk9WUVVGY3WlzCYNq4ODZEbYVVJghuJBMxUrqooJLrELASF1okyXLsIY6jAEAJhuTkTlqBvinxUCLRBYmAlwxow0zKjyQwixGSENVIE9xKJZ2hMvPgFoKaVrXsJ/dINGT/0XMVU8g7ssKt34rhIso/CApTkCxLj4T8S1vvi3589ohkZEZGuH2wagdaAgCYxrWEVTvMxREVHZyLMugjp8SNsN9UiPEhLSQZaCCPqGnKxG8yAwJVJ6/g26oz1hbVxonsPM4S7sH7wjdoTTdXjwSbHvDAkLoZbAnIEtSca2WlrG1P7o7KyDzL/lsEiU4F6S9w8jUgfH5k/b77sT9kv1157rYyD0DcmNgZRR7A4IOqIpKZOXzaDP5CSotxKKtGd2o4FWpEg5UKi28Fe40+Jgklq6HrqB0sHP1fCYrIFJGYBcF4GXQ4zG7Nj24revA4jo46pithfqnIFUyeOVtl942MilUDZOruvaTUx9TsUL+9DQcpX3/1W5q3eosgAs/WyKesLPv1Bxu6GNWlcUKDasE23keE29JIS3AOHYcXZB+K1HSHmx2GtOgAilgUXVxGsQZEgg/d36qCIxJ4y5swx0KjGOjEM3tuPpNAaIy8pgxC7CgQnBPliAsMijBOsD2GeGz9/lROIom2VS8YmKR7HSuxJNpxxzzl7P7IvEsIcugAxJrqurBux5d+ss/3p4zQCzYmAJjHNia7u2ykEJl0wqXpQ/wH5+Xl5dUkMzs7DU5SfQE8+pW1GZbqOuKFxY/0fBJPrYIUxf+5oEqocACKNIjr1U5l0WQSwqVFHxrXM1PlVUo46PWUFIC/YyOhCMn6NkdnDw0ImfJH23je4v5RlHpOy9EMQmZaocG5u+Hv37JV/P/ecLFywUC6acpEMGTJYIqNQwBAbpj8SzJHU2LPSbFi/QQoLCwXh8GrjZ4TOUBzvSuMebUbSROB8koaxsNDsx7zmIMJnDgjNPlhQOI06Ycs4j6HWJHOrNiCaaPMe5LZJkhGozzS4X1dplxCrMhGHhQRi/KwlaoCDSsuyERmFX3rvO9kOAa8/3Gj8lTGOGiVEngrX0+1wH7WHtcYMKTZWwPjMzc6Rj9PSZCVE0Bm4NxxR08lFUdIDWXp3IXKttpF8U2xtp3GMVSA4BRmpyqIWjOglhuBbu66UMBwlImL7nylHl86wK9xm182R9I6zYN4jRy8PgYGBWhPjys2vj202BDSJaTZodceuIBAeFn4sNycn2dRbmBsJzfOZsGokY1drDh7DPwBuAvthkp8N3csvyP2S3Zj1he/+OCYAobMx/UZKGKwvDIltuvXFICc12NRLqXeB5aWipNhwSVlcRk5hSjeLl4+yyvhBn1MGHUZ5DkKmUbCQehi6W5YvXyEbN22U3r16y7hzzpbhw4ZLYlICSEqgeuP3RoSNLwhBAEgNayOtWb26lhzwLT0RFpgOsEBYJyFUpI+uIWvrkJ0Bc2NU1iUL9t3Qzz0Q5U5FRt6FsHZ8V1ikagaxWUc1ceMnESHJYWmBXfsPy7SZARIC/Qq1MBH4INJNETYlpsVaHjqaJtkQZJv6F9OKNBTk6Xa4wkbjK60ttqJduo6+Ts+Q3+/dL7kmeWwA/H24d7oEh9RaYbhezLxcjagkh00dA91RTiYsbXQvMXqJ5QpOUAeufVAMhNvxHZB7Zi+6PYEIj+L9G9ZA2QKn7hebg0xLDMtoYIT47Ym/PK4b/0bDwsK0JsYdcPU5HkdAkxiPQ6o7dAeBwMCAVNvz+OikLqEID/qmBenW7Zn9mjlf9iHCYyFcAyQvaXBp0HTesPYFY8HmE44oEhKYgLBoI2y6KSHgSmthCD/L4S4qRVQLNRPs09S7uI4pxSLQM6BqdVByD/GD26I0/bBUMjEeE7dBE1KGea9fv142bNgg7dq1k0GDB8kZZ5whvaGZSUwkoQkAEShBfpl0oTvJJJgkfdS6hGAzM60AJC/lIE87EOV0iK4WbPwkOMQ5kG4ufOhOIjkIwrl0wbRD/zH4yp9xc6RA9la/UBkPIvID3DZfg8wcB7k0NTMmBuRIqowBo6FAsFiziXWTTG2JSQHUOuNa1u4jbvh3QwQ8BWHTcbBMWVtfzP45nrTycnn1yFGnCAzP2w+cRoI8MT9vrbUGc6JLqdFG7IoLJQ+WGUYvBTKiSTVjJiwEymrmJDHWjb9lJFUskyY2ehHXDqD9qNhBSCC1VElJ7YyaErppBE4yAprEnOQF0Jc3EAgNCztkL/kbQ1uz4JsXKyFmUzDjxkYtAcNhleUFodOZ6F9pLxox9RiJycIlGsJd1jvyplWgKcJd5duw6F1QGVkVZKT7oVbv0ljsjhNIWMiVL8hWCMZemZ8JN9MRhP/mw2oAdxjmwJaamipHEXI9f94CiYmJlh49e0gPhGT36tVLcqGFycs39DBmYw4VhheTxJBkHAbpeubgYZmblSOFFLyqSC1Dj2MKY03xLkkCSU0y3FH9IKYdHBqKT4j0ALGIxgaZDDLzW1hmzoKF5X2Qk8UgmAiqrq/65loSQyvRhqnDoTGDP7ZGkMvLGlz9of+Jx/hLHWh5SLyOQQSdAjLmbEsF6fED1sGYV761RkVdwwmKQfcSLGUFmYZ7KQRFIr2ARa3GRyW/q3uDEvtwXI8fT6Yg4FWYkTqb87CxqnFNoV/Lj4+Pr/fS4SxW+jiNgCcR0CTGk2jqvtxGIDEpcZvto960xByCgLI6sOm3KrcBvnkzWd130GBQTErPQ6M9qw0ZGxRKBVBoGRTXvgnaF6POD91RFdC7lCBEulyJPKnBoTvJcCl5vNGqg43QD5mDfcNipTwvXcozjkhVcb7aKM0aS9UgZWnQgDCPzJLFS2CN8VfFEyG6riUxHF4MazJhrHQtkbA8CwLzxXE7ASv4nbJM2BCGApY+wLpugLXlM0lHdJCP9IU7aTz0OVfHx0oXhCwPwLX/ERslP2OtPkMl6j3QpFDibU2KTJyMXEI1Qq1NO2z+jBhKxZgzLATVJFDMV8P+BsMKxJ+Z91xd2S038SoVgeRso8vJi9eH5YdCW+X0oTGMJNcBWarXt8UiVZSbBfdSmeFeCjRKCxh91P0L4XwZSUXrkvMjbXxGvAUZNVbAfEd2Dse9UoAQa4cJKhu/gj5CI+A5BBp9fnvuUronjYBjBOLi4lLsRcfw2X0YVhMKQrl5OvFOa/cifBgXorMP4XqYCxJjlAtofEVoHfKBtSICWXejew/FphLinvbF8kZr5HeBWBdWF4p2lY5GcRcPWF0anQ4mDfLE/CQBMe3ELyJWKhHuSwGwQWb45u1dS2jYnao3VA2CVeeN3EuClQuM1g4v2QMX0ixYYJrSSGpWIc8KPzOQ1+bjPr2kO4gMrT1XhgXLaFhllmDdlsBtw7wztM6ZUVG8J7iZM1pqPD4d8D0tIzsQ9bQTu/sPIC3UvJhEZj0IQjaul4DjaOljM/O70AXGn4QCI7rBnCUyORhTEXQ88SAxKTCmKeOQMv24HqVGrJkDKDcN0UuwyARHRkkl3E22Nz9XoAvmQNG7R0mM+lthlFb9FaUlBnqYo2eOGuXun2JTbhN9rkagHgKaxOibolUgEB0dnUZrQG3ek9pRMTrJSHjH5GPuPDkNN4Ig6qhYZhaVqcgX21BeeyCQYPgj0ie2/yhk3+2h8q646j5SIdIkA7C0MDzaSE5nZL91X+/S1CWjiQCbOiKr/GPbq0R5lbnpUpZFMoMXbLqgLKTKUdi1yf9IYo6AFDgjfnV21JthnVmIpHq94V6iy4euEgqJr0dm2qkoA0ACsxaunldy85Xom1FGT6L6NgkMKQjH9G1arvz3WKr8rmN7uQRRS6x1xXXg79Jx/icF1NCIQHmk+qcFpRfIag+Ec3fC1xBYrWjNyXNy0GXoJB3EKVjl2FH+QHWmbQ4YJ7tTFjnmmCnMonupWErzMgwrnaWRtATi371UxmGjTIKnGq9CK1Yp7gMjx/GJxvnExcdv99S1dD8agaYioElMUxHU53sEgS5du+6Dr70A6eXDrDvk22YmNghmy+VD251GzcZqaF/oRuIDv9Fe1Ns4QnDbdZG4AaMlAGLLGupyXHAvGD4j6l1KpbQIafyhQWF+F26c9moQuTOvJp9jcVFQF+MPV5kfct1UKMvMUalC8UI1XycsRBlwC1lHKTV5XOggHa4j631ZFSPEeIOwgL0QikyNjHJnWTbzrtjM+Xu6lfjZjEzDOxGy/eLBI/LXnt1kFTRVByHippuHrpIP8xH9hfuK1aCjQYJoydmPa24r95XJcGt1RNTSQ8nt5YPUNNmHfpzhCPnY+INtcwE0erM1hJYheC7OzpByhNlb3/4cTwzMPca8PYG4FVHBt3TDkRjZ5ojheCKjIvd59oq6N42A+whoEuM+dvpMDyIw9dJLi/r37oOX2XLUEjzx5CfpyMHbNrUMNNU7tZtYjUtZYfDgXQkSw82rwYrTOFbVPYKmIqrbQJX7xYcZVZ12CVjyu+ANtoIuI1hdyuAWqMYmrxpdME3a1DwIuHVXFjLjZbHM0M3EKsxlWSAzEBxbW2ZsR8DpMAOuJxtdO3Ql0f3D9TLciNTeCKKVqmUjLFk/oHo07wsSGbqEmJCuhhY2HE3L0ArkdWHbg5Dtw4h06o2suSnlPN64hRgpNQVWnUnIE9MJ681oq0AQNl6H0VNb0P9WnOfnYvhynXBnRVib6CZkMckKFOlkBmarvnhPd4fVKNbj5QYMqw6tVfbovooi69jJfi0ET94Eui+NgJMIaBLjJFD6sOZHICIyYgcSqnWzvVIJHqosKgiHjsuNGyCtOLvwlt1QRlp2TFeRPxLWxfYbLWEde6jjnXYf0SqAon8kL8zvQt0L/10r1nV55CfhBJPMMPFdLDQz0GPQMlOefQyaDJACB2SFbj5PtglRkXJBdJQirkdg3TiEj1lQcheSEKaBvFDjYoZeMxPLMeim+kEIzK33EwiMd8F6YrYjcD0lBAbX7snUQw1E1uA/I+MvI3tIavghYfYBdSrAffDK4SPyFfLEuNLKMF5kazTWnH0q0RBsPxarnCt91R5LVxGqYeNmqv0Rx8q5j8B86RY1Ewi61b/NSUo7hnU+CH2PmXnY+hCGtiNiTbuTPAG27sMjCGgS4xEYdSeeQCAxMWn1kUOHp6gHv6XxocqyA4dQpGZU3ZI+Tl2S+wjzXeRbhJ12T6L7CJ/g+I5G9BGSixm5XxqxMKjNiftLBVxGBUqsW1lWrMSwhsuoiW/hTs2wGQ4yyQyikhSZYY4ZlDFgTSbDlITaRBYBLK8eBZcGLSJNcSmx1yRsypNiouQe5KxhuYCvoFtZjDB4ZvTNBkGgPoZ3Bq0opkWNK0RCQ7EvMf8yLV3eOFo3hQktKyqZnUWqQmsLLRh0T/JHJbi/smEty2CxSVhxpmdmyncZrmfVL8c9ozINW6w9nFOT7wEWYbSxhpGoseAjK2w3dou6endwzAwRZ5FO27uXhTRRoiI9MTExzdV+9fEageZCQJOY5kJW9+syAklJSVvsEQduNMdh1XDXa6FCctXWa6+BcMCdENGpj8QheZ0Po48ay/1iebOmiZ9alxN6F5O8eNYy4TKQHjvBEACzqKRfeCwy/x4xXEskhlYkhonrSCqaQmKYN2YgcsWEgTjRApKMEOjzo6OhTwlRkUSHQTJ2gGRsgFVlJ77PA6khcSKpoRZmH0jMwtxc+SMy7OZZZdilhob5Z+apn50Q3JrRPItwzttHU2UbXEeZ6L+I95mb+CkiZ3OfMazd/WZYAqvLiup0wb8DCnoTQWTcHaujMdH6chR4F9n5YyGJiYmN3TN+4gTXGZ77IOgzNQINIqBJjL5BWg0C/fr33/Ljjz/WGw/fsA/CXcA06K5GKPFZTPFmFB741FPYqnqpgYnq1lfiBp1llA5ohMCQZFXAvK9CpJnfhXoXxVlsijG2GlQ9MBAQF4p/vUAwaihORpdKg4L/KY8J/ttUmxOtbbMRps0PGwnB2IhMeaBDOzkfIcZDUCX6YvycRQmZL2Ye3EVzWIxR5YHxkn342ZEabymyWj+O7ZoEJI1Dcrsd+cWqT2OljPDh41i7p1IOynpYfDzRGJJdRFxI/HgtWOK8WUbA3eQAtOggQqkKoeK10U4KG8MdRuLHqD1PtyP4WzND0q37JolBNXPtSvI04Lq/JiGgSUyT4NMnexKBrl27pgQGBKZXVlbE1xH34iJZICAMtWaorSuZNxSJwYaSDPfEdugp6rMYaAqgX6HFwRn3URkijfLT4a5Qm6XFd+BJEFppX7TG+PgHojSCsaHS5UABKMlLGLANwrqwzpWnGq06S3LzVN6YcyIjYZWJlI6wzoSzajaIwkSIWsPDQuQ/uQVKu3EUG284QqlvQbmEfcglQ5fTcGT97RMRKe8hvLoAZMc6rJ52mXycw0rUnmr+IBW5ShCLRiID0ucNzNxv0FnB2ldTeSJzMHunK2wQ9T8eJjAkd9TXHEIUl6Pq1Z07d17v/nz0mRoBzyOgSYznMdU9uonApAsvqB4z4sydR44eiWd9FrNxo6SPfj8erszG6orbgiSGifU7YPNj1MsJh4LRO4sdFsNNUowcKSEJnRq0xPAh780CfNw82qrexZ21MTfk4FAUsspVdoUsuByoUaHANBxrEg4i40lCYA5TWWiys9WHlg6SE1ofroOFpVdcrBoL7w9ml52B8gQDY2JkCFgNLQmHQSj+g0y/rIllTWBUdBI+HUEE+sDVdNCF8gKO4AvANTsgLPuAInKGbkiRGERFuRxSZ16Eol5Gt1EgbrnfSC56AG9qYjxHGS1/C/hCS9IRO9F4ZuHHrl27aUuMO39D+pxmQ0CTmGaDVnfsDgKJ7RLXHDp86Gzbc/kuSpfSGFdjrBVT8ZJu0BAE4Ss33jqKFeoYUGm44NBuVSm4oaaiQrApMYOvqnHUeMYZdyBonecwk29QiJoz8cvDZkfBdCgYBAtBsuZRSjOPnISGdiCzlWIXtyalyxBGvxwfszI5rS0kOLaqFP6MOpv1cEHdhlwwQ1HNOgWh2PwcRc0kZvt11U3THlaiKHwOFpYauVV4n/kjTBxVwN1u6KMKVkIvq0kylqp/gK/KZFzuYU8SLVoZwPiYpRyH7bhREDSvV+9eOkeM2wuqT2wOBDSJaQ5UdZ9uI9Cte4+Va1avqXO+sSdAvIlNp7Q6UL2Nu/IWSrN7MpKdxeHtlQnPbENH+ZZbhMib8oIcCQiPUbli7DYlckUkDohMJTY6D0cWu41ZS53oExRuWBdgGWCY8zF8ZSFIulEirCxnLTGeWH8QSezu1vu4+TAz93xa4HjfsNK1qVNhVmhaj3bgXvp9RrYaf6egYOkUEiojMA+vmiopxtrmQ+R7HBaa4/ieBS2Z0C8X904F7o1K5qxh7Sv2bRE4Dw8LlRzcR8wmrPRBGIRvCPI2ogK1KYZ2DRdYDZHluao4r5Yr864MU5mFoU1yrTOnjua46Zajq9BeZFJMTMz2Cy688KhTnemDNAIthIAmMS0EtL6McwggB8VWuJLgMaqBDvOEzYTv/4eULqYGSe9ci/6heiUGol1aY1KwEdVrdFEgRLrg8F4J6Bfb4EBZydkPOgeWEDi9GqKBIFKlZcG7pFJtdCnY6M+A9YGrQWLQEo0upZsS4+VsVNr+pKi0jpXC+voUobJoZWBgoHTp0kXiE+IlIz1dDh48JGUIo6a7klad/eWVIMd01xhuxxCQhHgQnQhobhJBbkbj+yBODf154UOFC0kxiU0ZXWr4kMgMDQ+T72AFonXEn6YT9OMHQuyupleVHUBSv+py2CAt2NKN2gEksoNyqXoebZKkrcCC5IwvCrZ4durcecXy1as8f2Hdo0agCQhoEtME8PSpnkfg9jvv2InMvfuKiop6WpMY8pYMiGkZ/pno6+3yQ9wPG8twRHQsgW7CbkP/RakpEtm1v1Hk0RJKbO9YX27mluyunkeglfZIGRAy+noHhYkXihHSmbYGlopLkKKf4dVRLWCJSUKU0e87tZcOYWHyRkGJSoBHrYuytjCEmhHh1KJgPChSKEOHDZVJkyZK7969JQSh2rinZNu27TJt2jTZumWrcvn4WmXkJS9ggj2Kcyl7Musw8d5DbJYqeUCROAkb/x2I8gdBEDzzZ9+VVckmuKJUUVGc7BMSIT7BsMS4Kb5lN8wPQ2vMCZOfl/SBBSoc43DFEunMHcXr0T24HxYnM1mf9XnEuG+/vqud6UsfoxFoSQQ0iWlJtPW1nEIA+WKW79mzp6f1wXzIMqx3B94Uh4KMuNr45toLG0AcNq00vFHb6iQYXl2WmynFGUclvGMvh1pM7km+sEZ4wQ1Ro8KrW8YC4ep8m+V4WqHCoqQi+7jCbwtIRBYjxkBg4oBtc7ZeKA/w584dpQjYv5BbhLT4VcpyQvISGxsrY8aMkeycbPXv9kiWN2r0KBk4cKCyxFRZ3EnQdMi5554jAwb0k2lffyPTp38vhSg26QcLnUmYzZxCZtg8iQ3XnIHlpbAEMgC81ghiEYqbP1CJ7iwg0ArDiC63XUkg0ZUlIDEqjN0QpFMHMwh6mKYmFrS3TiRqx2GlZOZjW0MnrVrAsbr/gAE6Mqk5b3Ldt1sIaBLjFmz6pOZEYPCQIT/v3LnzVuoX6jYv2Y6Ns6wmSG2irljU+eZKAtMPm0AqCkGaOUOs+6/GBlhweLeEtUflA4fkBNWfYdL3gVWitiZSc4LRmvqmlwQRSl4oS+ANYfMRuJO2wfqQDBITj581Vzs7MkIe7tRBtmARv8hBJXCwChIYbq7BqFx9xx23y4WTL1RuIloM/CC8pruIhAa1uOoMi4QmEnln7rjzDunfv798+tlnsnPHTkV0eL/ZlqZQhhVcR+mkSFJggVNExaKb8rJzDn9dVcqwfUsYvqvA0LoEfKtg8TJJEe9fFqnsynm5ad1paBi8zh6QmHxmm7Y5kJgiP8ymyy6/fI+rU9HHawSaGwFNYpobYd2/ywgMGDRw/bfffIO9qgaZ4U88UinIZYTScXyY98XVfDH+6OAMhNUuKSlX5nhb8SLDrUsyUw2Bb2SsQ4GvN8Wh0MWwPpI907vLE24zJ4DABQQjq3EwCFwZyITIUriUJiLTbgIsMQxh93TukqvjY+WO5HbyU0mF/FRkVJNWBNZCVm6+5RaZOHGiIjQkLqreFX6Haui1qBqiXv7T+B3JDbVNY88aKz179ZQF8xfK4sWL5DDqJZUisZx1viC6FUOQayY2uatEdeoqARTroo/i/FzJSNkj2UcOIvFhPiLucSeY2XlBdCph1avAxy86wbXq52rUiJhDQsUqlLAwQ/mph+kNixGTNjaHKwlVPZARuULpYWyLpJLgIT/MkhWrtTepzfypnkYD1STmNFrstjJVbEz7hg85Y1dGRsYga2sMSUcuNqtdsAB0wgPdlXwx6uUZD+gBcEW1BwEiGaqXZRY7XSU2j8JjB0Bi4hqAC7oIlcSsqXlq28qKWMZJMkArVEikVObnKGJAXcwxrEeMpfSAqlHkgRYCovjb9olydmyMfICw5RUQzZK8mIirWlfI8TJo0CCEvfvWkhZ7CQuDcFxoeLjSMRVDF1NSXFRrpUHEjVxz7dVywYWTIPzNkM2bN8u7776nrDokEwPOnyK9xoyX4KgYJPuDG9FCqhVRgvA2L+2YpKxdLntX/yolednKSsfGzM8lR/cqHZEvXHCuamMqkRFaEP1FEqPy2uC6AyA29nTBR46VmKbj72qbEjjXd4+S8J0xdNic/339tQdWVnehEfAsAqfZU9iz4Onemg+BTl06/8Q3QOvGxyvfGBlBwaytrqpR2BuThJ0BIuOwDhM2p6K0g8gdg8gXhwntIAgFieHD3TWnVvPh1XI9g8CFRoLM+CjtxAG8va8GkWGYtavr4WjM7WEte7prJxkTHyevo1zAMljOSGCs+yf2OTk58v7770smCjZaJ0es7ZdEB4LexKR2EgFrShiITEJSkiR37iKRUdEgHD6KzPBDIXDvPr1lAHQ07NsMyW7XZ5BEtu+ESGlflXSuimHP+PB7X7jQ4jp1k+GX3yjn3vGwJPbsj99RYEwVNKOLiqX4MFxVjGRzRTsFAlRZCPWNhQ/yXmWWXop6PcQR60DPdWTUHks42DpwiUNQUFAmRNLaDNNyf2T6Si4goEmMC2DpQ1sOgWHDhs00SELdxr2A4l57VXadHd1w1OEJRtd2zfK4ZmlOhpRCvOpo4+Hewk3Nh2/dnjE8ODv0VnAcIm8QdePFCC3MnWnq56PSdAA22WB8mtrOigyXV3t2Fz+Qj2ey82U3rDz+SjBbo4hDtVVtJBIX5hT68n9fKXeStRWBm68/RL1x8QnQLxnWkbTjx2XZsmWyd88eiYYYuH2HZEVmuI4kzCQzFSqJodGUHgY/53XtFibFNUhaeO2knn3lnN88KF2HjTFcaorIwPUDXUvJ4V11QqUbxMgSWs0kd+b9B0WOdIG1KYFReU0F2M75vIU3QztUZufFgHNL7thxyXnnn5/dDJfWXWoEmoxA0586TR6C7kAjUB+BkSNHrsMb4BHbzYNvioyg4ObmYroYdRG+1XbHptbVgTuKG2E16gMVHT/kmJ9gg/JGeK0PNsnTj8Ng7rBA0BqjQomB14Yy6EiAaY8gFjt0r8VCjPv7ju3lUVhgfsUivZlbiKy60LlwzUAkmHqla9/BEpfcRf3bbHQ3zpw5E+RkeR1rDAlwZFQUrCVG1NT2bdvkzttuk5tvuEFuuPZa+fTjj8Uf0Uqx8fGS1L69REDsS1JEN5IK10ZTOYFwft2UevZYAMgMLFLBkdEy6prbpOOAoYZFRnUCaw/qbVXkpOEfztiq4NJEgjsKe00Sw3uyn8o4bbiWPNm4AeQhdI+uJHubAcnd4MGDZ3nymrovjYAnEdAkxpNo6r48hsC5559f3rlL5zn2XErl2DzXoZgjtjaXr0frC/NsjII1xl6EktGhF1xKh4wIEwduAP7Y19dI9HbaNeZJoc4DGzQfIBnY6LaAVDKKyNUWCeJwOWogvdyrm/SDPoX5X75DwUZqa3zwYcRYBMjB6KnXyri7/iAjrrpVgiOiaokMiUZhYaF88sknkpqaqoiIssJAvxKCLLxsvIc+/OADZYUpRXHIQ4cOyTtvvSXpSH7HFkCLTUKCxMPt5E3Sgbmw+YA4+AaCmDnJHGixCYLbiu6lWIiAacVRJzPLMXIPOdUYWg1huWkn5P0aivt1AAs+OjsQpy5kHMQXgb2YLytX22ayphUGLxIlI0edudSFLvWhGoEWRUCTmBaFW1/MFQSGDh32DR+kto0PXoZaZzIs1pUOjS1FtaFInBaFjuyZ5xlpUlGYK2U56Q51MXw79g0IVFEpp10jwUDSOyV0xff0nCxHEsG+qEEU6qRLqR025RuQefcVkJerO7STJViI5xA+TVehsp1w3dFxt/5nyHl3PiI9J14KdWuAxHfrIwMmTVV6FlMgQmvJ7l27Zfp302u1LHQ7VVsSFpLE5EI/Q8Kjyg6A6JSAzJQhEsm6sR9VF8visqIVhzmBnGYxOJIWmIiE9pLYo5+y4NTAquQHkbhfeHTjOWNwT1GLpUS9FnrM/EYdIURv70aCx8buS9657H8tXghY+NF2MyBu7Tt0WHHlVVftaqwv/XuNwMlCQJOYk4W8vm6jCIwaM3pFaEjIcVsiw4dvKhKPbQWRYVivq43EJdnPqEFjP327UbemMPWAw/BYFerL3ChmWK2rg2jjx3uBwJkZabkG+/E2H4qaUn2QwddRCweBOBual7926Siv9e4h45ISQV685JncApmLEgK0sNF9ROFseHiEjLnsBhl720MS1b03iAVztWDlcEyvsROk0+ARsLBYXDbc8jGGn3+eJZs2bVIuIIZYl1mqU/uDsF52xRUSHR2topNoqbloyhRJQlI820arDokHiQvLS5CouiKmJbnKOpwihzZRB+uFMg2BEpjQsTZUusFlJ4kpzod+puSEKwnjGIzxh7pxnzd2i5nV4Tcg14/dvyLAMHjwoB8a60f/XiNwMhHQIdYnE3197QYRmHLxxXkXTJgwf/u27Tdai3z58C3DW/YqhN2Oga6BlhknLf7qejw2AJvCMJy7svREPhHrwfCYksxjCLkuEt+g0PplCGiN4Js7tDFKQ9EMm0yrvT0Yau0Fi0Z4rJTnZihrWC7e2o9j878AOpQ1+YVq6AwLZjmCnkhINwy1hfqFhUgIMN8DAvphcbnSNbEytUrjzzWkVQf/7oQonyFTrpZYiGUpkrVOKsi8Lb7Y1AdOulQyD+6Xgsw0ZZWhhSUvL0+++3a69OzZSwIQgVZcVCghoYZLadIFF8hb77wjCxYsQG6YXnLpZZfZjWgqLi5WFhzvGm+4koKh/1FlJJ1bCuqpgMOOJXMkPyNNuaMCYtspq5VTmXsx18p86GdJoiylBVghnFWrzfw3zg3EuaNoRNwJyxddSbb6MpWHx9+vYsxZZ81/+dVXnetQH6UROAkIaBJzEkDXl3QegdGjx3xGEmN7BvUsW8oqJRWbRieY20+8kzvXN51U/ZF3g6GrGXZCSxlZwqR3pXmZEsoEZ/bqRsIKQyJTyaRkp506BlYT6GJYEJKWAwa8z0WU0sPI60KLSjHISDeQl6RAVPyGJuQw1mkO3BY7IdhlEU/yAuY8MROrcfP3A+Hpd9Z46T/5KvGH0LY2XNlmSamTiUVoc//xU2TlVx/W/pZuohUrVsjKlStl/PjzhISkEhYZuoVIcs4bP159GmpFKEOgxOTkLUye54KljVFOR7ZvkgMbVio3o09gqCIxzpEgCsrLpIquJAshppWwHaqvd8H97ekkgrS8VKJ/vgiU4SsjwKwbrZ8dO3VcC1fSduf+ovRRGoGTg4B2J50c3PVVnUTgrHFnL0HxvsO2UUq8cbNAPtbiIeyWSwkP7kRsDv2Qe8PeBqGilCrLpST9qMM9iNl6/fC27nrGGicn74nDMA+V78bTliJGaMFV4heGSs3AkmRkG8J0XysohoUmQvwiImQzrFTvweLyHNxFb+cVyWrkeymkRgTzouXF3DdJYEKRp2X0FTfJ4CtuRp8RhvWlAT8Oz+k2/Cxp17u/Ev+ycc0YXfTjDz9Ifn6BsooUwhrjSispBSFT4dHgMCC49pK/2euP2Z5LkQ9m24IZUo5rMuldANxIDEV3yh8F0sOCj4YrybgCeVQfEO1I9O3p0GpaXmiB2QSXrL0oP5KYM0eN+tIV7PSxGoGTgYAmMScDdX1NpxE497zzSnv17v2tbZSS+ZBfBX9+AR64rt7IhksJAl+4HbgB23cYeElx5lH1hmy/wRoBHYizG53Tk/bUgSrnCLQm2an4is3R041uoKh4JL4DLaGLCf2vA6n8JL9IpiHCaD50LrvhriiwiEZpeaknHoX+JSo2Xs6+4bfS47yLVIZbpX1ppNHtFABX0YCJUyUABMjUTdEaw0rVS5cuU0LeogKQGTvicEfdm2SZXwNhgVMh2k6IYkhaDm5cJUdhiSGhYQFIYuPMuWosGGMFrH7G3A0WE4gvTMzoDklvDD9eYw0sY+lw7dmK44kXkv+VTZg48dvG+9FHaAROLgKuPvtP7mj11U9LBCZMmPgp3QH1csao8NAq2YyHsbs5YwbAEsMsvvYS39GCQZdSWV6WQ7cCC0GqVPNObHQtu3iGOLkEGWML92+V8vQjno+koj4lNEpF35jmKlpY6JpgOUh+bxIXe8JRWkpiEclz9k33StKgEUpbpAotOtnobkrs0Ve6nDGqlviY1pgZM2aojL4VsA6VwK3kbDNEvUYLDA0HZgjZbuRkupzyM47L9kWzVVg1XWzKCkNXlDP3hcpNhPw0iIirjUrCd+1gKezpRnmNxubKhz6J/3IIn+3NjS8MvXr3+g4kBmZI3TQCrRsBTWJa9/ro0QGB+x68f318QsJyW2sMb16Ghi7F2z8zx7p6M6syBAhdHcIcHPY2G0vIawmsMfYaT/EGiSGRaWyja/GFZJg4CFgFCBgJRg3cFIHItOtxtxKsDobbBFFJlpDm+nOlxqQuQiQgkTFxMuaGOyS29wAj0siZDd+6c7q0QCB7nz1JQqJOFOykNQY6KlmzZo2yxhTk59vNuGtvTZhHho1kKCg8Ev3jrmpgXMpLh//sXrZAco4cUOUY/KMSXauXhPOZEE9ZyyxuP96PdHVGsASCh28eCql3gPjvayBh5FlnjzshNvLw9XV3GgFPIuDqc9+T19Z9aQScRgAZfN92lDNmPR7IB2GRcedm5h40OgghrNgs7NoAsJmUZB6H7gIajXq6EkbpQMAJl1Kra4x0IYFR+g7mHzFITHAE85V4cFsEcWH0TXByL1S4hv7DEgatrsEPLSuwaFE/YzauI2sajbryZontNQjZbk+k+ncVR1pzotolS8/R59YSFa4JCe/cOfNUIrwy6Fxsc8LQSoMCo/VcTTzeaFhXhFc3RvpIorIP7ZM9yxepsxjJFhDf3rVpMMEdXEkKKzTD1eklA0FiSDg8uFrKUYXy8LIA+qQSLo3NSFUJhaSkTQ///pF5rk1CH60RODkIuPPcPzkj1Vc9rRFAiOwPgYGB6fYEvkxP/wtzgliJRZ0FixEgPfDm3t2R2Z5i0dxMqSwptK99YQI1hPy6nq3G2RG6cRw3PmziVerNnv/Hvy06k5CoBPEPZsi4B7dGbMJ+ETES3KW/+MUg6y2y05K08KtfdKKEdO4Hl1OsIjW8rg+sRIPPv1iSBo9UdYma1gwi2X3k2Ugyl1Qr8qX7cevWrbJu3Tq1NoXQxpjtm2nTVPmB66+5Rl564QUptSS949h4HLmqN8bIrL8NkRhel9FPWxf+LEXZmSrU2z8+GWQO2XmdxZf1lVA5vbIgt05UUhxdSf6ej0oiKaIFZrMDQS/J36jRo99u2proszUCLYeAJjEth7W+UhMQmDzlovyBgwZ9bNa1se6KmxQrHR9FiWtXM/iqMgQQ1JyJMgT2BJQkABUlBUoXY29D47Up7m3sjb0JU3fr1JqqChAZWjhMegUio9wvPhIWm4Qkbk5GzTh7dfTtGxIhIZ36SGjPM/AZqr6GdO2vkuJVMP8JGklLZ1SG7nnuBZZQ5qaTKVpjwhPaSfczz6mdLt1IDLGePWuOFMNFxJwxtDKwhtLf//pXWYVQ7M1IjPefl1+WObOM0kBMkFdQAEsMhkQXIWshNWQG8WLo+JZ1cnDTKuV28oWY1z8myXkCY8G2Ij/HEI+briT8vA9IdTzWynmFkHMLVYV1WoLsyiT+9gS94eHhWZMvumiac73pozQCJx8BTWJO/hroETiJALKsvu/v71dpT+B7FOGiK5h51A1rDLWcwxEFEmdJMFZnOMqqUSklGUfsbmh84aYlxl7FbSen1QyHGWPmh43p7xkxY+o76P4Ki0lQlbidy2Hi5BAtrisWiPSGK4Zf2X9Z2kGpRlVm0pUQRPz0Q34XEhtXRLyNjYD3RLfhYyUCrhyjZhHWBSRg48aNsmf3HkUsiuEqSj12TLKzslS9JGbyZUj2gQMH1PH8vqDQsNiw3EAQajQ5Kv7IGkulBXkIqZ4JkluiLE+1Yl6nHUCGhawyn26/E3SFgmjejyoBYGMTd+H3XO3D+DtZCsJvTwhPK0zffv0+n3jBJAqpdNMItAkENIlpE8ukB0kEbrvj9l2dOneZaa8oJB/2C/GGmYk3TFdvam557WG+H47EbHxTrddAZEqy0x2EWhviUoYGe3bLaeKam5oUdmMRILMQodFqJAAupRBGFXk6f4zq3hTyekl5ZqqUZx1X1yGp6jpomMR2RybeJruR6uJDQhQKoXC3kWdZrDFYF4p64R6aPWeOinzKz89DArdO0rFzZ1UIkqQlBkUnhw4bpjorQkmCIhAdQuIXFCyByFfj0C2Eg/YsXyxp+3aqopH+SGrH5H9OZeY1h47rVJcWKlFvbYI7/C4B5KuXyl/UxHvA6nTa49jdIhAYJne09zcC0lc29bLL/uu5q+qeNALNj4Crz/vmH5G+gkagAQQmXTDpDXsCX4bypsDXv4zJ79xQqDAF+8hAuBCoUbC5PkOtK5BJtaIwX1k0bBs3Mb65e1Rn0qS7gGJe60Rt2NB9aS1iuPCJnZEVmlHdx7K9NemC9U9mgjZszqWp+5W1gdE2gSAGnYecaRA+ZzUjzg6Lehsc22XomXCXJdapcr1m9Ro5cPCgCrdOiI+Xf/zznzLxwgtl7Nlny9P/+IeMHjNGXaW4qFgVhiQLUll+Yamxt6a0YOWkHpZdy+Ypa5IPCGFALMS8rpIOECFGj9UoYbPh9iNxYYK7GLinGs+W4yw4RrXqY7C0LIN2zB5vJclDWPX0G268YZvzveojNQInHwFNYk7+GugRuIDAo48/Pq9Dcod64dbmBjCvuEwysGm6qo2hwLc33n67QUxprygko3tKc9NrN5s6Q2aEEkhC/VgPFybm4UMZ6mtdnJLujnop9F3ddF0YYw30JSUgMEy2p6wwcJfEI4ootmtPaFM8uT2fGBTdSBGJHaTrsNGWIo6GSyk9PV1++eVXRUhYzfqcc8+Vjz/9VL78+mu56uqra12BDPPm2MxEd36MTrLFiDldsOFvnT9D8tJSVdmJwMROEDGz8KULgLIf6GAqIBq3ztDrjycyE9wx144LvTW+MuhsAf42VJ0km6OV2Bo4XTx16huNd6SP0Ai0LgQ0iWld66FH4wQCEyZOeoXWGNu3ZFpjWE35V5jMXb2xlcAX1oMRSuBrs4FwE8bmVopih9yMbcmKKe5tTZl7SVgM0mJshWpszeE6srdetDAAK1XM0GK58oKJIQEkxi8sstnJXuczzkTemBhlJTHX5Ndff5Ws7GyVj4ZEhrlkqImxbhT1ltJSAczCouMsFazr2uVYH+nojk2Ssn6Fuk+Y6M8vEpl5XUjSZ1wTYeCw7lWhwKh1rSS6kvp72JXEu+AIXEgL8XdhXLluo3u2S9euP993//1Lnfjz04doBFoVAq4+61vV4PVgTk8Enn7m79OQy2KVrVuJD2daUWajEGGavaKOjcJVg8rWfqhVYz83B0lMNU3/duKpfSBiNVxNHn1/bnTEDg/gWFgOwNK8VXmEFvpzVyn0TcJn2bKxOafs2ia75v+IzLT5KvqnOcZDa0xkUrJ0HDisNgcMrQz79+2XFcuXK4tDAbQx9qLcMjLSVSQTiU8A6j/ZWq7oNizOy5bNc36QiuIilRcnMKGTyurrcgMZJkYw69TSCtKlvoxKYsFHlzu0f4J5q7I4ZyosSHYtlLDEXHLJJS966JK6G41AiyLQQk+1Fp2TvthpgAAiKP5tr54SrTGHYDKnyNdVwwMJUHuVM8avvkuJ1gVsvpV4c7a1uJC2UNzLTa5VcBhsSgwNtx4n9S+GiamZSZayWsFKBrJnzfVI8DIz02XZt5/Koneel0Orf0UCvlKQGRAAVxeqgftbhZGjz67Dx6BsgBEBZSa/W7RosRL6MrcLayrZtvS0dKWb4TqGMimg7bjw791IapcOMa8PCGJAXAfxQVi5S2JeXpSuJOSGUWHnlmtwVXjvnoHs0Siw4bHbiFqYvbBOLoIryV4KAWZO7tyly88PPfLwwtPgsaGneAoioEnMKbiop8OU/v6Pf3yXmJS40m5hSOwI8/DmeRAPb4apOtu4kRhF90BIbLYRWg2Y8K4sB2/PthYNRv+QxEAX08wUwdmpqM3RC5u54XJj9tlg+8n6nO/R+SMdYM5oIVoYDu/dIQs/fl1+ef8VObpxtXjBemJYZlxYrIaIDPqL79JTErr3qRX40n20Y/sOlQCP1pj8PLhyLKHYZleFCK/mz3zhZmLeGWtGSmKUeWi/7FyC+khwLfqGRhhiXndWnIQ4H8Uey1lY1JgzVUJJGFdvJl10HulGjyQxn4lCnGkUINsczXuD5PKyyy//T6Md6QM0Aq0UAU1iWunC6GE1jsDFl1zyNx5lTxvDvDE/FZXZFek23LOXEvhGYEOpt5lgIyhTSdtsqQo3AyZIc1VO3Pgc3T5CZRI2yiFwo/JF9twWER5zYwSh88Emb6+pMg0gLIxWSkGiuEUfvSbLPn5N0qAzUcUTGQbeRDKjhKogIhT4UnhL65OqaI0Q6nlz50k5rC0VIBCFBfm1Q2ThxyNHjijSw0izABR/NO8rVQi0pBhupO+lMDsL+W9Y4BFuJCY5dNWyRUtVJa5PQa/VfcRuBjAqCbW8PBVaTcvOVmTmZcTeCcfiiVWhS6179+4//O73j8x1+z7TJ2oETjICmsSc5AXQl3cfgaf++tfZHTp0mGXPGkPT+WK4lLaV0xrj/Bs+88R0AIFJVptJfbJSmpNem0TOeuTc6Hz9GbLcipqfUa+IkUo+AS1b34muFt8wuGRUJFJ9+5RJZspBJnatXS7z3nlBVn72lmTs3qowbKplpgaaqHa9+ktMx6610VC0wKxZs1b27dsHqxm0MbTGYCNnY86YgwcOKuF2SEQkEt1F1ibjo8vrwLrlcnjTakWG/KPia8souL7ahqC3sgQEymLRMy2AFJV7KiqJD3YWR/2usETy8dXefYm5FF1+5ZXPuz4HfYZGoPUgoElM61kLPRI3ELj8yiuetpvLA33lw3LyLR7iBfjq7I1Od0cYhAQ98AZf79FPl1JxvqUmUf1tgW//TbUiuAGBw1NUYUoLgVMi2pZiWLR8QPQa3Lmv+MclYwjUCtmXqnJcJCzl0MfsXPWrLPjvi7L84zfkuJVlxh03E0OlA1GFusvQUYaA2GKNyc3NlUULFyleVQ7iQheSSWJyEL3ExorY/sGsf0QCiAKPxw7Klnk/gvBUGDlhULXbwNUN5yFwKM9Og//ohJ2P37UDqeoNS4y98H5n7wne45QY04XKApLMzMviqLTI2DaWWBg8ZPDn99x37zJn+9fHaQRaIwLOPttb49j1mDQC8sgf/rCyX79+H1OsadtY7G4dShHQnG7vQe4IPj7ze0KbYJv2XRX8Q/r8crxJ2ya9M8W9zRFx4+4y0wJDga9q3HTd2HPdvbYiDchNE9yxlwSjnpIhgMUAGiAz1J2UIOpn58rFsvDdl2TZJ29I6tb1cL8gqgak0l6iwQbHh+t1HDBUQqJjayOVuIbLli1XriPWkaI1hi0t7bikpiLvC0hLeEy8yvvDYxmNtgXRSLnHjypCQx0MSya47EZSa4AEdhT0FlDQe+LRS4vfAETFRSPBnbNRSYqwYEn9MUazeEQOyPpu6MA2lVXK3JJS+baoRCpIxGxAUlXEg4NLbrjppr+7vb76RI1AK0HAjdjAVjJyPQyNgAWBm2655e9/feqpqfDxR1q/tfPhTWozHdaYQXjLZQ4OZ0ST3Gs7+nlLGDaIfBXpc6JV4228AjVzBO6SOo06DFgU6KaoquBVWsrs0dBtYBIYZO9VOWNauFnccX4xieITHiUVsECUZR5DHSUUWVSben2MSFR8vP1RFqBYdq9ZKoe2bpDEbj2lx6jzJaFXX0QcRcDNh+gnJ/KyUN8SFp8kyf3PkO2LUOQR60+B7+HDh2GNWSw333KTciMVgzixplJ+fr74gSzFdOpm1JXC8PavXCb74UqiG8kP7jF/VOl2V7TC6VbmQdCrwvSNuZNXhiBqjK6kxu4Y5WazwEZXUQZ0Xwcrq2UndC8H8D1LbuTiQwdZBbAnIbJH3klievTsuRaJ/lAQTDeNQNtGQFti2vb66dEDgetvvGHfiJEjX6CJ3LaRpR8AqfgOERrOUgsexwrCSX7I12FtvVDhw0h6l5NmbKI2mzBDc5nav0UtHo7uAIsrhBv3SW9058GyERCfLKHdB0tQh57KLaOAcmSZIZlRbiYUaASRWQzx7yLoZnYvno2kg9kqNNsbYc6NuZq8YfHoAoGvGW5tYrFo0SKEfGcqclII8rJ582blXvJFlt6wuASlI8o9dlg2zZ6OUHCEJ1PMm9jR/RpZFqtOOXPDWN0gqGYqXTCXHvjYcyWRuJCI0CrIY3fC0vK/ghJ5NqdQ/pxdIM/lFMg3IOnrSitUccdCHFNqITCOSBG1QQcPHDjrofvv/9v69ev1HnDS/0D0AJqCgL6Bm4KePrfVIHDn3Xf9OyY2Zo99ka/IfOTJWM0ojcZedy0zCsSmk4yHfb2MHdRSwJ1kVoiuAwAjb5SWpjU0xn1TB0M3Uv3sxi0+QuVKoouJkT0dFZkJ7tjbEP+yOXQzGdFMXNdje7bLsmkfyJxXn5EN3/9Psg/sNmoXMTzbTk0rdktrTExyFyPc2mK94SbOytWLFy9R4dYkMWtRX4m/D0Hl6ojE9lJWXCjrZ06T/PRjyorlj6rffuEYq4NxNoonXZG4b6qLqcE5cRPS3cfcMBE2CRb5YDbdmSkg4d8UlspfQVqeys6XjwqK1b1MywsbXUo8lnSV5/HT0G1O4sd8Od99+91TD9xz7/Kvv/yyV6Pj1wdoBFopAprEtNKF0cNyDYFx55xTccnUqX+yV47AiNSolq/wxpruRCZfkhBuCr3ggqKupo4xBptNBQobVpUhs6vtVqFIDDLjujb0ZjuaG7spanVLw9EcI7PoYhie7B/bQUK6DlCaGd+wGAuZsU8BufF6q0rhXpINfcr6Wd/KvLf+LcsR0XR43QqsSaHSuPAYa+sMo438UNeo05CRynqjcqOgL5Ki2bNmK2tMXl6+HD5yWK1bRHwiIpOiZM+yhXJw/UokiEPUWRDEvHEU8zbhccksxqi9xTBy04KnROS4n4ag8KjicfiQiPDeK4YJcCWEua/mFspfQFzezS9SIt1C/JzWRUYxKdeSm2ukoqwgRIc2aORf//KXRR998MFQN7vSp2kETioCTfirPKnj1hfXCNRD4OlnnpmGSrzTqmBWt20kI7sQbk3TO3/b+I3vpSJGaJGpu61iA4Q4s7KsuJ47iaSGwtDWYYkhAmbWXne3uma8yUwyA9LhH9tOQroNVNFMTCJnCIAdoEgyo8iKL7Lu5smuFUtk4Yf/kbmv/l02zfhKslN2QYyLKCJYxFQGZYsLsH3fQShH0EG5A9mojdm7d6/8+utSOXr0qDBbrzcIRUK33pJxYK/KCaMKVUJs65+QjGgrFHh0QodjFzEKeqEDYsVqaxck3UfdQZS7W/ILkZyQZP8Aq8tf4CZ6Fp85LGiKn5lRR43dtyRpzP9CrQ/z4fArsxDbq/xu4lBUWJT08osvTf9pxgxm79NNI9CmENDC3ja1XHqwjSFwx513PfHUn/88EQ/wCL5tmo3bOLPuc1Poh2R244L8pbwBtsHNIBGbYBSTpIEU8VzVqG2AuLe8IFeCsPnWbXCXoIYSr2uvUGRjY2+W33OOGHtripqqM08LYaHVyD86SYlny6E5Ks9KlSrleqG4x/7WrdYXnyqQi7TDByT9cIrsWjpf4jv3kA79Bktiz/4SEpeo9C0s6Nj5jFGSheOMZWRl7RqZ9fMs6devrxQjEV5IWISEREbL2ulfSDF0N+zfNxRi3qgE991IBB/WoLKsY4iyQoZeq9wwvKfGQtAbiuukQOuyBC6iZchtRJEurTSmVcbZ+8KsB9Wte3eGT0uHDsmSh5Dy7chSvHPXLslB4UsKl63/Lkwig9Dz5Nf+8+pb+Pclzl5PH6cRaA0ItMJXtNYAix5DW0bgoQcfvH/6tG9e87OpUsw5MeS0CwS7/xcdjjpJyPvigMhw2yzBJvc3mPI3I2TVOsqDepiYfmdK3MAxdbQx3Bgr4GbKRV6RahxzUnPGkGzBYlSwa50iAh3GXizBENaalgiOlVloc1OZ4M1ZyXML3BXU8JBgQExL90tZ9nGpKkJiOFpBFJNs+JFF6wl1MtyowyJjJKlHH2nXe6DSxJQCjwXvvIisu+m10VrEgVaZstISiWvfScKhh9kPNxJ/zpBqWoh8qYVx1woDIlwJC0xRyhaQGAjPLWJwQzzuLXeGhygCswDkJRUWFy/cj6x35OyDmUSMrjF+OnbsKFdfe61cgw9KctQuVhkqc2/YsEG+/OJzmTtnrspcTDJj22i5uff++2584k9/+rwFVlpfQiPgEQSc/VvxyMV0JxqBlkLg7NFjZx48eGAyNyjbRjP+uOAAeTAiRLmLHOXm4Jvwq3mFqD1TpjQIZqOuIaJLH0kcPlERhNpmiUDJATGoxCbcWOSM+1hYdjlHLhd2TN0HLBkFu9cpt0p7khiEhbd6EnMCTCNPC6wXFfk5CM9OlUpokWoYgWYhOo3hp/RRIDXcsEORwC6mXbJkpx6R3My0OpYpUycTGBSsyhGYWXwZTRXUoUdjl6n/e0VUjBuGbqTig9sNImYVzca7Jhj/DgYxowuJzZU4MhK1CriNSNZQ0V0mTJoo111/g/Tp28fheOla+umnn+SF556TY0eP1SMytOR0SE7eumzligGuT1qfoRE4OQg05mI9OaPSV9UINBGBu+/97cOBAQHI/1WfovCF/he8+c5CkchaN5Gd6/lgk2nHhHG2VB//LivIwQZ7It+HOl2FNSPFvxKgNl+rqapQupyGN3NYM2gNcteC0HzDd7JnxIXBDeOF0Gx/5JkJ6ToQVpFB0Kd0FB8IdZVmhnNrgMhxg1eRTRDD5makyd6NayQPlbRtXWsm2SxFvhhFYBhFFRSCkHCLmJcuIIvryoj4svnU/oyuI+RnQfbhStTYKjm2T4r2b65HYAgAb6liHGsKzZ0hMLyXmUagtLRUFakcPmKEPP7EE/IpLCzQgzVIYHjNAJSeuOKKK+TVN96Qnj17Ks2MdWOk1tEjR/q/9MKLlzm5SPowjcBJR0BrYk76EugBNAcCN9x44+4/PPLIH7/+8qv3bDUA3EBIbViSoDMsNcMQHUI3k21jeDXFvfUpCSwEeGPnh9FIJ8KwjarAquigstA0g6GTpQ9AoEqO7lM1fPzj20OHE1Rfs8H9FCSGVgaSARUV0+aaBT8SFUuyOd/QSIU7k8ZV4FMJC0dNtUE8HDXDNeQETTDZKr4GgsB4I2dMTTmE4CAldAUpPEEgVY4gi5ZHrT3/bXFjmQSTCe1qw/DrsWBjpJxdY6My3UUkMEFBQdKtWzcZceaZMn7CeBk8eIhERUe5vKrDhw+Xvz3zd3nogQclMyNDhZmr8Vh0QvPmzr0d/5zucsf6BI3ASUBAk5iTALq+ZMsg8MJLL70/8fzzz9m1c9eNtm4lPrazYcZ/H6GrSb5hiqzY6mO4TyVCNxOEhzvfmmspCb6pKiuVctRR8lPRNNbzwYYJ900z0JfajY+bY3VpkZSmpiB7cJYEJnUVv4g4gzhZNnNevwolEmotMcxv0lyDcswe7PzGjuCjDn7GHJQwGhYUQyBtOYBfLDlvfEBmvGGR8SmkqykN6wHLlCcmiGurCCn0VZyyDS451MoCiamNmGrIhWfO1ooMuXOn1+pcYBUKCAyQLl27yIiRZ8o5554jw4YNk7j4eHe6rXPO6DFj5M677pR/PfvP2rBzHsC/k927dl2E3DF9oK/Z0eQL6Q40As2MgCYxzQyw7v7kIvDw7/9w/5OPPTYckRm9zDdOc0QMu96HRGIf5BfLQ5GhEkodidVwuWeGwPLBtPCFENKYb81GTR1oNRChJNBN1KUwrMDcfIUg+ebPbLfMs1IDdxa1FsUHtiGBXCfkMukAiwOsQBbLCzUkRnBMtco667nYb5OInGBF/K7WImXZ6JX1x7QCWcgIk8/BZ6MivJRVg2JXZSWyWIwQmUPLivpQK0LRsdmfaf1gX+pjQV717SGGxrUFQS05glBtjFPlArImJQ6sKp64y1V4NES+PiDUHZI7yEgQl/PGny9DhgyRBOhefBwk9HP32pdefrnM+HGGbN60qY4+hi6rObPn/Ab9Pupu3/o8jUBLIaBJTEshra9zUhC4cPKFeS89/8J9r77yys/YJJDctO5mx6ij5QhtbYdU7reEB6v8MaaKhl/DsXGw5lIqNldqZIzG8FwSg5J6c+K+6oMwa6WbcOat3VVU0KdPUDjcHR2gudhvjAVv7KVwL1WBVDEbri/qFCl3F6w11H/QclOamyHhKMbYYKuDjWWu5pRNK4jFlaJIhsVlQvEsyQhFuBTeKvEwjqNmiGMjWTEtQupYZWWxWFgceYHUdZ0kJh4mFkrrxBrmTUlu58K6mlqXkJBQGTV6lEycNEnOOvtsWGC6utCL64fGw6Iz9dKpsnnjxjonM8Hfpk0bf7N2zZrHhw0f7mxNStcHoM/QCHgAAU1iPACi7qJ1I/DIH/+w4K7b73hszuzZL9u6lQwLgsj3qPgbB9fRlJAghLmeULkE4ACGYm+EIaNuq1G5YoxoH7MXC8VhplySC8+ZPupdm5aXKpCI8gzU8LNs4hX5WSqChyHBXqjhVF0BNwh/hwmWZiFUGf9mZWmG8XrBuqSKQvLtngWiOGel+bBYT7CRs4KzIh34SrFqNcLHlQWFJEQdawiH1TzrJKgzZl7XTmOZgklOzAgeJ3lKy99hLTMwRgSFhoXKWWed/f/tXQd4FFUXnfRGOoGEhA5K772o9KI0UUGKIIi/otIRFUGk2CmKDRuIFEGwoALSpCO9JiAJNb0A6b3897zdiZvN7s5syKbe57cmZN68ct4k98yt0tOjR0lt21LV7SqoK1UyrUfPntLXX30txcTE5Gt6rCn0Oy42rurBAweH0CrYN6ZkjoJnKSICTGKKCBzfVr4Q+Orbb1b0692nTVBg4FikW9dt0L7AsXc91aTxIaHehRKQyXEbMCG5yjWI9LYMp1KYHEQ6/HzTBngB+cSgFo4lfWlpTY6+dcjJ967QuGgiZjQRSfAR0Y1cAllB0cq02EjJuXqAlE2RTSAoaaSdSY+6LQgKNCa5pFkSDqwgLjD1CEIjVDD/7U9fQ6LrKKSjqSoZClC+nkHd1UL7gtwuLVq2kKbNmCE99PDDBnO3qN1hWlqadIdKKKSm0tnSmXl6eko+VauK7MamWu06daR27dtJ2379TbKh6CU02cF3/759I5nEqD0B7ldaCDCJKS3ked4SR+DV1+ZMnj1zVvO7d+600vePQYKxeNJIfEmOvjAhNaV08KiJDblcDZlbNaK8gHYhh/xihD9HgZBqMkMgLJsSpVH+9wK5QYp1wwgDpnlRHTpXIhIjNyM5VEBMYs4fFNFUgsSQOQhEJt+s898ABsYy4IxbhM3A5wNN/6vuz+Rh5T4azqSj0ynwvbioSUxXzCYlc7cHQqKJBNN85IbnTP9Zw3UQ6ccGDZJGk/aldTuULVJP+zAX1TySQoKDyexzXrpx/bp088ZN4ZTbtVtXieqISTVq1DBaFFN3b7inZ69e0q6df4nSBDKOWHNwcHD//fv+9nikZ494c/Hg/oxASSHAJKakkOZ5Sh2BXr17J3/91VfPffTe+3sys7I8CqVfpxUia+oqIjIzyNG3LjlYIiapOn11ICGZrhOhhD/22aQByc5MpQgSpwKCC74UqKFU7IoYXRMMrQUhxjnpyRotjGKjbMJk/iIDkSAF+cUr5TEV7y/YQZeI4Hs5H4++EJcJhpwZF0LTnt747SkMXa48bUsCEwnp8EGRRghQnI0wyZHpKpc+2eSTBNML6gBlwswFskBWrUzy/RH1gcgXR5dIYLViDC3Bkb9X3KYeCdH019BXY5WyMba3t7fk7OIiVcGHzEG2VNoiIy1dCo+IkKIiIwuQLKzzsUGPSi9OfkHC3qE9cXZ2UVxaQkKCdOjgQWn/339L5K8ihYWGSYlUgdvby0saNGQImaNGSy1btSxUVkBp4NZt2kjVqldHjhhBhAQ1JNwos6/bkSOHB9A/NyqNwdcZgdJCgElMaSHP85YKApOef/70orcXPv/t119vljO16i4EGV6uUKFIZOqd7eEqBRCBQYh1oV8UEaFE0UGUrl5yK/gWjX8JlbwQfcXRNKMgIiqX5stJSxJRSVmUUE2Ti0TlLIIYqG+6GgXZ/CH/DJEyMFWAeLiQ4HZ1dRXkBN97kUCvSh84jrp7eAhSAr8PTw9Pyc3dXQh5Z2dyohZmOtRYtBbjQICCxIAEaioMaOobwaSF+khIRAeygg+8bnIpYiyVEtQlxCdIsWRKuXf3LpUPSBf+HahKHUlZaakmEFWpThBEAfehFUq5LwgRaSHIF8SK5rclvyFraNK0kUkwxwHnTER76TlrAxcP2uOyTz6WGjVqJDQs+IgINroWGhoqvfTCiwhbzicI+LmDvYNkR89WFkUjZWZkmiQxICow92zatEm6EhQkkt1hDEdHR2no0KHSpBf+Ryah9kXWRqFcQWNae+jt24UejhP/HB/OJEb97wz3LHkEmMSUPOY8YykjMO+t+T+9+Pzz07f/uX05BKy+KcKOBOglIjJfJGg0Mp4k3JxIqiahXoFOg+ADsShEIiDgiy1rL/xccqSM2FAp616UiDoSxAXCVEUtITVQy5oUsR8dTQSwgcCHsPSit31fCvN1c3eTqlf3leqQL4UH+V24ubkSWalOPhgeEmpVISEbiIy+35GadRRnH2ht4CNy4/o1KSYqWoqOjpaioqOkCxcuSufPnRdaG3HutF+7Km6irpSjV3XJztlVsnWqoj0/jRkNhCYzOVGKPLadiExiIY0MyJErETNoY/Rbw4YNpRFPj5QWv70wPx8L5g0MDJKSklIIL0dyuNaQK0Pt1MlT0sqPP5YOHzokSJisPXyQSMfE556Thg4bRo7AylocU9iCPLYhk9Zff/1VoBvmunHjRv99e/d6k8mJSnBzYwTKHgJMYsremfCKSgCBL776asWIJ5/yP3bk8Cw7hETrNWhk/iEzxeeJVtI4V2dRzTo6u2DCOFG/JpnezhHuU4DdIFdMMZQeAFGhsTPiwqT0iBDBW4Tg1WopNM7EGsfbfAWBuCz7sBTWu8iEBW/ywgQE/wzSoLiThsSVCEl1IiQ1AvylquQU2oCqIVcjwlK1KhVSJB8LaBzsSOApOYuWwPEpTgHB7OPjQwU506UaRL5ks9KtW7ek6VOnk+bmDmmINOYq99pNpKrNOmmjrOShtWcq1GlWkgOdp707VdiGNkavIX0/ND7GWr/+/aWN69bDx0RjMkPIPpmYYkljVKduHSIniAIjTZBOHhjk09ny00/SRx98KEWQSUpoj+CwS2cA09GE5ybSvXUVcVDboQ2ZlKAhg2lOJkpYJ+VXcjn+zz8oEsYmJbVgcr8SRYBJTInCzZOVJQQ2/bR5NmX0Dbhy+cpIQ1V9ybAhHaIaSyAJCCQu5DtKAjADhf30TAzoh7f3+3E2RYSTNQQXCTdEIAnTl46Qg8lFOBCTcBUZguVr8E+hyCKRJwZOx+AzOj4z0JAgcgVagwakJYB2pX6D+vRpIAQkiApMPvr+QmXp3NSuBdoWaGTwwVlgT9gfNEjRMUi3r4noAo4aHxsjXkwgj9THgbIiJ0fcKDA9xoXgDyOzkbHm7+8v9SDn2atXr4pnBffAxPXv1X+levXrUiFHOi86ZzmZHday9vvvRTZdmJJAJmB+Q5bdCRMnUtmBjoWchdViYqxfHcpJA6J6PSSkwNljradPnurFJOZ+Eeb7LYUAkxhLIcvjlgsEdu3d+3T3zl2q3rx5s7e+CUTWYxxKyxQ+MYWDVSnDL1UpFrV0CuWK0ZipdP1KVAOiJSxOlO/Fgcwb0AJkU1r9fFIEPxI7RwqJdaK8Lw7C9CGS2mEC+p/IJpwSTwnu4qSk0KtSJvnOwDG2Q8eO0itTp0j16tYjQe5RovlIVO/dgh1xFsKHR5hfdLRnKiKbgC/MTSK3jp63E8gSqkIbazi3/gMGSJs2bpSSk5MFSYBp6Db5oAjyRM7kgsRgZPr3rz//In34/geC8LRu20Zq26at1H/gQBEKbSkzHTRvyAyMiCfdpo1S6mfBY+GhGYH7QoBJzH3BxzdXBATmzp//5Py5b+6Njo5qYygZHsiMsbSlIvkbvcGLkOoCctEcF1o9FEno5VCyuWSRoC5DcvGjys1EVAoofOR/QAjqJdWzokgXBw9vyTWgodAexV04JnxA4HyLTLCVpQmCAHqpJSkyianmU818cgkC5OIqsjGLEg7a4xVElQjIPTInGXIUl7Fu3KSx1JAqR5+kqCJ7rdbs5s1bUhpFMKG6NCKu4FOEMWrXqS0tW7FCaIzqUd2k4qiVpHTmeO7hmAyCpbsP7I+0QQHfffNtRzJhHVcah68zAiWNAJOYkkac5ytzCPQf0D/+t19+Hbhg/vw9d+/ebaZPZIy/YmsKQebSW7UtkRhdzxiNeUemP0UhNBrhmHqPqjVTXpcqpAWwd3SR8jCUnvlKf3352h9agrUtJTDThhnDuRW+GzCpVIYmRzbp7hVC2te3utnbFwTI2U04/WbTmeubCm/fuikioODUbKjBHNSpcyfpxPH/eEBcTByRmDRBYhA6LtGtWF8bytprrJGPikR5jqTEpETS6qSIZwTaGRBUJydnoWXyJh8mPI/mtoYPNBRmK0Q/yfvDV2iNyC+mN43HJMZcULm/xREw/0m3+JJ4Akag5BEYMmxo9KYfNz367uLFO0hQNFFHZEhjQlluUeXYlgSITC7E2z/8VMjnIo8KTJoV16y/dQiRtFQpITpMcnb3lhxc3IRjrewDk69lwH35jr7/DWLjQOsS+VIkEX6cSf4blacVLvwAkoB8LnJkkgYLPcdsQwARiYGPkg3OOb5gf5xFTHQM8qoYJTEYsg2ZhUBy4AiMdcQRGblDDsbwUZLDvw1NDS3ayRMnpe1//iGdO3NWukP3gfxk0DggMfDtsUfINmmJnF2cJf+AAOHM3JyyATdr1kw4AMNxW8lHqzrlivHy8qREeuEF/GKs6eG5di0E+WKWVJ5nh3daXhBgElNeTorXaXEERowccZuITP93Fi3aRRqLRopEhogByg7AkVafqUCwFVsBQeQcoTmSqZxAagJF1ZAwtaZq1fhqS5oWa+RXIQEG4iSSumm1QJjf1slF42RMae4Sk5IQbSISm1WGJhRWBviJE4WMC7OJDIISh4Emi/pkk4nP2s6p0Jiyo24S4YvcOMZag4YNhGnoNkVI4dlKIm0KCMkDDz4giI2hvEIJpDn7ePkK4egLLZrIzwOCLJzHNecNPx+Uv8LCUlPyRNQTFHYYE7ly4FTcqnWr/Dw1BtdHYEFDBwJ0+3ZBJ2URTRUR2Xbfvn0ePXv2jK8Mzw7vsfwgwCSm/JwVr7QEECAiE7ph3bqB5Fj5O5mWmpomMmAxFLdEfjH6DUQC1YDNSEWnsDuNSUpEHsEPR6ZNWlORIDAQakRubOHsC4JDzr9oIoqJ+iWTkIVJCTlGKkUzwmKQgM/WjgpkkrOzJjzdkMcTShngeCnRHmnb0imUPiOFkgyKUOiC5kEIeXpWBDmpX7++UWhBHh8gk83NG5oIJ2hfcB8YByLJhG+VcBz+r4EYYb3PjB+fr0nBMwmzD3L0wG/Gy8ubos28hIYJmZBRQBL5ekBu5KgspfPOwdy0joYUpXbs6LEC3fEsJycnOVLdsfZ0YbfSWHydEShJBJjElCTaPFe5QGDUmDE3tmze3Jsy++6kt9+WxoiM8HghTUw2svbq2ozy87kUxRdGCSJNDhjdkYUDK8J0BblJlzJSKexbmyY/D8nxSBDjjR2+DuHh4UoTVJjrBhUs9EN3NzeRMTclK0WTL1DUX0K4tdZJmvCEY3U2Ve0GcclMS6F/ZwkNF0LaC2ndSPoD21vkqGuqgVg88OCD0q6/dglyATPRLWTJpTXl4Dmi7L32DgVJTEDNmtLU6dMsfiYgayBSTZo0ET42+k7KyI5MNZqaMImx+FHwBGYioKboiplDcndGoPwj8MRTT0W9vWhhL8qjcsKov4J4Vc8h515UkVaySVgYE5EETy6GqKkZhJZHUhqp9NEgNBMTQHAqT9M/FdAU+I3YO2gSHCIxYGZqspR8L1ZKoZD05LhIKZ4qe8dH3pQSY8KlNKo3BaKqwZNyzVBJAqEt0XOuhtCPjY1RBLYeaWrkxHXoHE7+J3i+EGKNfDal1eBYjPn9aviJ8Hu5Fpa8HmvyuyGS1qC01sfzMgLGEGASw88GI2AEgaGPP35nwcK3H/IP8N9tjMhAeCFapaDvBYlOWRtTmujCGdWaMuxSpWs0CCY1grY0l1yccwu3XgNkAw6wQruGa0ROMqmIZhKRF3xAZITZCD4q2sR0umsSOXm0pLDAWqlvSHBIIeGvv5969eoLU48c+o28MSCXeGCgjSmtBodvkBjki4FTsD6JAYmjqKiA0lofz8sIMInhZ4ARKAICAwYOzDh24kTfpk2bbtQIGwPNUKZXrWakCFMW7y0wgZBvjGx+gskDDp+VohlRjmmUVLoGOVmDpTEraUo7GDEFCp+VwtdgaoqKihJmJVMNviuIUJIJklycEmNmpJfeuSByDWvC2urUqWtwC/T8k1czN0agbCHAmpiydR68mjKKwI7du0YF1AwIKkRk4M8g/E4KOodq5GBZ+PUiE4hWcwDTyb17d0Wa+8rc7MipFx8Nx4G2BmenxhxIJQPgJC1ysBTsD5+jeIr8QiVtU82HEu35+vkK7Yu4hyKO4u/Fi+8R/aT/HOmPhVmhFQQRRbkDfMVHX3Nizvlmo8AoEvgRiYGGqlatmvlJ7/TGKQsPtDlb476VAAF27K0Eh8xbLB4E/Pz8Tobeut2EEnMUGDCHSgIIQShIiyzcTLzNF89y1I+iTXwmhwKnp6ZJLpTVt7I25FSBY2++qUmvOrlJXMg8Z4WCofDl1mnIpXKXCGJYWJgIUzbWHKlqtTeZbARZoecIBCQ5JVlof1AaAiYwfT0PTE7nzpyRzlH1bYoQkuLiYkXUFDQn1tpK5lVcqxD5qCUFBNSU/Igk1SWzlU81H5Mh3/IaM0kLk41K2lrtE8LE4bdjQPNoLHF1ZX2UeN9lAAEmMWXgEHgJ5QMBF5cqEbn62XJJ4iBrr6hCbEskRucFXSm5WInsGvlEyBkVAgrOmbGxseIDQVoZGwQ/tA0O5NgrH5Uo/KhKEaMpwgm/mEINvjUZmSIPj6kGjYubq1u+Twz8UNKIVIpoJdLE5FAdJeSBkRsqXy/76CPp0IGDohgkIojEM6gtqSBnZ8bzJ/vZOFB0EcKyofFp3qIlZQCm+kvt2kl1KekdsgPrP5dpqSlCkyPX+sKzgX5I3qfb19bOjjzYuTECZQsBJjFl6zx4NWUYAXcP92gD0ksUXMzLpQgWUSay7DVBYpAgjYR1akqqSLBWWZtcP8mehHR+yzPi62QIJESA2UGLQxd1VCZyNesb1zU5YIw19KtBVa3lBtNQLGlW0EROGiIpuhXVkZjv8ceHS8OGDxfEBaUGUolcpFEW51TK2guHXJiVsig8O0dbsVtTvRsRT3minMGZ02ek0NAwqUuXzlLnLl0KFJFEX5RL0G1OpC3STysA3ChqyXiVy8r6QPG+Sx2BsvlXt9Rh4QUwAoURoNTtdwxpV5AsrUjVqksCZLy1iwyvGomLN3+RYK0SNwhoRwfH/DPLFY7ZMitRUsnATFjYNQT45pIWJTj4qsDYVJLEatWrCa0YGkhEXGycppo1faBp0W3IE4PP/TSN4iZXzKW/rnQiQlnkD6P7XBsqzQVNTY0aNSipDTdGoGwhwI5aZes8eDVlGAE3N7dYWeWev0yR8Y6khJ5jr+a6kkAsmc0KR1StHw8SqlHSspKZuIzOggy7Do46mhhhTlJ3ViJbDMo6GAlegqlOKfoLYcx2oiq5hrjAbCN/L3xTirmJEgXa8gT6JDwlOamQU3AK+ejopxTA+sgpOaqYl8bDMQL3jQBrYu4bQh6gsiBAmUxT9IUAIn5ycyg6hHJ82JK0+E8jQwJKU9Cm1Bt8OKzJGRWFKuE4qmTyKPUFW3ABGmdYa41jL2gmtBRI+U+aCkFOFI4MlzV5dwyFWVtJsdpCkCgLYKy5ubkLk44cjo2vGp8USZiKhN+N9oMxRKSbtoyF8G0Sdbn+m1+34rQ50MEUlSZMSf+NhbFjY2KFiSo/YSKBBBNXzVo1r5kzPvdlBEoCASYxJYEyz1EhEKA3+ExDL+DC2VIUgSzYCtdQLiUYkPvERpPwDg0+MXjT1vW9KKWVWXZaY6leSFA7kq+JaOijdZRVtRj0R3SSgTwyIACoTRUXF0daCx+jw8F8pXv7nTsU9p6ZJbIIQwuCj24Dmcj/aAmMLpEBkRakh0xUcgFQGx0Tokx8EMmE6zCHYbykxATxHBQ0JeVJ0THR4ufQWKGB+FWpUiWxQYMGQaow4k6MQAkiwCSmBMHmqco3AvSH/I6NrY1wmMxvJNTwJp8rzACy1CSNDKJFDJqYShgDZJ3Vlh4QWgQSYhCyqI5c1YSgLeFVWmQ6CHfBFnRMRRDIEM4IdRbCG5oYJfWL7urgYoToJPjF6BWOlOtTIYqowC00JxxsUykKCF/vEv66UW6IaEqnCLcCJi6dAWRTk/iR0Bopa/gKJ/TTDCgn8tNwN3o2dNiUvP6Q4GsFrsGXhopXnuv+0EPxFjkoHpQRuA8E2CfmPsDjWysXAlXcXBNstDlXCrAYerPOo/DYQk2FsCkRBEngWjs4CYoFoRVHfhsx9KnoTezXwCaBAao95x+PmeckCkEa0MTgZ3CUjQzXBPHA0TeFcrxER0ZKEWGhUlxMjDAXgSzY6uTuQXSQkh+N7jYKaGZ0tTQ63xtz2hGECPW+DJAhrAtauqvknKyvnalXv96Biv688P7KJwJMYsrnufGqSwEBJ0enNHqLz9Z/E8abfE4WkRhZsGle8PGuWwqrNDQlChdSxnitGSGNfDCS9LQFZWShxbsMA0SjIBnQsBwIdfVaM73Yar0VI/vttWshRF6SiMyEEoGJkJKTEkX4s0w+QKBAGOTnCOHQOZToruSaxjyl37Cm8+cvSJERkQVMSYho6ty5818ltz6eiRFQjwCTGPVYcc9KjoC9nX0G/aEv5PwiQmP1UvnDUTQXzqJlBDMb8uOA4IKgQnKz27crfrSskNNGiEy+MyxOCGHNhupfGTk7Ee1loJI1umPciPBw6Q5putJIK5NvstFZB8xZcog1zgPRSfqJ5Uw9NjIZkn1cZCdg+at83ZxHD/cmJSVLf/31VwE/Gazf09Pz2oTnnjtiznjclxEoKQSYxJQU0jxPuUegd98+2fTHvnCpYUFi/jMnCX8DilaCr0yZaRC82vwmmeREGloJSAzULMZIpCNVks6PvhGaGJyVOsppBadZnay6+mcMkwxyxRjSdgiiAx8l7Vzok0oZexNJWwONBwiO/MG/4Xyt/7HR5phBmQJENsEcBRKERIZypJMcUo17hTOvQsOchw4dkgIvBRZw+IbZqUXLlluU7ufrjEBpIcCOvaWFPM9bLhEgoZNl0LFSz68CIdfCRKFg0igZEMiZlbL2WpFDqhXWRWuNplBgfcfOkllLyc0iO7Hqz4ifV6FqzSLnDy5Ca0a4FKyIZWSdwlEapQdspdyMwqYljIlcMdDCIMxavzAjCIyNDqlAf0QC3bh+k6pH1xHf41zwNSM9Q0ohrVliYpJwxMaYIBWJSUmiBAFqKqFkQSb1RYQcxkK5ADd3N8mHctF4e3tLdajUQN26dSRXV1ejpArh3tDM/bjxR+GbIyfEE9mN6VrvPn22rvlhbckdHM/ECJiBAJMYM8DirowACQoDHryFcckjp84y4xMDWWtDBAZRNRmaOj3Xr12jt/Y0ycnJeD6Tcn/aCE4SJIUA0COTKJiYr6HAdTPMSUKjRXgaasA2hUoDpBMBcSGiJDdhQiLykpOVQ2UG4oiM/KfQwz1r166Vtm7dKrojcglJ76DNAanIoq/wqRGECFo/OOeKQpHISyQHYGkz/lIfuQ4StDBIrNe2XVtpyJAhUpMmjQuRKqwrISFB+ubrb8mX5zrlr/lvX5ifai9tGfPM2JPl/lngDVRYBJjEVNij5Y1ZAgEqzpdueFyNsyT4Aj7Zop5SYeFpiTUpj6kJpRW+HNpkb3fuxAkzRkUmMbLJRl9fos17Isw2Bio1K8NJPeTwbH0LFH4uR/6ARMhzQDtzhipRnzp5SgoMDBLYy3lYMCE0KyATctM1Rcnfy6TLhuYAUdFoeTTO49CmIPcNSAty1PgH+Et1ateiUgH+Uu3atUk7416IwGB9mHfVl6ukAwcOkBnpP3Ega+kGDX7smz93bleFCXdiBEoDASYxpYE6z1luESCHTAMkhioYJ92TsknLYUPFAeHUm43K1hB2ZWWnpAWwoTBrvP9rQmnvStFRUcLkUBkbzCswmwgSA80GvgpnJhVoyITQQFcQDph5LgcFSTGUNO7WrdtSEH1/7uxZKZJCreGPJPu86N6uxm8F/WVTE8xGyPPTsGFDMkPVkho2aCj5VPMRBAYaIJAa7E84nWsJj0xMMD/WGRIcIn23erV0+NBhsSZd4gQtTIsWLTa9MHkyRyWpeCS4S+khwCSm9LDnmcshAvSHvhCJgY9E4q0rUlbyPcm9TlPJqXpNIRyNOXaWyrYheO0oSy0JamsyhyDEOvhqsNSkadNSWU5pTqpJeGebb04SBTwNZFw2ukaBpb2UJ5urdDqCjIDELF26TMohExVMSyAEsjkJ5EJuuknsCiS003bQLT0gExgPDw+pQ8cOFPLcSaIMulL16tXzq1LLhEUmK7JzMcbB/Pg5fhYaGiodPHBQ+vPP7VJYWJggO7rPKp5dSuwYP3HScwv+2LmjNI+K52YEFBFgEqMIEXdgBP5DgARCkiE8EI2UEh0qpcVGSA6e1SUbDx/J1s2T/FBIaJWFzL20aGsyH8i6IRSCDKdQ4MraoMmQNRXkayvlIc+P2oZQdThKG9GzgSzANCSHOoO4yCQFBEHrs5JHa0ggE1AyEYx06pNITrTJ5PSLsCZbcgp3uxcf35iS4znkR1HRuDANde/enQhMfYkKkgqyDL8ZuQwB5sHPQFbwNT0tXYoj0yGyAt8mrdBVIq4XLl4Q9ZHQ9EtPyOt8auSIGcOGD7+iFhLuxwiUFgJMYkoLeZ63XCJAb8IhkRER3XX9GcRGRLZUetulb9PuREpW92IkO1cq9OdTk756kSMo/FHgw1BKDenyHciJV+Q3oZBi+u/WrZsa80mZsXkVMzbaDLb6o4JEuJJjL8wuGj8U8mUioa/KlITBgKWon4TQZZxpYQDl50OQFnLytrWzi/fwcD9Xq3btoxQxFFSnTu2Q+g0aXBk8ZMh/jjB6C/3yiy+aLP3ww/1EOH1krcz58+ely5cvCzOgp5en5EyO2diLA/nDQMMGh+E0Ii7JVH8pMyNThF7fvXtXRDbhg73Lodz6uMiamr79+s1dsHDh6mI+DR6OEbAIAkxiLAIrD1pREahfv94/lwMDnzW1P1ENmYRbVuJdKTs5QbIhEuPg468hM4JElAaZIedehFjT/HmUXwRi99bNWyLHiLNLxYxQMhZiDWGN8GcvIgFCGwWHbJHnR41DjMapFxo24chtmMMIPxtEFRHZON62fbsfu3TtunfCxIkXz5IWRG174cUXg1568cXZ2379bY1shsKcqDANMxDMQqbqKGk0OEhwqHE6B7GSw6d11yBrb+i5TRw8dMhbn37++Qq1a+R+jEBpI8AkprRPgOcvVwg0bdb88O/bflexZk3xQeHkmxAr5ZC/jK27j+RIZMbGxd1gAUEVg95XFys4b8LZkwQ2iNYdCvWNj79XoUmMMYdZmFFcXKpoSAAdlahCLqLJdCDOD8vW+SH5ueRS5FluRqpJDRbwHfr4sFdHPv30R0Rg8r757rsind1nX3zx/cB+/RueP3t2LnK2gIzo+8oUZWBoZOQoKjJrJVKOml+HP/XUpy+9/BKHUxcFUL6n1BCoqIrkUgOUJ674CHTr3Hkd+ReM1vcnMLlzCEskSiNtiB35zEAzY+PsKt6US0QzA0IFv53rF6Rs0hDlkMCGT8W3a9ZI7dq3q5CHBiEdGR4mijLqhyyDvCxZ/I60Z88eKgZpS/5L3lKVBq3h9axVyGgjlnIpP0tmhpRDkWcgLjmpVAeJ8uvkZVH0mRFfJ4zt5Ox0J/DKlarFBey4sWNfDLkaMpgy+zZOTkqqRsnwnGSfG8yh5EQu+7qIBHZ2dmnu7u7BfjVqnGnUqNHxjp07/UVk60ZxrZXHYQRKEgHWxJQk2jxXhUBg5qxZk5YsWuwbHR3dC0RGSYCITeOtXkskMuPCpayEOMmeyIx91RqSjZM2KZqZ1ZTNAhMEChE59jAd3RVrho9EdHSUWcOUp86y1kJ/zRDkMKsgJDnfaZYce7OT7gotCwgLxcgTWUmlf1OGY/pehGAL25HWiUgveZ7uHBjf0cGxWItTff/DD1/QHPhImzb+WC0qOqpu/L17NcLDwgOozEF18u3xzszIqEJzy4mHsdBc8pPJIkKV4OXtFRkQUDPM1883qoa//3UiLTfPXboo7dhFEdSffFyejpXXyggUQIBJDD8QjICZCFDUBkk5qfeIJ56Ye+rEySn0VlxNDqFVHEor/PJIWGZE35Ky4mMkey9fyc7bV7JxBJmxrGZGZO0VnMpK1NkJCgyUHn3sMcVll8cOokKRtl6U/vphkqlKzrGy3wgIS8q1C5oaSjKZFHpqrbJauJdofEyUWhYVA61Tt8720+fPKXUt0vURT4+MoRvx4cYIVHoElCuDVXqIGABGwDACm7ZsWbLo3Xeadu7SZR7l1biZTcJLdQZYCEQSpLmZ6VJ61E0pJficlB5xTcpNT87X2hQ37hDqSHiHqBrhlErC+urVq+rXXNwLsvR4AmLjf+KQc0WEWYt1IG2/ttYV7sEHBEirQVNDXjAKwp29vbz3jB4z9kNLb4/HZwQYAfpVZRAYAUag6AiMGj06btOWnxZfvBxU95lnxz9BIbR/ktNkGoSZKkKjFZKCzETekJKJzKSFBpPvBdLRwASlFaRFX2L+nRDW1g6U8A5+HyS0IeDJHCHCcCtiE+YkbcVn/f2J0gMia6+dyQgfNbjASRbnTS22VevWHy16Z8mwx58YbjR0Ws2Y3IcRYATUIcDmJHU4cS9GQBGBRYuXoILf1o3rN/jt+mvnaKqV88K9u/fqqzI1aU0VIDMwM2Xei5bs3L0kO4/qkm0VdxLGJGyhM7gvvxn4xcCHB9lbc0XIbQSFGFPeG+HkWxEbcqcYazZEcEy4toicKnIEDwiRIUdu9PHy8ort2bvXm926P/TLkKFDYn/f/mdFhJL3xAiUSQRYE1Mmj4UXVZ4ReHr0qMjVa9d+dP7SpQZDhw17wc3d7YpZmhnSkMBnJpOy/6bcuEARRReljNgwio4hVxytGcqk9DUGnkjS5iBZC78YTVFIaGGQb6QyNuRe0aTj1+wehIT8m4RWBZoaiuBB/SCpb98+UocOHfJT9+tihcy4/QcMmPXh0qVfgcBURhx5z4xAaSLAmpjSRJ/nrvAIfPLZp6tok6tmTp/x7P6/982hdO8PqtbMgLCQYM1OvEORM/cEAbF19SQNTVWRa8ba3oGG1piG1GloNBFKVjSOlJZClipN4jQUK+zdp0+FPAtTkWPOzi4Syg/I5rRq1apRMcXa9KkjNaDCikjtj6rQ5O9E2Y1vSXPmvC6KZupma4ZPTZOmTY5WSPB4U4xAOUCASUw5OCReYvlHYOnyZUjjvnrW9BkTd+/aNZtSwQsyU6h8QaGtakKzhaaATE2ZcRFS5l0SpI7ORGTIMdXVQ+SbsbEnh11kA85vWvWCvvmJtDxyhBK6QuNw8+ZNoYVQW0m5PJ0GfGIMxROJMGhK1Q9tDPaONmDgAGnMmNGSnT2Z3Og/ufoziBCZjKRqVCEapjf5zLSh2ple3t53yxMmvFZGoCIhwOakinSavJcyj8BHy5d9ez7wUqMnn3pyLAm/czBfyEJUcfGyKYk65qRRbRwyMaXeDJKSr56Rkik8OC0sRMq6FyXlpCSIfCciXBgp8nWjbYjo2DhV+S9ymK6HhIRQ5t54xenLYwcbEDsjji/QwuCDhi4uVH4B/87K1JiUYCqSiQx+7unpWZhiWlnlEakpjToS5fE4eM2MQLEjwJqYYoeUB2QElBFY9vHH66jXuqmvvDJ2/76/Z1GV4RbQhChrZrRji6glzfeowJydFScS6IGwwHnXGinq7RyFxkZUXCZhjqKFVuJ7bfgw3Ys5Y6NjRAkCaBsqWrMmbZdgKHoaKWhR7EnjYq8lMeIyfQwRSvwMJCagZoChxIZ2puoXVTQ8eT+MQFlDgElMWTsRXk+lQuDjlSt/oA3/8Pqrcx7fu2fP7KioqE5ybRxVmYBlNYJI7KYlNVQbKYeyzEpSEtVtEh00F0Bw9KJ1bOhnMTExojJywwceqHDYg8RYEzC5BkgMwqtBZPJJiIk8djiThuQngwglkBr5bEhbY52SnIz6EfEVDjzeECNQDhBgc1I5OCReYsVH4N0P3v/5xJnTnZ+dOPFRf3//7SRY02FqKtJbvsg9Iydr00nYRoIcJiZhZtI2aGVgOrl+7XqFBBkExljTpOj577opsx6u+fn5iurX8pngXpicoqKia1ZI8HhTjEA5QIBJTDk4JF5i5UHg7UULtx85/s+jM2bNbNuyVavFdra21+Tw7CIRGpXQXbp4Ub1vjsoxy0Q3laUCsFYQEmNNQ2L8JB9y7tUlOziTG9evtywTe+VFMAKVEAEmMZXw0HnLZR+BV6ZODaKkafM+WrG80eChQ8dW9/XdSW/+KZYgNDCVIIQ4ISG+7ANj5gphLkOEkiECiER4wvGXGq5nZGjywxgy4+HnCMn2D/AvQGLQNyIiop6Zy+LujAAjUEwIsE9MMQHJwzAClkBg0ODBUA8IJ+DV335b99jRY/0DAwOHR0VGdiRCU0Wu1IyvsvBV7UujXTBIDEKHr1+7IbVtV7Gce2X/IkNnA3IDnxi5URVoo+Y7kBgHB3vhN7T/7/359wDryMiIxpY4ex6TEWAElBFgEqOMEfdgBMoEAuQvc4MW8gU+W7ds8Tpz+kzvfy9f7kKagPYJCQkPZGSkV83Ozsmv2aRPZmQtg376fPRLTU2VgoOvEolpWyb2WlyLQFSWrG3RHRNYIBIMeWLQ8G/lig55Uu1aNSUHyi+TQ6YnmUDGxca1Kq718jiMACNgHgJMYszDi3szQEtA7gAAN6JJREFUAmUCgeFPPIEEa5u1H4kS6NlGRkbWio2NrU31kOrfibvjR8TEg7Q1VPGRoq3t7LJcXV3T6Xuvo0ePPJdJphNdzQ3MVGdOnZaeGjGiQiW903fe1T08UQ9JS2Lwc1N1lDRER5ICAgIkd6ozFUch6XI4POHs/8P3a1uPHffM2TLxcPAiGIFKhACTmEp02LzViotAn759YXZCiBE+f5va6cB+/bwDLwUOQ8p8uUGgX79+TUpMTJQ8PDwqFFDGKlmDhDiI0g2almXCsRfX4dDr7e0tHHwRli6XjwAB/PfKlU7UhUlMhXpyeDPlAQF27C0Pp8RrZASKEYEWLVv9oR9ODIF888Yt8o2JLMaZysZQyAcjMtnpNJiP4C8jm5NwGSY1U2HWqGiNat/16tUt4DuDsa5cudK5bOyWV8EIVC4EmMRUrvPm3TICUpeuXX6nukHxuhE7EOjx9+5JV//9t8IhZCM0TobzxdiTsy4aecQIEgOiYsoxGmTPr0aNAiY3/CwsLIxJTIV7cnhD5QEBJjHl4ZR4jYxAMSIweMiQ2Bo1ahyFwJYbBDc5BkuXLl0qxpnKxlB2drZEOgqTGOwZEUdyZFdqSqqEBIOmGohfvXr1RBkCmQSCxFB16wY/bdrcqGzsmFfBCFQeBJjEVJ6z5p0yAvkINGrceLe+6QTZey+eP09kBiULKk5DPhhDmhgNiYHfs6ZBE5OdpYk6MtZAXOAX4+j0333oi0R5V/690qHioMY7YQTKBwJMYsrHOfEqGYFiRaBVm9bH4Nira1ISfjE3b1Lek4rlF4P6SSAmhhLe2VMtJDRcT0tLkzKpmKapBuLnRdWsvTy9CiW9uxwUxJl7i/Up5cEYAWUEmMQoY8Q9GIEKh8CLkycfr1Klym19vxiEDp89U7GCbGxsqQgkqlkbaPq1k5RKO2gy9zpLVatWLZy5Nzy8aYV7UHhDjEAZR4BJTBk/IF4eI2ApBOrWq7df16QEgY5w4UsXLxSt8KSlFnqf44ryAkZIjO7QOaRl0a92bWhqkCInJ6cCGMEx+u6du40OHjhY0M50n2vn2xkBRsA0Akxi+AlhBCopAu07dPjTUEjxxfMXpKSkpIqDCpEz1FAy1GBSkx17M9LTJZQeUCrbAEIEvxj9Rr5Ete/cueNfcYDjnTACZR8BJjFl/4x4hYyARRBo3abNX2QaSdP3i7lx44YUHh5ukTlLY1BoSWy0vi/68zs5O+WTmHQiMPCLUXLsxXjuHu4F+slaLMqW3LA09shzMgKVFQEmMZX15HnflR6BxwY9luDv739MN9QaAhp+MZcDAysUPqgXZSjmyNnJOT/nC6KyEKGkpjmD/OiEbYPEoJ4ShVqzJkYNgNyHESgmBJjEFBOQPAwjUB4ReKDRgwVMShDGCBc+euRoedyO0TVbUyHIgjl7NUUfnV2chb+MICEUXp2cnKJoTsIkwgxF/+lqsTB+SkqKW4UCjjfDCJRxBJjElPED4uUxApZEoHOXLjugpdCPUkLSu3uUwbeiNDt7O4OFLV1cXAQhQcvOAYlJNrhluWI1sMIHRE+fFOFGSqpn6McVBUbeByNQ5hBgElPmjoQXxAiUHALjxo+/TAUfg/X9YsLDwqTgq1dLbiEWnsmO6ifBVKbbsGcnMiehfhK+h5MzSIzs6Iv+IDi4ju9JyyKdOXNG+uyzz6U//vhT/Ez2n5FrMXl5e8dYeCs8PCPACOggwFWs+XFgBCo5Ag0feGDPsaNHG8pCHl8RnXTm9BmpQ8eOFQIdmJOwL/itEPMQewLx0JQk0JAb/FuUHdCa1FLIPwb1pCLCI6TAoCAKPb8khYSECKIDE5R+2DaRnUwqSXCuQgDGm2AEygkCTGLKyUHxMhkBSyHQtn37XURiXtQdH1qJ06dPS+kUdkzFIi01dYmNi9wutmQGQh4cXQdfXTICrcvePXtRkVpKSkyS4uPjpcTEBNLApIqoJZAcWTOjv3Dg5VPN5+CIp58OKrFN8USMACMgMYnhh4ARqOQItGnTererq2s8ReZ46GpjgihCKSY6WqpVu3aFQMje3kFKJZOQ3EBKQNDg3BsbGysIyrVr16Tg4GDRRTYr4avsN2MICIwDH5k+ffutOX7qVIXAijfBCJQXBNgnprycFK+TEbAQAr379EmpVavWPt1Qa2goKOeJ0MZUlGZLpiP9BhLj7u5eoCK17LwL4gIc9H1p9DVWIDC9e/d+bfE7S9ZXFKx4H4xAeUGASUx5OSleJyNgQQRat237m+7w0D7AP+TE8RMWnLVkh7a30zjo6mpi4LSLYo5KNZN0VyprXmCacnB0uP7Ek08+t2bdD++X7G54NkaAEQACbE7i54ARYASkzp0779z8448Z5NvhIEfcQAtxjqJx7t65I1HUTblHCVl7sTf4r8h7hLYFxRyVsvTK0Uu4lzQ1mb6+fmfatW+3bujjw77q07cveQNzYwQYgdJAgElMaaDOczICZQyBQUMGx3Tv0vVUWGhoV10SExoaKl2+fFnq2q1bGVux+cuxJVIGU5FsNgMxwV6RfddQk4kLkbkMLy+vy9V9fc83atToWPMWLfaOn/BsyPHTJ6XPvvzC/IXwHYwAI1BsCDCJKTYoeSBGoHwj0KpVq99v3bzZVTa5QMAj1ProkSNSl65dVWWyLcsI2JDWBRFKFHKVv0zs0cvLWzjuyqQGFzXRRtWiRowcMalevfqBw4Y/fgM//3PnjrK8RV4bI1DpEGCfmEp35LxhRsAwAt26d9/q4OCQ7x8ia2SO/3PcaCbb8oQlcsQY8n3x8/OTdPctk5gAf/9DM2fP/kMmMOVpr7xWRqCyIMAkprKcNO+TEVBAYMTTI0N8/fzO6UcpXSFzUog27Lg8gphDWpWkhAQpMjxMhFjr+7+4ubtKDhR+rU9w6N+Z5XG/vGZGoDIhwCSmMp0275URUECgefPmm/XrKCUmJkrQxpS3BvKSTOawaAoVj42OEon79Bv26unpKbm5uxUiMbl5ufz3sbwdOq+30iHAv6SV7sh5w4yAcQS6de+2BQ6wug2C/ujRI5qU/eWgQZOURMQrKixUio6MkFJTU0SxRkMRSPB9AYnx8fEpQGJQoZoqWpf/kKxycF68REbgfhBgEnM/6PG9jEAFQ2DUmDHBFIVzEsJdbnB6DbwUKO3atUtKJLOMOTlVShIe5LWJv3tHiqTilbFRkaJUAJpS+LSTk5Pk6+dbkMRYW0kJ8fH+Jbl+nosRYATMR4Cjk8zHjO9gBCo0Ap06d/5xy08/tUciODTki0EhxJnTpkt169WVWrVqLbVp11Z68MEHpbp160ouVaqUGh7QumSQmSglOUn4u4gCjlriok9e5H8j+kquQI3+dygPjlypWt6INjKr+oH9+6s8/MgjyaW2QZ6YEWAETCLAJIYfEEaAESiAQPeHHtq8Y/v2dzIyMhx0w63p36KS84XzF6TNmzZJHh4eoq7SAw88ILVr314QnJq1akkuLi6Ue8XZYqhCS5SZmSFIS0oyERf6XtYc6RIXfC+TFXxFH+yBzERSVFSUdP36denc2bNUL+m6FB0TXaAqtTZjsRMVgfSkjTCJsdhp8sCMwP0hoFvQ9f5G4rsZAUagwiDQu0fPX6/+++8QJIcz1PKIEOSSrww0ITAvQVtThTQyFN0k1fCvIbQ0fn41pHr16km16tSW3NzcxEfW7hQFKKT5TyPikpaWKmUSGZEz7xJXge4l32yE9eBDBS1FBWpokW7cvCGFhYVLt2/dlm7fvi1FU2HL5ORkMQYIDtavr7mh+eIXLln88LMTJlwoynr5HkaAEbA8AkxiLI8xz8AIlDsE5s99c+Sa1as3GiMxBomNltTIWhEQA/ibeJDjrAtpZqpVry75BwQQmXGVvCnBXA1/f3KorUrExkGytbeTqrhUof6OgujgXjSYe2AuSif/Fmhf8G8Qp6ysbPp3pvh5Bv08m/4dnxAvxcTEijIJSUnJUkREhHSPCAzICpL24V45oZ1sUjJ2MNgDka595wMv9Sp3h8cLZgQqEQJMYirRYfNWGQFzEGj8wIMRRCD8TDnGmhpP1oiAEOh+j3usSX2CDLrCF4UIC5yHUVHaiT74ak9J9xAhRLlzhZYFDWNkZWcJwgLikpFOH9LIgJxgDnxFRWm5CXOSFcUu0O3CrIRvVPzF0xR4zMoe88y4ce+89+4GczDjvowAI1CyCLBPTMnizbMxAuUGgZatWq07cujQ7KKagEAiZL8UY5sG6ciDtoU6IKeLTHZMgSSTKnl8XYfdoq5Vnk8QJVoPFXWcxwSm3DyqvNBKjACHWFfiw+etMwKmEBg0aNCnZAo6AKGeRaYbEA7d0OviQE8mObJfCjQyMGGZ+qAPPjA5yY67RdUW6ZMXa2uruKHDhr783fdr3iuO/fEYjAAjYFkEVChXLbsAHp0RYATKNgIrP/64w6mTJ4eHhIT0jYuNq0cOs24gDbrOsPdLIkoDAVnrA3JGJqzkxo0b//jkiBHvjx33TEhprIfnZAQYAfMRYBJjPmZ8ByNQaRH4eetWj3Nnz/UOCb7a8uaNm+3v3YtvmJ6e5ksaGmc5Wgjg6GtISpLkyMn4ZJKi+xVrk7U/pO25513V+xKVWtjZo2fPLZTo72qlPVjeOCNQThFgElNOD46XzQiUFQS+X72mXmRkRKNrIddaRUSEP5iWmlYjITHBn6KCfMg/1omiiZzpowmE1sRDi6br26JqL1Q7gIKnRVfdrMHie3y0eWFQNsGKHHmJpGQ6u7jcdXV1jXCwt4+j3DUx3j5VbwUEBIT4+fpdC6hV6/Kjjz0ap2pu7sQIMAJlEgEmMWXyWHhRjED5R+DPP/5wI9OTCxWQrAYz1J24OF/63p00NnbkZ+NANY1c0tLSXSjnixP+TWYdOyraaJtHhReJk4Dj5FF0UY6NrU22rY1tlq2dbSY57mY4ODqmOjs5p9g72JM/sFUefubu7p7g7u4W7+npFevu4R5FPjOZlLcmycvLK659hw6aNL7cGAFGgBFgBBgBRoARYAQYAUaAEWAEGAFGgBFgBBgBRoARYAQYAUaAEWAEGAFGgBFgBBgBRoARYAQYAUaAEWAEGAFGgBFgBBgBRoARYAQYAUaAEWAEGAFGgBFgBBgBRoARYAQYAUaAEWAEGAFGgBFgBBgBRoARYAQYAUaAEWAEGAFGgBFgBBgBRoARYAQYAUaAEWAEGAFGgBFgBBgBRoARYAQYAUaAEWAEGAFGgBFgBBgBRoARYAQYAUaAEWAEGAFGgBFgBBgBRoARYAQYAUaAEWAEGAFGgBFgBBgBRoARYAQYAUaAEWAEGAHLIGBlmWF5VEaAEWAECiJw4MAB1+SkpOp5eblWjw0aHFya+BzYv9+L5rd++JFH4kpzHTw3I8AI3B8CTGLuDz++mxGotAj8tXOn44H9B0alpae5pyQle6akpLinpac7S3m5Nrk5ufb0vWtGRoZbZkaGe2Zmphc+GRnpTnZ29hc/XLZ06ICBA2+XJHinTp6027Bu/ewzp0/3v3v3bmOa28rb2zuofceOv3/w0YcfluRaeC5GgBEoHgRsi2cYHoURYAQqGwKHDh56/Ksvv1xiZ2fna21tLeEjNyuJ3o+0r0hWVvQv7ScvN1fKyc1rTeQGmpASIzFEuGq8MnnyutDboT1sbGwka/qgxcfHdw8ODu7eo/tD3Re/+87Yrt26JVS2c+T9MgLlGQEmMeX59HjtjEApItCuffu/R40ZvTQsNKzrtWshnRITEn1lsmJsWXl0AWSH+uHbEmukaPkkPCy8h4OjY4E5ZeIVEhIy6MP3P1hOFyeU2KJ4IkaAEbhvBJjE3DeEPEBJI/DJihXD6G0aQlA2h+qaRfG9LCANfZV/hn7ivpycHOs2bdtu79a9e3pJ76U8zzd02NBIWv9H+Bw/ftx+7Zo1M7f/8ec7IDIqWraKPsXS5eNlyx8nEjOcNEZGx8O1s2fOjKU9fPPM+PFHi2ViHoQRYAQsjgCTGItDzBMUJwJffbnqkXlvzP3K0dGhqpWO+aKoc+Tl5Unks5HwyrSp02iMNUUdp7Lf17Fjx0zC4N3BAx994Pz58+NtbRX/tJQYiaH1tFfSEOF6bm6u7ZXLV1rRPpjEVPYHmvdfbhD4z4hdbpbMC63MCNSsVTOwZetW2z08Pa/hfZ+0KKR3yRMmCrUfCCzcBwLj7Oyc4Ofnd7Wqj09EZca1uPY+aMjgVfA5AbYmWomakrKyshQZlbxWcka2Ly4seBxGgBGwPAKqf7ktvxSegRFQRoAiWmKp1zj03LJ5c1NyLh17+NCh5+/cueMJ4anU4FhapUqVvJ69en7UrkOHXxo0aHCuc5cuac//739Kt/J1FQg0btLklKubW3hCfLy/wnmosjmpmFKxS63atYIVSFX+GLVr17qmOCB3YAQYgTKDAJOYMnMUvBBzEXjiqacC6Z7X9u/b99H8efMP3r51q7ESkcnKzpYGDx0yZcm7735q7nzcXxkBW1s7ycbamtRjJlu+P5LyiPffo//AgWt+37ZtekJ8QiNjZi7S1kikkds9bcaM3+9/Rh6BEWAESgoBNieVFNI8j8UQeKRnz7gBAwe8JUxLJhrexh0dHWO7P/TQNostppIPTBjDHOOgAoYS+9vTvXv3zEnPPz+Fzj4MZEVXK4Pv8TNXV9egya+88qqKdXMXRoARKEMIlNgfkjK0Z15KBUSgTp2655R8MSCwXFxcIqpXr46oGm6WQQA2PeNhQJaZU3HUV6ZO3T1vwVs9GzdtsoZ8omKzSSOHD30f16JFi28WLlk8cPyz488pDsQdGAFGoEwhwOakMnUcvJiiImBjY52jJrQX+UnU9CvqOvi+/LB3U1DklgZOY8aORamDZ3/estUrMiKiCdbgXzMgaOiwYXf/2LmjNJbEczICjMB9IsAk5j4B5NvLDAJqn2VoCVgDadljU4o+Qni1Uh+LrfDxJ4bfpcEPW2wCHpgRYARKDAH+Y15iUPNEFkZALYmBuaPEImMsvOeyODzIiZKmBddLjcSURdB4TYwAI1A0BJjEFA03vqvsIaCWxLDwtOzZqSEx6MPnYNlz4NEZgUqBAJOYSnHMlWKTap9lhDCxALXcI6GGoKjpY7kV8siMACNQYRBQ+/ZaYTbMG6n0CCjlMCkSQOt/WNctLCysYXhYWL34+HtVKfKFyvHYZ7m5ud319fUN9alWLbRxk8bHKLwb/hjF0k4cP26dnJzinpycVD0pKbl6clKSd3p6ulOzZs2O9erT+7qhSdasXt3j1ImTPSMiwutnZ+c45NA6bWxtsyn8OLlBwwaBnTp13kN5dE7f5wKVSKJJEnPk8GFHKgGAJejXuYIZUCarcq4ZUSuL+ls//Mgj8WrXTXPYEHauhJ1XUlJStdSUVPfc3Bybl6dM2a52DP1+R48cofGSqyYnJVelMb1TkpM9yXCZN/nll380NOY/x465Hj50eAiVReiSlJiIZ8aeIuisKJdNpqenZ0yz5s1PPPTwQ7926NixWCtr0zrdAy9deigyMqpWZGRkHXpuPCk9gQ09sBk0b7RfDb+bNWr4Xx877pkDuuve/OOPbfbu2ft4k6ZNAqdOn76xqDjxfYxAcSLAJKY40eSxygMCxaYFWLN6Tde/9+4Zfunipf5vvvHGAySEbBC2i6zAFLsryiAg7Fuu20Ph3YkD+vTd3/2Rh7cOHDhwXavWrU36jqxft77jbz//PDY9M8MnLTXNKzcnxyE3L88mIz29CpEV12efGedKOU5cs3OyHfJy80T+k8zMTKlnr14r6SCm6B7GorcXTtz1184XF8yb3xYEAX3zo7QIEbpbOnb0qPTTps2JI5548qdJ/3t+Se8+fW4U4UDV+BsZ3fexY8eqTBw3fg/tozbh50hrhA8TiItugjy5yCcIaTbtJY/wSFswf/57CxYuxN6lCePGvxsfH18tNTXVIyszE6Wr8wgrOyor4EL4uT737ARg503C2w1YaLFLXvnxJ6NfmTrFYB6hN19/fXpQYFC7jMwM1/T0DGe6ySo7J8cuPS3NlcZ1mzj+WTca043GBBkRYxJJTPvsk5U5L0155ScZy7/3/V19w7ofZk+aMHFUQkKCnzgLXNQWzpTz2Ozbu3fyurVrg+bMmv3d+x99uLQIZ1HglhXLlo3c//f+wTTvIykpKX54DuQPnllRUZXWgGcWSQFbN28RWa9+/QMdO3X8pUXLlvuo8Or8E8dPDImJ6Y69MIm53wPh+4sFASYxxQIjD1KZEFj7/doOP25YP33hggXDsrOyHOQswVTOIKllq1Z/1Klb9wLJVK+LFy72v37tWnOZxJCgdQsKChqMz++/bXth+bJlH02fMeNnY9gF//tvo3379o23t7d3gVABKdLIOg1PyP9KItDKWvMz9CONgpM85qGDB92XfvDhqq9XrRohkypTWY0h1OlNfWLItZDmv2z9+YVhwx8/a4GzNerY27lz5+S+PXvdjIiIqE9aDQ8IdGPrhQBGgkNbWxuUkrjr5ekVhbUeOXzEauyopx9LTU1rhurUuvfrF4KUMcV9NF4V4jpGa1dQpe6uZ8+cHe7g4CDpVsQ2NSYN6wQNj4zhqs+/6Ddj2rRlcbGxTXBWpipr4x4iOU02rF//0cgnn6r340+bXyrKWaxft677mu++m7N86bJHcT/wkDEhDVxOjRo1jvkHBFyktZDyKNmdMl+3iYuNa0ulPPzu3rkz8tTJkyNJoyilZ2Sg1piUlZnlX5R18D2MgCUQYBJjCVR5zNJAQMmEIa9JjabA6Pqfn/jcW2+9+eZMEp6ushCC9qVq1arXZs6ePWrUmNEndG5+deL48Z/t27tvsizoRNp7EswR4eGdP162fCu9FS/5+rtv3zQ0Ye++fTY7OjllXbl8uQ+ZjkaSVsFRqawCxrG2thFY/Lx1a73pU6ZujoqKaov75LduuVCmoXw5+BmRJik2OqbDu++8s5I0I48RsYgv5gM1GZ20a9/ekVQPy+P8ufMP//rLLyuCr16to7tvEJfcnFzJ3cMtulXrNts6de60vV379js6duqUgXV27dY17+Ply9+4cuVKJyIdgygnTHN5zyr2YfQ5mjhp0goywxw7ferUkMtBl7srVcaW57KxtUvC93Nff/3F9997bxE0QFiP2AcRMVNrwzWcB+ExmbRLid99v+Z1FXvI77J44aIJpH37MCMjwwvPnnzmmJvI9hmqGTaZntnj+mN++snKgVSbbM7169cfsqVnh8iNuBfrSUtLczZnDdyXEbAkAkxiLIkuj10WESgyiRk0cOBXO3fsmKT/Bg0BO3HSczP1CIzY+9QZM6ZCmIaFhrXJr9tDwgDfQ8tA482dNGGC9PV33xUiMt26d0+jITbgQwnalnzw3nuboqOj2+hqD/QBhqAh7VDT7775tvPitxeuIgLT3MnJKdWnms9lHx8fKoQo2URFRramt+wGuNdY4j9oCEj4d1397bevUTd8zGlKGCua9GjvIE6/kQnEbumHl3+SszELwuhT9US//v1XPzpo0Lpu3bol/7BhfaG1kc8GaiDhM5fMTON/3LBxBQlyd1PYaQcx6jM18umnkVsGn6ULF7z9PJl6VhIhsTc1Jq5FR0XVnfva6y9sWLf+LVq/N2mNkqlO0zU3D/fw1JSUKvRstCWC6mKKoILIHDxwYDKZGH8bPWb0P2oOY/nSpU+u/GTlUjIVeehqfECcyPclYt78eUN79ekTamisl6e8At+g7RPGj3/r7737FugSNtIocqVvNQfAfUoEAbURHSWyGJ6EESgBBIr0zD8+ZOjKM6fPTIIw0BX8EKrkgLmZnDd/M7R2Smmf3bNnr28MVVHGOBhv11+75r6zaPEYU3unBG0hNMcoezu7eFMVmUGOLl261OW9d945GhMT06h1mzZr57zxeu9/Tp5s9/v27U//sWP7U6fOnW04/MknXoaANTUWhOrJf44PJQdULzPPRQ2JUTUk+aAIcxxwpvVG9RvQ/81PPv2027vvv/8lCIyaQchPZs2AAQMXaJ2F1dyi2Gf+gre+erjHIx8o1esCxj///POKH9au/ZjOOq1vv34fvPfBB+33HTzQ6tdt2x7dtXfvwx989GEDek6+Rw0nYw0YEAlz+/2330w+J/L9pLmpsua7NXPJj8pDn2Rhzc1btNhmjMDoruG7NWvefmzQoOnC14sYMBr5K6mpjaWIIXdgBIoDgSL9QS+OiXkMRqCYEbCYOWnG1GlTyITwMvkPGFzyQw8/bLKgZOeuXbaRAEs0dLP8hvvT5s3TTp44YVI4PDN+3L81a9ferSQ4yWkTAid53PjxL/25c8c4Mhkc05/7o2XLPnt00GOzyPHU6DFA+MUnJDxIzpy9zTgr4R9qRn+jXckU8vTf+/ZNgPCsWavW7rfeXtDv62+/XUJaGuPS3shojw569HtyrL6ugsio/pvYt2+/LUQahanIVEtMSLCp4e9/fOHixU9+u2b1nCHDhl7R7f/Y4MFR27b/Ob527dp7TJ0tSGVIcHD3U6dOKa7xj9//ePbe3bstDWp3CE9EzSmtW76+8vPPVnTt1k0QNjyvRLaYxKgFj/tZHAHFXwaLr4AnYASKBwGLkBgiFw22bfttjiFhAIFI1Y/vtGrdqhBJ0N3SwEcfDUfhSWMCFGOTeaftn3/8qfiWTaaIOFPaE1yDNmbCc8+9sOS9d782BS2ZRz7z8va+YWxdsgaE/EBaF88RFRjF5Hl98N77Q7/9+usPSPtQg0jiF4ePHe07dty4C0VdR+++fe+RU2qUKey0Y6smYLVq1wpGVXRTY0Lw+xOBWfLuOyNGjnr6lKn1Dx469EtcNzaeIJXx8Q+G3g6trYTDpYsX2xmlkkREIiMj6imNoXt94+ZNc8gBeI+2cKYVhaiz7DAHQO5rMQT4QbQYtDxwGUVADs9VtTzyY5iVmZ5Zw5DvCMJSiVREka9JtNJg7u7uJoUdBNepEyf6KI1D6zDpjwCh2bZdu+9en/tGYUcRvcE7d+mSTiG0hyGYTDVErCitS+e6GjJp8gzeWbz4qVVffvkJCW338c8++/L6HzdONmN+41014dpKTfXfRIR/08ck6cG5PjVyxPu9evdWrJxOzskHiRSHGSMxmAqmnLDQ0IZKm4iNialpzFcHpJnMdEO/X736EaVxdK8Pf+KJZfTveArzTyPNjFJpCXOG5r6MQJERUP0LW+QZ+EZGoGQQUCM8sRLVb9qbf9zUiLQQo20ohNdQoz/mkoeHRxSFVacobZGE010l/xNKPNaKopCUnO3zw6cNromIlV+NGqjWrKp5eXlFmOoIwUnRKBR6rLqpOQcU4TQoBN+ev2DM16u++p7CmGvOenX2EwuXLP5C9czKHdU4pJrzNxEPhknTCuGXS4njQpSXJkk9evaIdaniEmnK5IVriYmJHkrjkQbLxRi/Arkh51zHZR8t3UT5gyZdDgpSeubEdLPmvLqDtDH7baytbynNz9cZgZJCwJxf2JJaE8/DCFgSAdUkZseO7WMgwI1GnxCJ8fTyClezWAdHx1RT/TDHvXv36oWEXGukMB4IgMlGgk6NxkGMQULToK+O7gQ0niohp3OPEpExON6rM2dNXrtmzQ+kTaLIcqfcVm3aHFHaq5nX1exD9fNBcwNnJawJPvXnQfuOV9oTOesqrpFIYLIp0oznjchQNTLZfUVJE49Pe2XKvF9+/rmZ0tzHT58advFykDk+UkpD8nVG4L4QUPNLfV8T8M2MQBlDQLU56dKFSz3zw6INbYK0FCQoHAIDA0U6/OysbPvs7Cxb+mqTlZNtnZOVZZOdm5tHKegdV674uK4py4PWYdKOnECrKuCl5sVDTR8xDb1VqynDoCg0zSAw6FrI+XfalKlTNm/a9DGEKyK2KBmc9ecrP11MfacX4/OjZh9q+pizJPyNVT2mtZWq81AiiRL5OoWSZs9ookBsQI5OozD8Nlu3bGmz/c8/3+rR/aEDDR9oeISi2g7AvNW+QweznajNAYf7MgL3iwCTmPtFkO+vkAhs/+MP3ykvv9LSFPGAsD1/7tyIcaPHNKO37Uz6WJEWwRZv3rl5uVaUkA0Z8a0oAb0LfS98FJSccglM0w4qRswweoegmsSoPDzVQlg7npKQTad++eYkStc//5etW9+WSzRgDJBHyosybdnSpXtmzJz5p8p1KnVTsw81feR5lPYp9zPnPMyZ3+h+GzVqdIace8cpAqItMwDsUTaDktv1DAkJ6bn7r13zqri6Bo0eOXJn/wED11IdpfNKY/F1RqA0EDDnl6s01sdzMgJqEVD7x1+V4Ll27VozCiV1VvDbRO4OKTY2tilFF7Umc1ArUtE3I0fYxlRQsBH5HTQmR8wHKE27r5bQCBJj4hOqInqmNBwq1WKr6qxosDxK3ibMa2NGjXp3z+7dBQiMPAiw30gJ4ojMmOOTo2oNJjqZs1echZrzMGdMNetXHG/QkMGryJn8klI4vu5kwBvkEYn1rIhw03Pc5NDBQzMoWeDJxwYM3EDJ/VqpWRz3YQRKEgHWxJQk2jyXagQo3b01Rf9YdenaVY25Q/W42o6KRObu3Xs+SoQCAqJWrVqXH3/iidfsHewzqQgj/CPkbLT4KgoU0gcqeXkfutchjIQpCh+qsWP/4kuTkRHWVFMjNBX3ZyZgikJTbzyj8+MCaaS8yWG6CxWaHHDg7/0vQGgaatAOUIbi9h8vX/EBXS+OCCU1+1DTR16umrNAX3PGVHM0iuNREdAMqu313rdff7NOLm2gZmC5j5y/SKs9tLtw/vzTVP5i0MsvTv7w0y8+X2jOWNyXEbAkAkxiLIkuj202AvPemPsKZYjtP/l/L9QilYXNI926RzRv2XL/qFGjllLSOKThv9+mmPJeTJCXp6ilhHCoWs3n9LQZ000mu7vfBevdr0ZwmkNiFAViEYSw0fkhFBHS/f3qNVsTEuKpLI9pv1iY7KgA4YvvLXnnyGsqwsYVsC7uvap7lswjMWrWqPhsAof5CxasJ4fdar/9+usyEG4lrI1hJ2eWRoHMbb/+9vb4MWPd16z7YWYxP9c8HCNQJARU/TIUaWS+iREwA4HAS4FWj/bv/8Pq77775N9//x1I2UabkXmm8Y0bN3r9vGXLoulTp/66a+fO6mYMaayrKgGP0Fg1c6UkpxhO46vmZsv1UbVH7fRqhKY54ykKdpA/Stpm++CDjQ5QJt4wJZMHhOj69etepzpT91s9Wc1e1fQx9+TMGVNNXzV9xBpXrPxk+fMvvDCCQvyvZZLpE9graRhNkRlbO1uJKqvPWLJo0VhzQeD+jIAlEGASYwlUeUyzEfjy888XXDh/YQyFhoroFLw14gMbPdL9h4eH912xfPn7JgZWJWhJE5DVqnVrRYLi4eURo1QsEMI1OSmpmtmbvb8b1OxTTR95FaoFohnLNjk/BGmnzp1X7f573yMzZ8/qSmHFcaZyo+A5SExIbPr5p58tMmMNJdVVDdbFjbFZf7cp8eHmFStXthz42GMLKa/RVZBG1GlSUYKhEIZyJes/fv/9fyUFMM/DCJhCwKxfBoaSEbAEAkcOH3Hfv3//86bCmUFsKMvoyM2bNjc2tAaKZFbK1yHeQCn1fLyaPdStUy+Q1pNt6q0Vf9Cp+rD/0aNHfdSMWUn6QKgbJYlIEIg6UlSJ+SPgMXTYsNtU3PINJe0Ano2zZ848O3/umy9YGEdzCIfavmr7YWtq+qrpUwCmXr17paz65uu3zl688ODkl196krI1f0P1k4JBZvABsVE6A3lAkMrwsPDOq7744iELnwUPzwgoIsAkRhEi7mBpBM6fO9s1/t49X1OaDxAG+kPr8O+VK+0MrYfIhDveLE1FE+GPtKubm2KJAIxP0R1RVO/IZKZVrJc0MfVvXr/e1NIYmTm+OULOnL5ql2FUO2GFSshWVumEXb7D9pJ33/2aqjivMVXFGRODyFBCtpm/b9tmVt0ftYsuYj81+KnpI0+vpq/Jv9uzZ84aN2v6jJeM7WfO669v2bTlp0nnAy89QJqw/o/06PGhr5/vCfRXKkEhj0m/S9bBwcGKyfGKiCnfxgioRoBJjGqouKOlECD/CC81Y4OEkPAzmEclOiY6QEk9jut169UNVDMX+tSpW/eQKX8NEKZ08jM4c+Zsd7VjllC/4v69ViNYzdmaHVGZAmt88eWX5lAdqpumzhCkMSEhocHKjz9515zJdPqqMf2o6VPE6VXddt9nRzmOXvph7dp3qazAQKUZp06f/tfa9ete/efkyY6vv/FGlzZt267FGSj9LuHZp/pMvkrj83VGwNII3PcvjKUXyONXfASIKCgKSRAY8o1JbN6ihcGK0Tev32iipIVBKC8VRzyoFtEuXbvsUMoTA9X68X/+GaB2TFP91v3wQwcV46gRsop4qpjHkl1Q/6nA354BAwfGjBozeh4mNWXWgFmRtHFPzX399VfMWWBQUFBpYqLmzMzZjsm+5FfmSDi5/rFt2xRzBp30wv+O/bLtt3FkbhpCZtd7SkTG1tYu05zxuS8jYAkEmMRYAlUe0ywE4KeiZI/PysyUyOSwYfCQwTcNDX771q2W1iYKCkOjQirzoxMmTvxb7eJI7f5L9erVj5hSsYPE0NydP3jv/fFqxzXUb/TIpz8iwbxxxtRpsxTGKW6BqEa4F/ecKJpYyIfpzfnz17Vo2XKtklkJxPKXLT/P/GWrcq0fPSyLe6/FjYvaR8jkvBRBlA3TGyVs7Pf6q3NeVDuo3G/2nDnbnho5cgplnTZ6K35fq1f3DTV3bO7PCBQ3AkxiihtRHs9sBAJq1gwkLYnRtzqQCKrMfGTK9GlvGBp87+7dfrdu3eqCLKPGGv7oUnTGt+Yurv/AgZ8rvZFCqP60adPMfXv31jB3fPR/6YUX5x45fHhqTnZOvbCwsPr3T2LUyOr8WdQIYjV9dJetpr/BRb485ZWpFEFzXSlaKSUlpfbnn31W7EnX1IbWY7PUN4fccBUj3airmj4yfmqwM01ibG1R1kHURvrll18WbNn8U21zn8s+/fpscHN1CzV2DvS7ll6/Qf2z5o7L/RmB4kaASUxxI8rjmY3AiJEjr/sHBJwwpPHAWzmlTz83a86rk8gB8Z6hwX///fcJJNS8jDkGU+p/qWmzppvmvvnmd+Yu7u1FCzc0atx4vSntALQxMTExzRYvWvT1oYMH3c2ZY8K48e9QuOpC1FyqW7fu/hmzZpk0AcCh0hRFAaHKzs5UrHSdLzGptpOp9WocqrNVJ8Wk/qbzxEBbJkovGJ61T9++8RSt9A60AKa0c8hXQmalYXNmv6oq6ZqoYZWbS8o60wSPSkWozvtDz6udNkuzySOnoqCKkXM6DEaZxCjkMCJTUqrWf0xKS02t9vGK5d8cOnRI9Rqwli5duuYiiszQxqDV9PevcXjipOcumPOsc19GwBIIMImxBKo8ptkI9O3b9wu5ppB8M94CKRnawYVLFg99asSIy4YG/XHjxjZ/7dg5zxiBySYSVN3X9+SMmbOmmb0o7Q2vvjbnf6Q6P2qKyAj1fXDIwJnTph9a+sGHI5TmWrN6Tcce3brvpLpBr1Nfay9Prwukxh/XqXMnk1WDybG1BqkAjA4PIX375q0mSvPL1xMSEj1N9YWJLioyqvHFixdVqXciIsIDiFD6mSILlHTNKvT2rQeNzfv2okXfNm3a9CelSBmQx99++WUuObE+rLTf8LCw2hTBZjJZItZ84viJ3kpjydcpEWMzIj0mw+vxTJN2rY6aMakUg1VqSoqnKexwHlSKIcDUeHZ29kITg4bnkp6H3m+9OW/rwYMHDdd3MDAYPZfV0tLSquuvBfuh38u0xwYNWqVmT9yHEbA0AkxiLI0wj68KgXkL3trQpGnTfI2HTGhGjR79JuUSuWVokJ+3bn1w+dJlG0g4ORgiMdDAeHp5nZzz2mvj+/TrG6VqIQY6kXYgZc4brz3p5e39jxKRIY1M85WffPJj146dzpOW5Yt5c9+c+smKFUO++vLLXh++//6IaVOmzOvbq/eOxW+/feT6jRv9sE8vL69zr77+2pjBQ4fcNrXGD95774mw0NBeNibMZsDh6tWrwz5eseIppf0ePXLEmRxee5tKR29NRCEuLq7x5ys/VRURtHnjj69Cm2GMVEIoQtXw26+//e/48eNGNUbPTpj4ur2DQ5IpbQzmSE9L86Rn4HtKhPe4qf1u3LBhCglld1Nh/BD4VJV89IJ581U5DW/79ddnoEEzRTpwbef2HZP/3rdPMQJvz+49w1FI1NQabVDde//+Fz//9NNHjO2XTLMp8jXgZ0vO0CHBwUNmz5j593fffttR6bnAdVrzOCKjVXX3hrHwO9WxU6flc+fN26JmHO7DCFgaAVVvV5ZeBI/PCAABEqrWlMxs85UrV4Yjkgh/NInYbH3+hf/NGDJ0aL6AJ/NLnT27dj29669drxGBcdMVwto3RfneH2fMmjmNSIiq3DBKp7B7126HFcuXfXLx/PlJ1tY25BZgbTQvDbQIct4auZ8cuioX18N8FG21kWovvdS7Tx+DprJVX3zZi/Bodf1aSFsk+0Mkl5JJBPNAINPYG8iMdmjY8OFr2rRpk/92/tmnnw26EhTU5tzZs/1IS9BZKTMx1gkTQtWqVS80btLkAJ3JKcoCu1ZzZoddDh44OOgGRYdRgcDO5JtkkhTJGGM8Hx+fIy1bt9pLY56bOWvWL/r4/++5SfN3bN/+NiKSTDWMhT3UrFlzb/2GDU5RmPCxDh067KbnaQAJ76aXAgO73Lpxs5+afcrkuXad2nuaNm12pEPHDofHPfvsHsx/YP8BL9rvwJs3bjSgs+hM2PVVMybOg/x8LtK6dlJ03BGK/vlN3g9V6Pbe//f+YbTOVmdOn36KnmcfNedrbWUdXade3cMNGzY8S2bWnSNHPX1aHnPY4CHfnDl1eiJMbkgumKutmwSc7Ozt73Tv3n01FS1dPmjwoAhDuC5ZtHjcD99//wlVaHfTFoAU528lWSU+3OPhFd+vW/eW0u8KX2cESgoBJjElhTTPoxqBMaNGLzp25MgL9NZXFTe5uFS5XrNmwCVHJ8dkSj/vEx0V3Tw1LdUX5EUWIhAU5BgrWdtYS1V9fE4NGTLkC9LumO0Do2aRSxYuGkxEalJkROQAmtfGxtZGkBljwkfWJuCrEAbUt1r1akGDhwz9YN5b8783NieZyTxefP75Y0lJSY3wNo39Kgk4eSx5LtKKxJF5ZuKUaVNFkUpyPvaYOP7ZI8nJyU3k8g5q9gwnFghEaKJ8/fz+vhB4qSfue3XmrJe+XrXqXQrrdYXWxpwigzgzIntpNGb8Wwvenjh1xrQd+mtp06LlsaioqE5K48rklQQv+T81O/9Ij0d++urLVdNpDm8QOqG9UvCH0cUOayPsJPKH+uPo8X8G4dqLz//vVTJfziKCXYXW42TOmBgPWgxfX99jFy8HdZHneuWll2evW7t2PuFXhaphSqac03Wx0e43h9aYNGjw4M+/X/fDXPk6VQdfSuRohp+f361RY8c+f/bM6Z5EkAZQna/GdJ9ghMjJ0/CBhsfq1at3qbqv383MjHTn8PCI+iEhIW2IpPUl/yGhMcPzSvil165bZ+ewYY9/PnX6tN2qnhfuxAiUEAKqHfZKaD08DSMgrduwft6GdevWUgjtW6SF6J4QH1/r0qVLIksrSIsszPEHFhoP/NvN3e1O7dp19nd/6KFfyIdl/amzZyyG5Nz580AIti1furQ3vZ0/iSKVSYmJASSkHEyRDMoAnFCrdq1jD/fosf6NuXPXnTxjeo39BvSPp4rBv2ZkZtbUkjVkuYXPDCK58BX/liNf8EIC502EL7vQBw6qxA+y4mrWrvWvDEbPXr3inx37zB+UpO8kjYl7MRY++F7fqRRjQughrwvGtCZhnEzmr2AiMWJI0gT827tv3zUk2NEH98vjISmhrpOv/MKEr/jAlI2/P1ZZ2VmZNWvVDDZ0YOQ8+hph/CgRrvwMv9p75fvh54G5Rdg2PRN5tWvXvlK/foOjPXv3CqAV2GnPRMhk+mBdMm66+5XXhXGAnW0OPVzkcB5EJEYsrVGTxv+SVm8drQV9sXZ5TGAnf/Az/b2irwNhZ+fh6RlGJCZ/q40aNbpMY66mMYEz9oT14Wzl89Bdo+73OGvbrMys3BYtW5yS1v2HHp3PTSop8E/Xbt02zpo9axdd2bV3z565+/buG3v61Mm+t2/d7kwk1pf8f54+efwEiFMW7cSWnKmFlk/UK3NwyPT09r7d6MEHdz7Ss8fGCc89d3T/QdUplgwdJf+MEbAIAqyJsQisPGhxIUBvlI5nz5ztQaaKNlTV2ocIjXdmVha9uDqke3l5xnl7V41s1rz5mUaNG50lAnO3uOY1d5z1P/xQPyjocueYmGhfEqRO6WnpVSCUSHuU7mDvkNagYYPLtM6j/fr3LxbTlrnr4/6MgIzA3t17nKlSfKfLl4Nak9+Le0Z6BgiqLf1OZdvb22UG1KwV3KRpk3/q1q13uXWb1srRUgwtI8AIMAKMACPACDACjAAjwAgwAowAI8AIMAKMACPACDACjAAjwAgwAowAI8AIMAKMACPACDACjAAjwAgwAowAI8AIMAKMACPACDACjAAjwAgwAowAI8AIMAKMACPACDACjAAjwAgwAowAI8AIMAKMACPACDACjAAjwAgwAowAI8AIMAKMACPACDACjAAjwAgwAowAI8AIMAKMACPACDACjAAjwAgwAowAI8AIMAKMACPACDACjAAjwAgwAowAI8AIMAKMACPACDACjAAjwAgwAowAI8AIMAKMACPACDACjAAjwAgwAowAI8AIMAKMACPACDACjAAjwAgwAowAI8AIMAKMACPACDACjAAjwAgwAowAI8AIMAKMACPACDACjAAjwAgwAowAI8AIMAKMACPACDACjAAjwAgwAowAI8AIMAKMACPACDACjAAjwAgwAowAI8AIMAKMACPACDACjAAjwAgwAowAI8AIMAKMACPACDACjAAjwAgwAowAI8AIMAKMACPACDACjAAjwAgwAuUWgf8DWJRfMLDeMaEAAAAASUVORK5CYII=;" vertex="1" parent="1">
          <mxGeometry x="201" y="411" width="108.98" height="86.25" as="geometry" />
        </mxCell>
        <mxCell id="pel05_LOhtitlJmnvoeQ-27" value="" style="edgeStyle=orthogonalEdgeStyle;rounded=0;orthogonalLoop=1;jettySize=auto;html=1;strokeColor=#6E6E6E;" edge="1" parent="1" source="pel05_LOhtitlJmnvoeQ-10" target="pel05_LOhtitlJmnvoeQ-26">
          <mxGeometry relative="1" as="geometry" />
        </mxCell>
        <mxCell id="pel05_LOhtitlJmnvoeQ-10" value="" style="shape=image;html=1;verticalAlign=top;verticalLabelPosition=bottom;labelBackgroundColor=#ffffff;imageAspect=0;aspect=fixed;image=https://cdn4.iconfinder.com/data/icons/online-marketing-hand-drawn-vol-2/52/gear__setting__web__configure__services__optimization__settinngs-128.png" vertex="1" parent="1">
          <mxGeometry x="150" y="544" width="47" height="47" as="geometry" />
        </mxCell>
        <mxCell id="pel05_LOhtitlJmnvoeQ-25" style="edgeStyle=orthogonalEdgeStyle;rounded=0;orthogonalLoop=1;jettySize=auto;html=1;strokeColor=#808080;entryX=1;entryY=0.5;entryDx=0;entryDy=0;" edge="1" parent="1">
          <mxGeometry relative="1" as="geometry">
            <mxPoint x="309.9799999999998" y="463.125" as="targetPoint" />
            <Array as="points">
              <mxPoint x="391" y="463" />
            </Array>
            <mxPoint x="391" y="406.25333333333344" as="sourcePoint" />
          </mxGeometry>
        </mxCell>
        <mxCell id="pel05_LOhtitlJmnvoeQ-26" value="1. Configure master and slave node&lt;br&gt;2. Add service plan" style="whiteSpace=wrap;html=1;verticalAlign=top;labelBackgroundColor=#ffffff;" vertex="1" parent="1">
          <mxGeometry x="113.5" y="664.5" width="120" height="60" as="geometry" />
        </mxCell>
        <mxCell id="pel05_LOhtitlJmnvoeQ-29" value="Deployments starts" style="ellipse;whiteSpace=wrap;html=1;verticalAlign=top;labelBackgroundColor=#ffffff;" vertex="1" parent="1">
          <mxGeometry x="473.85" y="264" width="137.44" height="29.87" as="geometry" />
        </mxCell>
        <mxCell id="pel05_LOhtitlJmnvoeQ-31" value="Mongo DB" style="ellipse;whiteSpace=wrap;html=1;verticalAlign=top;labelBackgroundColor=#ffffff;" vertex="1" parent="1">
          <mxGeometry x="369.25" y="74" width="80.5" height="37" as="geometry" />
        </mxCell>
        <mxCell id="pel05_LOhtitlJmnvoeQ-33" value="" style="strokeColor=#dddddd;shadow=1;strokeWidth=1;rounded=1;absoluteArcSize=1;arcSize=2;align=center;" vertex="1" parent="1">
          <mxGeometry x="720" y="243.75" width="180" height="90" as="geometry" />
        </mxCell>
        <mxCell id="pel05_LOhtitlJmnvoeQ-34" value="&lt;div style=&quot;text-align: center&quot;&gt;&lt;span style=&quot;color: rgb(0 , 0 , 0)&quot;&gt;Stage 1&lt;/span&gt;&lt;/div&gt;&lt;font color=&quot;#000000&quot;&gt;&lt;div style=&quot;text-align: center&quot;&gt;&lt;span&gt;Set up Job&lt;/span&gt;&lt;br&gt;&lt;/div&gt;&lt;div style=&quot;text-align: center&quot;&gt;Set up env&lt;/div&gt;&lt;/font&gt;" style="sketch=0;dashed=0;connectable=0;html=1;fillColor=#5184F3;strokeColor=none;shape=mxgraph.gcp2.hexIcon;prIcon=container_builder;part=1;labelPosition=right;verticalLabelPosition=middle;align=left;verticalAlign=middle;spacingLeft=5;fontColor=#999999;fontSize=12;" vertex="1" parent="pel05_LOhtitlJmnvoeQ-33">
          <mxGeometry y="0.5" width="44" height="39" relative="1" as="geometry">
            <mxPoint x="5" y="-19.5" as="offset" />
          </mxGeometry>
        </mxCell>
        <mxCell id="pel05_LOhtitlJmnvoeQ-38" value="" style="strokeColor=#dddddd;shadow=1;strokeWidth=1;rounded=1;absoluteArcSize=1;arcSize=2;align=center;" vertex="1" parent="1">
          <mxGeometry x="720" y="388" width="180" height="90" as="geometry" />
        </mxCell>
        <mxCell id="pel05_LOhtitlJmnvoeQ-39" value="&lt;div style=&quot;text-align: center&quot;&gt;&lt;span style=&quot;color: rgb(0 , 0 , 0)&quot;&gt;Stage 2&lt;/span&gt;&lt;/div&gt;&lt;font color=&quot;#000000&quot;&gt;&lt;div style=&quot;text-align: center&quot;&gt;To download the&amp;nbsp;&lt;/div&gt;&lt;div style=&quot;text-align: center&quot;&gt;artifact from&amp;nbsp;&lt;/div&gt;&lt;div style=&quot;text-align: center&quot;&gt;builded job&lt;/div&gt;&lt;/font&gt;" style="sketch=0;dashed=0;connectable=0;html=1;fillColor=#5184F3;strokeColor=none;shape=mxgraph.gcp2.hexIcon;prIcon=container_builder;part=1;labelPosition=right;verticalLabelPosition=middle;align=left;verticalAlign=middle;spacingLeft=5;fontColor=#999999;fontSize=12;" vertex="1" parent="pel05_LOhtitlJmnvoeQ-38">
          <mxGeometry y="0.5" width="44" height="39" relative="1" as="geometry">
            <mxPoint x="5" y="-19.5" as="offset" />
          </mxGeometry>
        </mxCell>
        <mxCell id="pel05_LOhtitlJmnvoeQ-40" value="" style="strokeColor=#dddddd;shadow=1;strokeWidth=1;rounded=1;absoluteArcSize=1;arcSize=2;align=center;" vertex="1" parent="1">
          <mxGeometry x="720" y="534" width="180" height="90" as="geometry" />
        </mxCell>
        <mxCell id="pel05_LOhtitlJmnvoeQ-41" value="&lt;div style=&quot;text-align: center&quot;&gt;&lt;span style=&quot;color: rgb(0 , 0 , 0)&quot;&gt;Stage 3&lt;/span&gt;&lt;/div&gt;&lt;font color=&quot;#000000&quot;&gt;&lt;div style=&quot;text-align: center&quot;&gt;Deploy it to&amp;nbsp; Azure&lt;/div&gt;&lt;div style=&quot;text-align: center&quot;&gt;&amp;nbsp;web&amp;nbsp;&lt;span&gt;app service&lt;/span&gt;&lt;/div&gt;&lt;/font&gt;" style="sketch=0;dashed=0;connectable=0;html=1;fillColor=#5184F3;strokeColor=none;shape=mxgraph.gcp2.hexIcon;prIcon=container_builder;part=1;labelPosition=right;verticalLabelPosition=middle;align=left;verticalAlign=middle;spacingLeft=5;fontColor=#999999;fontSize=12;" vertex="1" parent="pel05_LOhtitlJmnvoeQ-40">
          <mxGeometry y="0.5" width="44" height="39" relative="1" as="geometry">
            <mxPoint x="5" y="-19.5" as="offset" />
          </mxGeometry>
        </mxCell>
        <mxCell id="pel05_LOhtitlJmnvoeQ-51" style="edgeStyle=orthogonalEdgeStyle;rounded=0;orthogonalLoop=1;jettySize=auto;html=1;exitX=1;exitY=0.5;exitDx=0;exitDy=0;strokeColor=#6E6E6E;" edge="1" parent="1" source="pel05_LOhtitlJmnvoeQ-42">
          <mxGeometry relative="1" as="geometry">
            <mxPoint x="1040" y="390" as="targetPoint" />
          </mxGeometry>
        </mxCell>
        <mxCell id="pel05_LOhtitlJmnvoeQ-42" value="" style="strokeColor=#dddddd;shadow=1;strokeWidth=1;rounded=1;absoluteArcSize=1;arcSize=2;align=center;" vertex="1" parent="1">
          <mxGeometry x="720" y="674" width="180" height="90" as="geometry" />
        </mxCell>
        <mxCell id="pel05_LOhtitlJmnvoeQ-43" value="&lt;div style=&quot;text-align: center&quot;&gt;&lt;span style=&quot;color: rgb(0 , 0 , 0)&quot;&gt;Stage 4&lt;/span&gt;&lt;/div&gt;&lt;font color=&quot;#000000&quot;&gt;&lt;div style=&quot;text-align: center&quot;&gt;Complete the job&lt;/div&gt;&lt;/font&gt;" style="sketch=0;dashed=0;connectable=0;html=1;fillColor=#5184F3;strokeColor=none;shape=mxgraph.gcp2.hexIcon;prIcon=container_builder;part=1;labelPosition=right;verticalLabelPosition=middle;align=left;verticalAlign=middle;spacingLeft=5;fontColor=#999999;fontSize=12;" vertex="1" parent="pel05_LOhtitlJmnvoeQ-42">
          <mxGeometry y="0.5" width="44" height="39" relative="1" as="geometry">
            <mxPoint x="5" y="-19.5" as="offset" />
          </mxGeometry>
        </mxCell>
        <mxCell id="pel05_LOhtitlJmnvoeQ-50" value="Test your  react application &#xa;by entering the URL" style="shape=image;verticalLabelPosition=bottom;labelBackgroundColor=#ffffff;verticalAlign=top;aspect=fixed;imageAspect=0;image=data:image/svg+xml,PHN2ZyB4bWxuczpjYz0iaHR0cDovL2NyZWF0aXZlY29tbW9ucy5vcmcvbnMjIiB4bWxuczpkYz0iaHR0cDovL3B1cmwub3JnL2RjL2VsZW1lbnRzLzEuMS8iIHhtbG5zOmlua3NjYXBlPSJodHRwOi8vd3d3Lmlua3NjYXBlLm9yZy9uYW1lc3BhY2VzL2lua3NjYXBlIiB4bWxuczpyZGY9Imh0dHA6Ly93d3cudzMub3JnLzE5OTkvMDIvMjItcmRmLXN5bnRheC1ucyMiIHhtbG5zOnNvZGlwb2RpPSJodHRwOi8vc29kaXBvZGkuc291cmNlZm9yZ2UubmV0L0RURC9zb2RpcG9kaS0wLmR0ZCIgeG1sbnM6c3ZnPSJodHRwOi8vd3d3LnczLm9yZy8yMDAwL3N2ZyIgeG1sbnM9Imh0dHA6Ly93d3cudzMub3JnLzIwMDAvc3ZnIiB4bWxuczp4bGluaz0iaHR0cDovL3d3dy53My5vcmcvMTk5OS94bGluayIgdmVyc2lvbj0iMS4xIiBpZD0ic3ZnMjgwMDMiIGlua3NjYXBlOnZlcnNpb249IjAuOTIuMyAoMjQwNTU0NiwgMjAxOC0wMy0xMSkiIHNvZGlwb2RpOmRvY25hbWU9IndvcmtzcGFjZV9jbGVhbi5zdmciIHg9IjBweCIgeT0iMHB4IiB2aWV3Qm94PSIwIDAgOTYuNzUgNjMuNzUiIHN0eWxlPSJlbmFibGUtYmFja2dyb3VuZDpuZXcgMCAwIDk2Ljc1IDYzLjc1OyIgeG1sOnNwYWNlPSJwcmVzZXJ2ZSI+JiN4YTs8c29kaXBvZGk6bmFtZWR2aWV3IGJvcmRlcmNvbG9yPSIjNjY2NjY2IiBib3JkZXJvcGFjaXR5PSIxIiBmaXQtbWFyZ2luLWJvdHRvbT0iMCIgZml0LW1hcmdpbi1sZWZ0PSIwIiBmaXQtbWFyZ2luLXJpZ2h0PSIwIiBmaXQtbWFyZ2luLXRvcD0iMCIgZ3JpZHRvbGVyYW5jZT0iMTAiIGd1aWRldG9sZXJhbmNlPSIxMCIgaWQ9Im5hbWVkdmlldzI4MDA1IiBpbmtzY2FwZTpjdXJyZW50LWxheWVyPSJzdmcyODAwMyIgaW5rc2NhcGU6Y3g9IjY0LjQ5OTg0NCIgaW5rc2NhcGU6Y3k9IjQyLjQ5OTg5NiIgaW5rc2NhcGU6cGFnZW9wYWNpdHk9IjAiIGlua3NjYXBlOnBhZ2VzaGFkb3c9IjIiIGlua3NjYXBlOndpbmRvdy1oZWlnaHQ9IjEwMTciIGlua3NjYXBlOndpbmRvdy1tYXhpbWl6ZWQ9IjEiIGlua3NjYXBlOndpbmRvdy13aWR0aD0iMTkyMCIgaW5rc2NhcGU6d2luZG93LXg9Ii04IiBpbmtzY2FwZTp3aW5kb3cteT0iLTgiIGlua3NjYXBlOnpvb209IjkuOTY1NTE3MiIgb2JqZWN0dG9sZXJhbmNlPSIxMCIgcGFnZWNvbG9yPSIjZmZmZmZmIiBzaG93Z3JpZD0iZmFsc2UiPiYjeGE7CTwvc29kaXBvZGk6bmFtZWR2aWV3PiYjeGE7PGcgaWQ9ImcyODAwMSIgdHJhbnNmb3JtPSJ0cmFuc2xhdGUoLTAuNzUsLTAuNzUwMDUyNTEpIj4mI3hhOwk8dGl0bGUgaWQ9InRpdGxlMjc5NjgiPlBhZ2UtMTwvdGl0bGU+JiN4YTsJPGcgaWQ9Imdyb3VwOTI5OC0xIiB0cmFuc2Zvcm09InRyYW5zbGF0ZSgxLjUsLTAuNzUpIj4mI3hhOwkJPHRpdGxlIGlkPSJ0aXRsZTI3OTcwIj5Xb3Jrc3BhY2UgKENsZWFuKTwvdGl0bGU+JiN4YTsJCTxnIGlkPSJncm91cDkyOTktMiIgdHJhbnNmb3JtPSJ0cmFuc2xhdGUoMjUuNTIyNSkiPiYjeGE7CQkJPHRpdGxlIGlkPSJ0aXRsZTI3OTcyIj5nMTQ3MzwvdGl0bGU+JiN4YTsJCQk8ZyBpZD0ic2hhcGU5MzAwLTMiIHRyYW5zZm9ybT0idHJhbnNsYXRlKDIwLjEwNzUsLTAuMjg1KSI+JiN4YTsJCQkJPHRpdGxlIGlkPSJ0aXRsZTI3OTc0Ij5wb2x5Z29uMTQ2OTwvdGl0bGU+JiN4YTsJCQkJPHBhdGggaWQ9InBhdGgyNzk3NiIgaW5rc2NhcGU6Y29ubmVjdG9yLWN1cnZhdHVyZT0iMCIgc3R5bGU9ImZpbGw6IzU1NkE4QTsiIGQ9Ik0wLjcxLDU1LjI4aDIuODRsMC43Miw5Ljk3SDBMMC43MSw1NS4yOHoiLz4mI3hhOwkJCTwvZz4mI3hhOwkJCTxnIGlkPSJzaGFwZTkzMDEtNSI+JiN4YTsJCQkJPHRpdGxlIGlkPSJ0aXRsZTI3OTc5Ij5wb2x5Z29uMTQ3MTwvdGl0bGU+JiN4YTsJCQkJPHBhdGggaWQ9InBhdGgyNzk4MSIgaW5rc2NhcGU6Y29ubmVjdG9yLWN1cnZhdHVyZT0iMCIgc3R5bGU9ImZpbGw6IzU1NkE4QTsiIGQ9Ik0wLDY1LjI1aDQ0LjI1TDQwLjA5LDYzSDQuMTVMMCw2NS4yNXoiLz4mI3hhOwkJCTwvZz4mI3hhOwkJPC9nPiYjeGE7CQk8ZyBpZD0ic2hhcGU5MzAyLTciIHRyYW5zZm9ybT0idHJhbnNsYXRlKDAsLTEwLjk1KSI+JiN4YTsJCQk8dGl0bGUgaWQ9InRpdGxlMjc5ODUiPnBhdGgxNDc1PC90aXRsZT4mI3hhOwkJCTxwYXRoIGlkPSJwYXRoMjc5ODciIGlua3NjYXBlOmNvbm5lY3Rvci1jdXJ2YXR1cmU9IjAiIHN0eWxlPSJmaWxsOiNGQ0ZDRkM7IiBkPSJNOTUuNywxNS4zOXY0OS44NkgwVjE1LjM5ICAgICBjMC4wMy0xLjYzLDEuMzctMi45NCwzLTIuOTRoODkuNzNDOTQuMzUsMTIuNDcsOTUuNjcsMTMuNzcsOTUuNywxNS4zOXoiLz4mI3hhOwkJPC9nPiYjeGE7CQk8ZyBpZD0ic2hhcGU5MzAzLTkiIHRyYW5zZm9ybT0idHJhbnNsYXRlKDAsLTQ4LjkpIj4mI3hhOwkJCTx0aXRsZSBpZD0idGl0bGUyNzk5MCI+cGF0aDE0Nzc8L3RpdGxlPiYjeGE7CQkJPHBhdGggaWQ9InBhdGgyNzk5MiIgaW5rc2NhcGU6Y29ubmVjdG9yLWN1cnZhdHVyZT0iMCIgc3R5bGU9ImZpbGw6I0U1RTVFNTsiIGQ9Ik05NS43LDUzLjM0djExLjkxSDBWNTMuMzQgICAgIGMwLjAzLTEuNjMsMS4zNy0yLjk0LDMtMi45NGg4OS43M0M5NC4zNSw1MC40Miw5NS42Nyw1MS43Miw5NS43LDUzLjM0eiIvPiYjeGE7CQk8L2c+JiN4YTsJCTxnIGlkPSJzaGFwZTkzMDQtMTEiIHRyYW5zZm9ybT0idHJhbnNsYXRlKDAsLTEwLjUpIj4mI3hhOwkJCTx0aXRsZSBpZD0idGl0bGUyNzk5NSI+cGF0aDE0Nzk8L3RpdGxlPiYjeGE7CQkJJiN4YTsJCQkJPHBhdGggaWQ9InBhdGgyNzk5NyIgaW5rc2NhcGU6Y29ubmVjdG9yLWN1cnZhdHVyZT0iMCIgc3R5bGU9ImZpbGw6bm9uZTtzdHJva2U6IzU1NkE4QTtzdHJva2Utd2lkdGg6MS41O3N0cm9rZS1taXRlcmxpbWl0OjM7IiBkPSIgICAgIE05NS4yNSw2NS4yNVYxNS42N2MtMC4wMi0xLjYyLTEuMzQtMi45My0yLjk2LTIuOTJIMi45NWMtMS42MiwwLTIuOTMsMS4zLTIuOTUsMi45MnY0OS41OEg5NS4yNXoiLz4mI3hhOwkJPC9nPiYjeGE7CTwvZz4mI3hhOzwvZz4mI3hhOzwvc3ZnPg==;" vertex="1" parent="1">
          <mxGeometry x="968" y="250" width="130.72" height="86.25" as="geometry" />
        </mxCell>
      </root>
    </mxGraphModel>
  </diagram>
</mxfile>
